ISO-10303-21;
HEADER;
/* Generated by software containing ST-Developer
 * from STEP Tools, Inc. (www.steptools.com) 
 */
/* OPTION: using custom renumber hook */

FILE_DESCRIPTION(
/* description */ ('STEP AP242 Edition 2',
'CAx-IF Rec.Pracs.---Representation and Presentation of Product Manufa
cturing Information (PMI)---4.0---2014-10-13',
'CAx-IF Rec.Pracs.---3D Tessellated Geometry---0.4---2014-09-14','2;1',
'CAx-IF Rec.Pracs.---User Defined Attributes---1.5---2016-08-15'),
/* implementation_level */ '2;1');

FILE_NAME(
/* name */ 'L bracket - L bracket',
/* time_stamp */ '2026-08-26T19:53:31Z',
/* author */ (''),
/* organization */ (''),
/* preprocessor_version */ 'ST-DEVELOPER v20',
/* originating_system */ 'ONSHAPE BY PTC INC, 1.219',
/* authorisation */ '  ');

FILE_SCHEMA (('AP242_MANAGED_MODEL_BASED_3D_ENGINEERING_MIM_LF { 1 0 10303 442 3 1 4 }'));
ENDSEC;

DATA;
#10=SHAPE_REPRESENTATION_RELATIONSHIP('','',#561,#11);
#11=ADVANCED_BREP_SHAPE_REPRESENTATION('',(#559),#936);
#12=CYLINDRICAL_SURFACE('',#572,0.0018);
#13=CYLINDRICAL_SURFACE('',#579,0.0023);
#14=CYLINDRICAL_SURFACE('',#582,0.0023);
#15=CYLINDRICAL_SURFACE('',#585,0.0018);
#16=CYLINDRICAL_SURFACE('',#587,0.0018);
#17=CYLINDRICAL_SURFACE('',#600,0.002);
#18=CYLINDRICAL_SURFACE('',#601,0.003);
#19=CYLINDRICAL_SURFACE('',#603,0.003);
#20=CYLINDRICAL_SURFACE('',#605,0.002);
#21=CYLINDRICAL_SURFACE('',#606,0.006);
#22=CYLINDRICAL_SURFACE('',#608,0.006);
#23=CYLINDRICAL_SURFACE('',#611,0.0032);
#24=CYLINDRICAL_SURFACE('',#614,0.0032);
#25=CYLINDRICAL_SURFACE('',#617,0.0032);
#26=LINE('',#789,#67);
#27=LINE('',#794,#68);
#28=LINE('',#798,#69);
#29=LINE('',#802,#70);
#30=LINE('',#804,#71);
#31=LINE('',#807,#72);
#32=LINE('',#808,#73);
#33=LINE('',#810,#74);
#34=LINE('',#812,#75);
#35=LINE('',#814,#76);
#36=LINE('',#817,#77);
#37=LINE('',#819,#78);
#38=LINE('',#821,#79);
#39=LINE('',#823,#80);
#40=LINE('',#826,#81);
#41=LINE('',#828,#82);
#42=LINE('',#830,#83);
#43=LINE('',#837,#84);
#44=LINE('',#840,#85);
#45=LINE('',#842,#86);
#46=LINE('',#844,#87);
#47=LINE('',#846,#88);
#48=LINE('',#848,#89);
#49=LINE('',#850,#90);
#50=LINE('',#852,#91);
#51=LINE('',#854,#92);
#52=LINE('',#856,#93);
#53=LINE('',#858,#94);
#54=LINE('',#859,#95);
#55=LINE('',#883,#96);
#56=LINE('',#888,#97);
#57=LINE('',#894,#98);
#58=LINE('',#899,#99);
#59=LINE('',#902,#100);
#60=LINE('',#903,#101);
#61=LINE('',#905,#102);
#62=LINE('',#906,#103);
#63=LINE('',#912,#104);
#64=LINE('',#913,#105);
#65=LINE('',#917,#106);
#66=LINE('',#933,#107);
#67=VECTOR('',#630,1.);
#68=VECTOR('',#633,1.);
#69=VECTOR('',#636,1.);
#70=VECTOR('',#639,1.);
#71=VECTOR('',#642,1.);
#72=VECTOR('',#643,1.);
#73=VECTOR('',#644,1.);
#74=VECTOR('',#645,1.);
#75=VECTOR('',#646,1.);
#76=VECTOR('',#649,1.);
#77=VECTOR('',#650,1.);
#78=VECTOR('',#651,1.);
#79=VECTOR('',#652,1.);
#80=VECTOR('',#655,1.);
#81=VECTOR('',#656,1.);
#82=VECTOR('',#657,1.);
#83=VECTOR('',#658,1.);
#84=VECTOR('',#667,1.);
#85=VECTOR('',#668,1.);
#86=VECTOR('',#669,1.);
#87=VECTOR('',#670,1.);
#88=VECTOR('',#673,1.);
#89=VECTOR('',#674,1.);
#90=VECTOR('',#675,1.);
#91=VECTOR('',#678,1.);
#92=VECTOR('',#679,1.);
#93=VECTOR('',#680,1.);
#94=VECTOR('',#683,1.);
#95=VECTOR('',#684,1.);
#96=VECTOR('',#713,1.);
#97=VECTOR('',#716,1.);
#98=VECTOR('',#723,1.);
#99=VECTOR('',#730,1.);
#100=VECTOR('',#731,1.);
#101=VECTOR('',#732,1.);
#102=VECTOR('',#735,1.);
#103=VECTOR('',#736,1.);
#104=VECTOR('',#747,1.);
#105=VECTOR('',#748,1.);
#106=VECTOR('',#755,1.);
#107=VECTOR('',#780,1.);
#108=ORIENTED_EDGE('',*,*,#246,.T.);
#109=ORIENTED_EDGE('',*,*,#247,.T.);
#110=ORIENTED_EDGE('',*,*,#248,.F.);
#111=ORIENTED_EDGE('',*,*,#249,.T.);
#112=ORIENTED_EDGE('',*,*,#250,.T.);
#113=ORIENTED_EDGE('',*,*,#251,.T.);
#114=ORIENTED_EDGE('',*,*,#252,.T.);
#115=ORIENTED_EDGE('',*,*,#253,.T.);
#116=ORIENTED_EDGE('',*,*,#254,.T.);
#117=ORIENTED_EDGE('',*,*,#255,.F.);
#118=ORIENTED_EDGE('',*,*,#256,.T.);
#119=ORIENTED_EDGE('',*,*,#254,.F.);
#120=ORIENTED_EDGE('',*,*,#257,.T.);
#121=ORIENTED_EDGE('',*,*,#258,.T.);
#122=ORIENTED_EDGE('',*,*,#259,.F.);
#123=ORIENTED_EDGE('',*,*,#260,.F.);
#124=ORIENTED_EDGE('',*,*,#261,.F.);
#125=ORIENTED_EDGE('',*,*,#262,.T.);
#126=ORIENTED_EDGE('',*,*,#263,.T.);
#127=ORIENTED_EDGE('',*,*,#264,.F.);
#128=ORIENTED_EDGE('',*,*,#265,.T.);
#129=ORIENTED_EDGE('',*,*,#266,.T.);
#130=ORIENTED_EDGE('',*,*,#267,.F.);
#131=ORIENTED_EDGE('',*,*,#268,.T.);
#132=ORIENTED_EDGE('',*,*,#269,.F.);
#133=ORIENTED_EDGE('',*,*,#270,.F.);
#134=ORIENTED_EDGE('',*,*,#271,.T.);
#135=ORIENTED_EDGE('',*,*,#272,.T.);
#136=ORIENTED_EDGE('',*,*,#273,.F.);
#137=ORIENTED_EDGE('',*,*,#274,.F.);
#138=ORIENTED_EDGE('',*,*,#270,.T.);
#139=ORIENTED_EDGE('',*,*,#275,.T.);
#140=ORIENTED_EDGE('',*,*,#276,.F.);
#141=ORIENTED_EDGE('',*,*,#277,.F.);
#142=ORIENTED_EDGE('',*,*,#276,.T.);
#143=ORIENTED_EDGE('',*,*,#278,.T.);
#144=ORIENTED_EDGE('',*,*,#279,.F.);
#145=ORIENTED_EDGE('',*,*,#272,.F.);
#146=ORIENTED_EDGE('',*,*,#280,.T.);
#147=ORIENTED_EDGE('',*,*,#279,.T.);
#148=ORIENTED_EDGE('',*,*,#281,.F.);
#149=ORIENTED_EDGE('',*,*,#282,.T.);
#150=ORIENTED_EDGE('',*,*,#283,.F.);
#151=ORIENTED_EDGE('',*,*,#284,.T.);
#152=ORIENTED_EDGE('',*,*,#285,.F.);
#153=ORIENTED_EDGE('',*,*,#246,.F.);
#154=ORIENTED_EDGE('',*,*,#286,.T.);
#155=ORIENTED_EDGE('',*,*,#247,.F.);
#156=ORIENTED_EDGE('',*,*,#287,.T.);
#157=ORIENTED_EDGE('',*,*,#288,.F.);
#158=ORIENTED_EDGE('',*,*,#289,.F.);
#159=ORIENTED_EDGE('',*,*,#290,.F.);
#160=ORIENTED_EDGE('',*,*,#284,.F.);
#161=ORIENTED_EDGE('',*,*,#282,.F.);
#162=ORIENTED_EDGE('',*,*,#291,.F.);
#163=ORIENTED_EDGE('',*,*,#292,.F.);
#164=ORIENTED_EDGE('',*,*,#293,.F.);
#165=ORIENTED_EDGE('',*,*,#294,.F.);
#166=ORIENTED_EDGE('',*,*,#262,.F.);
#167=ORIENTED_EDGE('',*,*,#295,.F.);
#168=ORIENTED_EDGE('',*,*,#266,.F.);
#169=ORIENTED_EDGE('',*,*,#296,.F.);
#170=ORIENTED_EDGE('',*,*,#297,.F.);
#171=ORIENTED_EDGE('',*,*,#298,.F.);
#172=ORIENTED_EDGE('',*,*,#258,.F.);
#173=ORIENTED_EDGE('',*,*,#299,.F.);
#174=ORIENTED_EDGE('',*,*,#275,.F.);
#175=ORIENTED_EDGE('',*,*,#273,.T.);
#176=ORIENTED_EDGE('',*,*,#281,.T.);
#177=ORIENTED_EDGE('',*,*,#278,.F.);
#178=ORIENTED_EDGE('',*,*,#300,.F.);
#179=ORIENTED_EDGE('',*,*,#301,.T.);
#180=ORIENTED_EDGE('',*,*,#297,.T.);
#181=ORIENTED_EDGE('',*,*,#302,.T.);
#182=ORIENTED_EDGE('',*,*,#294,.T.);
#183=ORIENTED_EDGE('',*,*,#303,.T.);
#184=ORIENTED_EDGE('',*,*,#249,.F.);
#185=ORIENTED_EDGE('',*,*,#304,.F.);
#186=ORIENTED_EDGE('',*,*,#263,.F.);
#187=ORIENTED_EDGE('',*,*,#305,.F.);
#188=ORIENTED_EDGE('',*,*,#302,.F.);
#189=ORIENTED_EDGE('',*,*,#296,.T.);
#190=ORIENTED_EDGE('',*,*,#265,.F.);
#191=ORIENTED_EDGE('',*,*,#306,.F.);
#192=ORIENTED_EDGE('',*,*,#267,.T.);
#193=ORIENTED_EDGE('',*,*,#295,.T.);
#194=ORIENTED_EDGE('',*,*,#261,.T.);
#195=ORIENTED_EDGE('',*,*,#307,.T.);
#196=ORIENTED_EDGE('',*,*,#292,.T.);
#197=ORIENTED_EDGE('',*,*,#308,.F.);
#198=ORIENTED_EDGE('',*,*,#251,.F.);
#199=ORIENTED_EDGE('',*,*,#309,.F.);
#200=ORIENTED_EDGE('',*,*,#259,.T.);
#201=ORIENTED_EDGE('',*,*,#298,.T.);
#202=ORIENTED_EDGE('',*,*,#301,.F.);
#203=ORIENTED_EDGE('',*,*,#310,.T.);
#204=ORIENTED_EDGE('',*,*,#299,.T.);
#205=ORIENTED_EDGE('',*,*,#257,.F.);
#206=ORIENTED_EDGE('',*,*,#253,.F.);
#207=ORIENTED_EDGE('',*,*,#303,.F.);
#208=ORIENTED_EDGE('',*,*,#293,.T.);
#209=ORIENTED_EDGE('',*,*,#307,.F.);
#210=ORIENTED_EDGE('',*,*,#250,.F.);
#211=ORIENTED_EDGE('',*,*,#308,.T.);
#212=ORIENTED_EDGE('',*,*,#291,.T.);
#213=ORIENTED_EDGE('',*,*,#310,.F.);
#214=ORIENTED_EDGE('',*,*,#252,.F.);
#215=ORIENTED_EDGE('',*,*,#311,.F.);
#216=ORIENTED_EDGE('',*,*,#288,.T.);
#217=ORIENTED_EDGE('',*,*,#287,.F.);
#218=ORIENTED_EDGE('',*,*,#311,.T.);
#219=ORIENTED_EDGE('',*,*,#312,.F.);
#220=ORIENTED_EDGE('',*,*,#290,.T.);
#221=ORIENTED_EDGE('',*,*,#268,.F.);
#222=ORIENTED_EDGE('',*,*,#312,.T.);
#223=ORIENTED_EDGE('',*,*,#313,.F.);
#224=ORIENTED_EDGE('',*,*,#289,.T.);
#225=ORIENTED_EDGE('',*,*,#286,.F.);
#226=ORIENTED_EDGE('',*,*,#313,.T.);
#227=ORIENTED_EDGE('',*,*,#304,.T.);
#228=ORIENTED_EDGE('',*,*,#248,.T.);
#229=ORIENTED_EDGE('',*,*,#256,.F.);
#230=ORIENTED_EDGE('',*,*,#314,.F.);
#231=ORIENTED_EDGE('',*,*,#283,.T.);
#232=ORIENTED_EDGE('',*,*,#271,.F.);
#233=ORIENTED_EDGE('',*,*,#274,.T.);
#234=ORIENTED_EDGE('',*,*,#277,.T.);
#235=ORIENTED_EDGE('',*,*,#280,.F.);
#236=ORIENTED_EDGE('',*,*,#285,.T.);
#237=ORIENTED_EDGE('',*,*,#269,.T.);
#238=ORIENTED_EDGE('',*,*,#260,.T.);
#239=ORIENTED_EDGE('',*,*,#314,.T.);
#240=ORIENTED_EDGE('',*,*,#255,.T.);
#241=ORIENTED_EDGE('',*,*,#309,.T.);
#242=ORIENTED_EDGE('',*,*,#300,.T.);
#243=ORIENTED_EDGE('',*,*,#305,.T.);
#244=ORIENTED_EDGE('',*,*,#264,.T.);
#245=ORIENTED_EDGE('',*,*,#306,.T.);
#246=EDGE_CURVE('',#315,#315,#366,.T.);
#247=EDGE_CURVE('',#316,#316,#367,.T.);
#248=EDGE_CURVE('',#317,#318,#26,.T.);
#249=EDGE_CURVE('',#317,#319,#368,.T.);
#250=EDGE_CURVE('',#319,#320,#27,.T.);
#251=EDGE_CURVE('',#320,#321,#369,.T.);
#252=EDGE_CURVE('',#321,#322,#28,.T.);
#253=EDGE_CURVE('',#322,#323,#370,.T.);
#254=EDGE_CURVE('',#323,#318,#29,.T.);
#255=EDGE_CURVE('',#324,#325,#30,.T.);
#256=EDGE_CURVE('',#324,#318,#31,.T.);
#257=EDGE_CURVE('',#323,#326,#32,.T.);
#258=EDGE_CURVE('',#326,#327,#33,.T.);
#259=EDGE_CURVE('',#325,#327,#34,.T.);
#260=EDGE_CURVE('',#328,#329,#35,.T.);
#261=EDGE_CURVE('',#330,#328,#36,.T.);
#262=EDGE_CURVE('',#330,#331,#37,.T.);
#263=EDGE_CURVE('',#331,#329,#38,.T.);
#264=EDGE_CURVE('',#332,#333,#39,.T.);
#265=EDGE_CURVE('',#332,#334,#40,.T.);
#266=EDGE_CURVE('',#334,#335,#41,.T.);
#267=EDGE_CURVE('',#333,#335,#42,.T.);
#268=EDGE_CURVE('',#336,#336,#371,.T.);
#269=EDGE_CURVE('',#337,#337,#372,.T.);
#270=EDGE_CURVE('',#338,#339,#43,.T.);
#271=EDGE_CURVE('',#338,#340,#44,.T.);
#272=EDGE_CURVE('',#340,#341,#45,.T.);
#273=EDGE_CURVE('',#339,#341,#46,.T.);
#274=EDGE_CURVE('',#338,#342,#47,.T.);
#275=EDGE_CURVE('',#339,#343,#48,.T.);
#276=EDGE_CURVE('',#342,#343,#49,.T.);
#277=EDGE_CURVE('',#342,#344,#50,.T.);
#278=EDGE_CURVE('',#343,#345,#51,.T.);
#279=EDGE_CURVE('',#344,#345,#52,.T.);
#280=EDGE_CURVE('',#340,#344,#53,.T.);
#281=EDGE_CURVE('',#341,#345,#54,.T.);
#282=EDGE_CURVE('',#346,#346,#373,.T.);
#283=EDGE_CURVE('',#347,#347,#374,.T.);
#284=EDGE_CURVE('',#348,#348,#375,.T.);
#285=EDGE_CURVE('',#349,#349,#376,.T.);
#286=EDGE_CURVE('',#350,#350,#377,.T.);
#287=EDGE_CURVE('',#351,#351,#378,.T.);
#288=EDGE_CURVE('',#352,#352,#379,.T.);
#289=EDGE_CURVE('',#353,#353,#380,.T.);
#290=EDGE_CURVE('',#354,#354,#381,.T.);
#291=EDGE_CURVE('',#355,#356,#55,.T.);
#292=EDGE_CURVE('',#357,#355,#382,.F.);
#293=EDGE_CURVE('',#358,#357,#56,.T.);
#294=EDGE_CURVE('',#331,#358,#383,.T.);
#295=EDGE_CURVE('',#335,#330,#384,.F.);
#296=EDGE_CURVE('',#359,#334,#385,.F.);
#297=EDGE_CURVE('',#360,#359,#57,.T.);
#298=EDGE_CURVE('',#327,#360,#386,.F.);
#299=EDGE_CURVE('',#356,#326,#387,.F.);
#300=EDGE_CURVE('',#361,#362,#58,.T.);
#301=EDGE_CURVE('',#361,#360,#59,.T.);
#302=EDGE_CURVE('',#359,#362,#60,.T.);
#303=EDGE_CURVE('',#358,#319,#61,.T.);
#304=EDGE_CURVE('',#329,#317,#62,.T.);
#305=EDGE_CURVE('',#362,#332,#388,.T.);
#306=EDGE_CURVE('',#333,#328,#389,.T.);
#307=EDGE_CURVE('',#320,#357,#63,.T.);
#308=EDGE_CURVE('',#321,#355,#64,.T.);
#309=EDGE_CURVE('',#325,#361,#390,.T.);
#310=EDGE_CURVE('',#322,#356,#65,.T.);
#311=EDGE_CURVE('',#363,#363,#391,.T.);
#312=EDGE_CURVE('',#364,#364,#392,.T.);
#313=EDGE_CURVE('',#365,#365,#393,.T.);
#314=EDGE_CURVE('',#329,#324,#66,.T.);
#315=VERTEX_POINT('',#786);
#316=VERTEX_POINT('',#788);
#317=VERTEX_POINT('',#790);
#318=VERTEX_POINT('',#791);
#319=VERTEX_POINT('',#793);
#320=VERTEX_POINT('',#795);
#321=VERTEX_POINT('',#797);
#322=VERTEX_POINT('',#799);
#323=VERTEX_POINT('',#801);
#324=VERTEX_POINT('',#805);
#325=VERTEX_POINT('',#806);
#326=VERTEX_POINT('',#809);
#327=VERTEX_POINT('',#811);
#328=VERTEX_POINT('',#815);
#329=VERTEX_POINT('',#816);
#330=VERTEX_POINT('',#818);
#331=VERTEX_POINT('',#820);
#332=VERTEX_POINT('',#824);
#333=VERTEX_POINT('',#825);
#334=VERTEX_POINT('',#827);
#335=VERTEX_POINT('',#829);
#336=VERTEX_POINT('',#833);
#337=VERTEX_POINT('',#835);
#338=VERTEX_POINT('',#838);
#339=VERTEX_POINT('',#839);
#340=VERTEX_POINT('',#841);
#341=VERTEX_POINT('',#843);
#342=VERTEX_POINT('',#847);
#343=VERTEX_POINT('',#849);
#344=VERTEX_POINT('',#853);
#345=VERTEX_POINT('',#855);
#346=VERTEX_POINT('',#862);
#347=VERTEX_POINT('',#864);
#348=VERTEX_POINT('',#867);
#349=VERTEX_POINT('',#869);
#350=VERTEX_POINT('',#872);
#351=VERTEX_POINT('',#875);
#352=VERTEX_POINT('',#878);
#353=VERTEX_POINT('',#880);
#354=VERTEX_POINT('',#882);
#355=VERTEX_POINT('',#884);
#356=VERTEX_POINT('',#885);
#357=VERTEX_POINT('',#887);
#358=VERTEX_POINT('',#889);
#359=VERTEX_POINT('',#893);
#360=VERTEX_POINT('',#895);
#361=VERTEX_POINT('',#900);
#362=VERTEX_POINT('',#901);
#363=VERTEX_POINT('',#922);
#364=VERTEX_POINT('',#926);
#365=VERTEX_POINT('',#930);
#366=CIRCLE('',#564,0.0018);
#367=CIRCLE('',#565,0.0018);
#368=CIRCLE('',#566,0.002);
#369=CIRCLE('',#567,0.002);
#370=CIRCLE('',#568,0.006);
#371=CIRCLE('',#573,0.0018);
#372=CIRCLE('',#574,0.0018);
#373=CIRCLE('',#580,0.0023);
#374=CIRCLE('',#581,0.0023);
#375=CIRCLE('',#583,0.0023);
#376=CIRCLE('',#584,0.0023);
#377=CIRCLE('',#586,0.0018);
#378=CIRCLE('',#588,0.0018);
#379=CIRCLE('',#590,0.0032);
#380=CIRCLE('',#591,0.0032);
#381=CIRCLE('',#592,0.0032);
#382=CIRCLE('',#593,0.002);
#383=CIRCLE('',#594,0.002);
#384=CIRCLE('',#595,0.003);
#385=CIRCLE('',#596,0.003);
#386=CIRCLE('',#597,0.006);
#387=CIRCLE('',#598,0.006);
#388=CIRCLE('',#602,0.003);
#389=CIRCLE('',#604,0.003);
#390=CIRCLE('',#607,0.006);
#391=CIRCLE('',#612,0.0032);
#392=CIRCLE('',#615,0.0032);
#393=CIRCLE('',#618,0.0032);
#394=EDGE_LOOP('',(#108));
#395=EDGE_LOOP('',(#109));
#396=EDGE_LOOP('',(#110,#111,#112,#113,#114,#115,#116));
#397=EDGE_LOOP('',(#117,#118,#119,#120,#121,#122));
#398=EDGE_LOOP('',(#123,#124,#125,#126));
#399=EDGE_LOOP('',(#127,#128,#129,#130));
#400=EDGE_LOOP('',(#131));
#401=EDGE_LOOP('',(#132));
#402=EDGE_LOOP('',(#133,#134,#135,#136));
#403=EDGE_LOOP('',(#137,#138,#139,#140));
#404=EDGE_LOOP('',(#141,#142,#143,#144));
#405=EDGE_LOOP('',(#145,#146,#147,#148));
#406=EDGE_LOOP('',(#149));
#407=EDGE_LOOP('',(#150));
#408=EDGE_LOOP('',(#151));
#409=EDGE_LOOP('',(#152));
#410=EDGE_LOOP('',(#153));
#411=EDGE_LOOP('',(#154));
#412=EDGE_LOOP('',(#155));
#413=EDGE_LOOP('',(#156));
#414=EDGE_LOOP('',(#157));
#415=EDGE_LOOP('',(#158));
#416=EDGE_LOOP('',(#159));
#417=EDGE_LOOP('',(#160));
#418=EDGE_LOOP('',(#161));
#419=EDGE_LOOP('',(#162,#163,#164,#165,#166,#167,#168,#169,#170,#171,#172,
#173));
#420=EDGE_LOOP('',(#174,#175,#176,#177));
#421=EDGE_LOOP('',(#178,#179,#180,#181));
#422=EDGE_LOOP('',(#182,#183,#184,#185,#186));
#423=EDGE_LOOP('',(#187,#188,#189,#190));
#424=EDGE_LOOP('',(#191,#192,#193,#194));
#425=EDGE_LOOP('',(#195,#196,#197,#198));
#426=EDGE_LOOP('',(#199,#200,#201,#202));
#427=EDGE_LOOP('',(#203,#204,#205,#206));
#428=EDGE_LOOP('',(#207,#208,#209,#210));
#429=EDGE_LOOP('',(#211,#212,#213,#214));
#430=EDGE_LOOP('',(#215));
#431=EDGE_LOOP('',(#216));
#432=EDGE_LOOP('',(#217));
#433=EDGE_LOOP('',(#218));
#434=EDGE_LOOP('',(#219));
#435=EDGE_LOOP('',(#220));
#436=EDGE_LOOP('',(#221));
#437=EDGE_LOOP('',(#222));
#438=EDGE_LOOP('',(#223));
#439=EDGE_LOOP('',(#224));
#440=EDGE_LOOP('',(#225));
#441=EDGE_LOOP('',(#226));
#442=EDGE_LOOP('',(#227,#228,#229,#230));
#443=EDGE_LOOP('',(#231));
#444=EDGE_LOOP('',(#232,#233,#234,#235));
#445=EDGE_LOOP('',(#236));
#446=EDGE_LOOP('',(#237));
#447=EDGE_LOOP('',(#238,#239,#240,#241,#242,#243,#244,#245));
#448=FACE_BOUND('',#394,.T.);
#449=FACE_BOUND('',#395,.T.);
#450=FACE_BOUND('',#396,.T.);
#451=FACE_BOUND('',#397,.T.);
#452=FACE_BOUND('',#398,.T.);
#453=FACE_BOUND('',#399,.T.);
#454=FACE_BOUND('',#400,.T.);
#455=FACE_BOUND('',#401,.T.);
#456=FACE_BOUND('',#402,.T.);
#457=FACE_BOUND('',#403,.T.);
#458=FACE_BOUND('',#404,.T.);
#459=FACE_BOUND('',#405,.T.);
#460=FACE_BOUND('',#406,.T.);
#461=FACE_BOUND('',#407,.T.);
#462=FACE_BOUND('',#408,.T.);
#463=FACE_BOUND('',#409,.T.);
#464=FACE_BOUND('',#410,.T.);
#465=FACE_BOUND('',#411,.T.);
#466=FACE_BOUND('',#412,.T.);
#467=FACE_BOUND('',#413,.T.);
#468=FACE_BOUND('',#414,.T.);
#469=FACE_BOUND('',#415,.T.);
#470=FACE_BOUND('',#416,.T.);
#471=FACE_BOUND('',#417,.T.);
#472=FACE_BOUND('',#418,.T.);
#473=FACE_BOUND('',#419,.T.);
#474=FACE_BOUND('',#420,.T.);
#475=FACE_BOUND('',#421,.T.);
#476=FACE_BOUND('',#422,.T.);
#477=FACE_BOUND('',#423,.T.);
#478=FACE_BOUND('',#424,.T.);
#479=FACE_BOUND('',#425,.T.);
#480=FACE_BOUND('',#426,.T.);
#481=FACE_BOUND('',#427,.T.);
#482=FACE_BOUND('',#428,.T.);
#483=FACE_BOUND('',#429,.T.);
#484=FACE_BOUND('',#430,.T.);
#485=FACE_BOUND('',#431,.T.);
#486=FACE_BOUND('',#432,.T.);
#487=FACE_BOUND('',#433,.T.);
#488=FACE_BOUND('',#434,.T.);
#489=FACE_BOUND('',#435,.T.);
#490=FACE_BOUND('',#436,.T.);
#491=FACE_BOUND('',#437,.T.);
#492=FACE_BOUND('',#438,.T.);
#493=FACE_BOUND('',#439,.T.);
#494=FACE_BOUND('',#440,.T.);
#495=FACE_BOUND('',#441,.T.);
#496=FACE_BOUND('',#442,.T.);
#497=FACE_BOUND('',#443,.T.);
#498=FACE_BOUND('',#444,.T.);
#499=FACE_BOUND('',#445,.T.);
#500=FACE_BOUND('',#446,.T.);
#501=FACE_BOUND('',#447,.T.);
#502=PLANE('',#563);
#503=PLANE('',#569);
#504=PLANE('',#570);
#505=PLANE('',#571);
#506=PLANE('',#575);
#507=PLANE('',#576);
#508=PLANE('',#577);
#509=PLANE('',#578);
#510=PLANE('',#589);
#511=PLANE('',#599);
#512=PLANE('',#609);
#513=PLANE('',#610);
#514=PLANE('',#613);
#515=PLANE('',#616);
#516=PLANE('',#619);
#517=PLANE('',#620);
#518=PLANE('',#621);
#519=ADVANCED_FACE('',(#448,#449,#450),#502,.F.);
#520=ADVANCED_FACE('',(#451),#503,.T.);
#521=ADVANCED_FACE('',(#452),#504,.F.);
#522=ADVANCED_FACE('',(#453),#505,.F.);
#523=ADVANCED_FACE('',(#454,#455),#12,.F.);
#524=ADVANCED_FACE('',(#456),#506,.T.);
#525=ADVANCED_FACE('',(#457),#507,.F.);
#526=ADVANCED_FACE('',(#458),#508,.F.);
#527=ADVANCED_FACE('',(#459),#509,.T.);
#528=ADVANCED_FACE('',(#460,#461),#13,.F.);
#529=ADVANCED_FACE('',(#462,#463),#14,.F.);
#530=ADVANCED_FACE('',(#464,#465),#15,.F.);
#531=ADVANCED_FACE('',(#466,#467),#16,.F.);
#532=ADVANCED_FACE('',(#468,#469,#470,#471,#472,#473,#474),#510,.T.);
#533=ADVANCED_FACE('',(#475),#511,.T.);
#534=ADVANCED_FACE('',(#476),#17,.F.);
#535=ADVANCED_FACE('',(#477),#18,.T.);
#536=ADVANCED_FACE('',(#478),#19,.T.);
#537=ADVANCED_FACE('',(#479),#20,.T.);
#538=ADVANCED_FACE('',(#480),#21,.T.);
#539=ADVANCED_FACE('',(#481),#22,.T.);
#540=ADVANCED_FACE('',(#482),#512,.T.);
#541=ADVANCED_FACE('',(#483),#513,.F.);
#542=ADVANCED_FACE('',(#484,#485),#23,.F.);
#543=ADVANCED_FACE('',(#486,#487),#514,.T.);
#544=ADVANCED_FACE('',(#488,#489),#24,.F.);
#545=ADVANCED_FACE('',(#490,#491),#515,.T.);
#546=ADVANCED_FACE('',(#492,#493),#25,.F.);
#547=ADVANCED_FACE('',(#494,#495),#516,.T.);
#548=ADVANCED_FACE('',(#496),#517,.F.);
#549=ADVANCED_FACE('',(#497,#498,#499,#500,#501),#518,.T.);
#550=CLOSED_SHELL('',(#519,#520,#521,#522,#523,#524,#525,#526,#527,#528,
#529,#530,#531,#532,#533,#534,#535,#536,#537,#538,#539,#540,#541,#542,#543,
#544,#545,#546,#547,#548,#549));
#551=STYLED_ITEM('',(#552),#559);
#552=PRESENTATION_STYLE_ASSIGNMENT((#553));
#553=SURFACE_STYLE_USAGE(.BOTH.,#554);
#554=SURFACE_SIDE_STYLE('',(#555));
#555=SURFACE_STYLE_FILL_AREA(#556);
#556=FILL_AREA_STYLE('',(#557));
#557=FILL_AREA_STYLE_COLOUR('',#558);
#558=COLOUR_RGB('',1.,0.6,0.);
#559=MANIFOLD_SOLID_BREP('L bracket',#550);
#560=SHAPE_DEFINITION_REPRESENTATION(#941,#561);
#561=SHAPE_REPRESENTATION('L bracket',(#562),#936);
#562=AXIS2_PLACEMENT_3D('',#783,#622,#623);
#563=AXIS2_PLACEMENT_3D('',#784,#624,#625);
#564=AXIS2_PLACEMENT_3D('',#785,#626,#627);
#565=AXIS2_PLACEMENT_3D('',#787,#628,#629);
#566=AXIS2_PLACEMENT_3D('',#792,#631,#632);
#567=AXIS2_PLACEMENT_3D('',#796,#634,#635);
#568=AXIS2_PLACEMENT_3D('',#800,#637,#638);
#569=AXIS2_PLACEMENT_3D('',#803,#640,#641);
#570=AXIS2_PLACEMENT_3D('',#813,#647,#648);
#571=AXIS2_PLACEMENT_3D('',#822,#653,#654);
#572=AXIS2_PLACEMENT_3D('',#831,#659,#660);
#573=AXIS2_PLACEMENT_3D('',#832,#661,#662);
#574=AXIS2_PLACEMENT_3D('',#834,#663,#664);
#575=AXIS2_PLACEMENT_3D('',#836,#665,#666);
#576=AXIS2_PLACEMENT_3D('',#845,#671,#672);
#577=AXIS2_PLACEMENT_3D('',#851,#676,#677);
#578=AXIS2_PLACEMENT_3D('',#857,#681,#682);
#579=AXIS2_PLACEMENT_3D('',#860,#685,#686);
#580=AXIS2_PLACEMENT_3D('',#861,#687,#688);
#581=AXIS2_PLACEMENT_3D('',#863,#689,#690);
#582=AXIS2_PLACEMENT_3D('',#865,#691,#692);
#583=AXIS2_PLACEMENT_3D('',#866,#693,#694);
#584=AXIS2_PLACEMENT_3D('',#868,#695,#696);
#585=AXIS2_PLACEMENT_3D('',#870,#697,#698);
#586=AXIS2_PLACEMENT_3D('',#871,#699,#700);
#587=AXIS2_PLACEMENT_3D('',#873,#701,#702);
#588=AXIS2_PLACEMENT_3D('',#874,#703,#704);
#589=AXIS2_PLACEMENT_3D('',#876,#705,#706);
#590=AXIS2_PLACEMENT_3D('',#877,#707,#708);
#591=AXIS2_PLACEMENT_3D('',#879,#709,#710);
#592=AXIS2_PLACEMENT_3D('',#881,#711,#712);
#593=AXIS2_PLACEMENT_3D('',#886,#714,#715);
#594=AXIS2_PLACEMENT_3D('',#890,#717,#718);
#595=AXIS2_PLACEMENT_3D('',#891,#719,#720);
#596=AXIS2_PLACEMENT_3D('',#892,#721,#722);
#597=AXIS2_PLACEMENT_3D('',#896,#724,#725);
#598=AXIS2_PLACEMENT_3D('',#897,#726,#727);
#599=AXIS2_PLACEMENT_3D('',#898,#728,#729);
#600=AXIS2_PLACEMENT_3D('',#904,#733,#734);
#601=AXIS2_PLACEMENT_3D('',#907,#737,#738);
#602=AXIS2_PLACEMENT_3D('',#908,#739,#740);
#603=AXIS2_PLACEMENT_3D('',#909,#741,#742);
#604=AXIS2_PLACEMENT_3D('',#910,#743,#744);
#605=AXIS2_PLACEMENT_3D('',#911,#745,#746);
#606=AXIS2_PLACEMENT_3D('',#914,#749,#750);
#607=AXIS2_PLACEMENT_3D('',#915,#751,#752);
#608=AXIS2_PLACEMENT_3D('',#916,#753,#754);
#609=AXIS2_PLACEMENT_3D('',#918,#756,#757);
#610=AXIS2_PLACEMENT_3D('',#919,#758,#759);
#611=AXIS2_PLACEMENT_3D('',#920,#760,#761);
#612=AXIS2_PLACEMENT_3D('',#921,#762,#763);
#613=AXIS2_PLACEMENT_3D('',#923,#764,#765);
#614=AXIS2_PLACEMENT_3D('',#924,#766,#767);
#615=AXIS2_PLACEMENT_3D('',#925,#768,#769);
#616=AXIS2_PLACEMENT_3D('',#927,#770,#771);
#617=AXIS2_PLACEMENT_3D('',#928,#772,#773);
#618=AXIS2_PLACEMENT_3D('',#929,#774,#775);
#619=AXIS2_PLACEMENT_3D('',#931,#776,#777);
#620=AXIS2_PLACEMENT_3D('',#932,#778,#779);
#621=AXIS2_PLACEMENT_3D('',#934,#781,#782);
#622=DIRECTION('',(0.,0.,1.));
#623=DIRECTION('',(1.,0.,0.));
#624=DIRECTION('',(-1.04274793143314E-14,-1.,1.17145334231623E-15));
#625=DIRECTION('',(-1.,1.04274793143314E-14,-4.54272779118147E-15));
#626=DIRECTION('',(-1.04274793143314E-14,-1.,1.17145334231623E-15));
#627=DIRECTION('',(1.,-1.04274793143314E-14,0.));
#628=DIRECTION('',(-1.04274793143314E-14,-1.,1.17145334231623E-15));
#629=DIRECTION('',(1.,-1.04274793143314E-14,0.));
#630=DIRECTION('',(-4.51834951882457E-15,1.29095700537845E-15,1.));
#631=DIRECTION('',(-9.25185853854297E-15,-1.,1.17145334231623E-15));
#632=DIRECTION('',(-1.,9.25185853854297E-15,1.22464679914735E-16));
#633=DIRECTION('',(-1.,1.05518139638878E-14,-4.68969509506125E-15));
#634=DIRECTION('',(0.,1.,0.));
#635=DIRECTION('',(-1.,0.,-1.83697019872103E-16));
#636=DIRECTION('',(-4.04768811061255E-15,2.31296463463574E-15,1.));
#637=DIRECTION('',(0.,1.,0.));
#638=DIRECTION('',(-1.,0.,-1.83697019872103E-16));
#639=DIRECTION('',(1.,-1.02503691533743E-14,4.19333283547129E-15));
#640=DIRECTION('',(-4.54272374664899E-15,1.17145334231628E-15,1.));
#641=DIRECTION('',(-1.,1.04274793143314E-14,-4.542723746649E-15));
#642=DIRECTION('',(1.,-1.02503691533743E-14,4.19333283547129E-15));
#643=DIRECTION('',(1.04274793143314E-14,1.,-1.17145334231623E-15));
#644=DIRECTION('',(-1.04274793143314E-14,-1.,1.17145334231623E-15));
#645=DIRECTION('',(1.,-1.04274793143314E-14,4.19333283547129E-15));
#646=DIRECTION('',(-1.04274793143314E-14,-1.,1.17145334231623E-15));
#647=DIRECTION('',(1.,-1.04274793143314E-14,4.54272779118147E-15));
#648=DIRECTION('',(1.04274793143314E-14,1.,-1.17145334231623E-15));
#649=DIRECTION('',(-4.51834951882457E-15,1.29095700537845E-15,1.));
#650=DIRECTION('',(1.04274793143314E-14,1.,-1.17145334231623E-15));
#651=DIRECTION('',(-4.51834951882458E-15,1.17145334231628E-15,1.));
#652=DIRECTION('',(1.04274793143314E-14,1.,-1.17145334231623E-15));
#653=DIRECTION('',(-3.47520565211831E-15,1.17145334231627E-15,1.));
#654=DIRECTION('',(1.04274793143314E-14,1.,-1.17145334231623E-15));
#655=DIRECTION('',(-1.,1.17083695973825E-14,-3.90278986579418E-15));
#656=DIRECTION('',(-1.04274793143314E-14,-1.,1.17145334231623E-15));
#657=DIRECTION('',(-1.,1.04274793143314E-14,-3.90278986579417E-15));
#658=DIRECTION('',(-1.04274793143314E-14,-1.,1.17145334231623E-15));
#659=DIRECTION('',(-1.04274793143314E-14,-1.,1.17145334231623E-15));
#660=DIRECTION('',(1.,-1.04274793143314E-14,0.));
#661=DIRECTION('',(-1.04274793143314E-14,-1.,1.17145334231623E-15));
#662=DIRECTION('',(1.,-1.04274793143314E-14,0.));
#663=DIRECTION('',(-1.04274793143314E-14,-1.,1.17145334231623E-15));
#664=DIRECTION('',(1.,-1.04274793143314E-14,0.));
#665=DIRECTION('',(1.58606643038241E-29,1.17145334231623E-15,1.));
#666=DIRECTION('',(0.,-1.,1.17145334231623E-15));
#667=DIRECTION('',(-1.04274793143314E-14,-1.,1.17145334231623E-15));
#668=DIRECTION('',(-1.,1.04274793143314E-14,3.64535880911721E-30));
#669=DIRECTION('',(-1.04274793143314E-14,-1.,1.17145334231623E-15));
#670=DIRECTION('',(-1.,1.04274793143314E-14,3.64535880911721E-30));
#671=DIRECTION('',(1.,-1.04274793143314E-14,4.54116093187646E-15));
#672=DIRECTION('',(1.04274793143314E-14,1.,0.));
#673=DIRECTION('',(-4.54116093187645E-15,1.17145334231628E-15,1.));
#674=DIRECTION('',(-4.54116093187645E-15,1.17145334231628E-15,1.));
#675=DIRECTION('',(-1.04274793143314E-14,-1.,1.17145334231623E-15));
#676=DIRECTION('',(1.58606643038241E-29,1.17145334231623E-15,1.));
#677=DIRECTION('',(0.,-1.,1.17145334231623E-15));
#678=DIRECTION('',(-1.,1.04274793143314E-14,3.64535880911721E-30));
#679=DIRECTION('',(-1.,1.04274793143314E-14,3.64535880911721E-30));
#680=DIRECTION('',(-1.04274793143314E-14,-1.,1.17145334231623E-15));
#681=DIRECTION('',(1.,-1.04274793143314E-14,4.54116093187646E-15));
#682=DIRECTION('',(1.04274793143314E-14,1.,0.));
#683=DIRECTION('',(-4.54116093187645E-15,1.17145334231628E-15,1.));
#684=DIRECTION('',(-4.54116093187645E-15,1.17145334231628E-15,1.));
#685=DIRECTION('',(-1.04274793143314E-14,-1.,1.17145334231623E-15));
#686=DIRECTION('',(1.,-1.04274793143314E-14,0.));
#687=DIRECTION('',(-1.04274793143314E-14,-1.,1.17145334231623E-15));
#688=DIRECTION('',(1.,-1.04274793143314E-14,0.));
#689=DIRECTION('',(-1.04274793143314E-14,-1.,1.17145334231623E-15));
#690=DIRECTION('',(1.,-1.04274793143314E-14,0.));
#691=DIRECTION('',(-1.04274793143314E-14,-1.,1.17145334231623E-15));
#692=DIRECTION('',(1.,-1.04274793143314E-14,0.));
#693=DIRECTION('',(-1.04274793143314E-14,-1.,1.17145334231623E-15));
#694=DIRECTION('',(1.,-1.04274793143314E-14,0.));
#695=DIRECTION('',(-1.04274793143314E-14,-1.,1.17145334231623E-15));
#696=DIRECTION('',(1.,-1.04274793143314E-14,0.));
#697=DIRECTION('',(-1.04274793143314E-14,-1.,1.17145334231623E-15));
#698=DIRECTION('',(1.,-1.04274793143314E-14,0.));
#699=DIRECTION('',(-1.04274793143314E-14,-1.,1.17145334231623E-15));
#700=DIRECTION('',(1.,-1.04274793143314E-14,0.));
#701=DIRECTION('',(-1.04274793143314E-14,-1.,1.17145334231623E-15));
#702=DIRECTION('',(1.,-1.04274793143314E-14,0.));
#703=DIRECTION('',(-1.04274793143314E-14,-1.,1.17145334231623E-15));
#704=DIRECTION('',(1.,-1.04274793143314E-14,0.));
#705=DIRECTION('',(-1.04274793143314E-14,-1.,1.17145334231623E-15));
#706=DIRECTION('',(-1.,1.04274793143314E-14,-4.54272779118147E-15));
#707=DIRECTION('',(-1.04274793143314E-14,-1.,1.17145334231623E-15));
#708=DIRECTION('',(1.,-1.04274793143314E-14,0.));
#709=DIRECTION('',(-1.04274793143314E-14,-1.,1.17145334231623E-15));
#710=DIRECTION('',(1.,-1.04274793143314E-14,0.));
#711=DIRECTION('',(-1.04274793143314E-14,-1.,1.17145334231623E-15));
#712=DIRECTION('',(1.,-1.04274793143314E-14,0.));
#713=DIRECTION('',(-4.04768811061256E-15,1.17145334231627E-15,1.));
#714=DIRECTION('',(-1.04274793143314E-14,-1.,1.17145334231623E-15));
#715=DIRECTION('',(1.,-1.04274793143314E-14,0.));
#716=DIRECTION('',(-1.,1.04274793143314E-14,-4.68969509506125E-15));
#717=DIRECTION('',(-1.04274793143314E-14,-1.,1.17145334231623E-15));
#718=DIRECTION('',(1.,-1.04274793143314E-14,0.));
#719=DIRECTION('',(-1.04274793143314E-14,-1.,1.17145334231623E-15));
#720=DIRECTION('',(1.,-1.04274793143314E-14,0.));
#721=DIRECTION('',(-1.04274793143314E-14,-1.,1.17145334231623E-15));
#722=DIRECTION('',(1.,-1.04274793143314E-14,0.));
#723=DIRECTION('',(4.62592926927223E-15,-1.17145334231628E-15,-1.));
#724=DIRECTION('',(-1.04274793143314E-14,-1.,1.17145334231623E-15));
#725=DIRECTION('',(1.,-1.04274793143314E-14,0.));
#726=DIRECTION('',(-1.04274793143314E-14,-1.,1.17145334231623E-15));
#727=DIRECTION('',(1.,-1.04274793143314E-14,0.));
#728=DIRECTION('',(1.,-1.04274793143314E-14,4.54272779118147E-15));
#729=DIRECTION('',(1.04274793143314E-14,1.,-1.17145334231623E-15));
#730=DIRECTION('',(4.62592926927223E-15,-1.48029736616711E-15,-1.));
#731=DIRECTION('',(-1.04274793143314E-14,-1.,1.17145334231623E-15));
#732=DIRECTION('',(1.04274793143314E-14,1.,-1.17145334231623E-15));
#733=DIRECTION('',(1.04274793143314E-14,1.,-1.17145334231623E-15));
#734=DIRECTION('',(-1.,1.04274793143314E-14,-4.54272779118147E-15));
#735=DIRECTION('',(1.04274793143314E-14,1.,-1.17145334231623E-15));
#736=DIRECTION('',(1.04274793143314E-14,1.,-1.17145334231623E-15));
#737=DIRECTION('',(1.04274793143314E-14,1.,-1.17145334231623E-15));
#738=DIRECTION('',(-1.,1.04274793143314E-14,-4.54272779118147E-15));
#739=DIRECTION('',(0.,1.,0.));
#740=DIRECTION('',(-1.,0.,-1.83697019872103E-16));
#741=DIRECTION('',(-1.04274793143314E-14,-1.,1.17145334231623E-15));
#742=DIRECTION('',(1.,-1.04274793143314E-14,4.54272779118147E-15));
#743=DIRECTION('',(0.,1.,0.));
#744=DIRECTION('',(-1.,0.,-1.83697019872103E-16));
#745=DIRECTION('',(1.04274793143314E-14,1.,-1.17145334231623E-15));
#746=DIRECTION('',(-1.,1.04274793143314E-14,-4.54272779118147E-15));
#747=DIRECTION('',(-1.04274793143314E-14,-1.,1.17145334231623E-15));
#748=DIRECTION('',(-1.04274793143314E-14,-1.,1.17145334231623E-15));
#749=DIRECTION('',(-1.04274793143314E-14,-1.,1.17145334231623E-15));
#750=DIRECTION('',(1.,-1.04274793143314E-14,4.54272779118147E-15));
#751=DIRECTION('',(0.,1.,0.));
#752=DIRECTION('',(-1.,0.,-1.83697019872103E-16));
#753=DIRECTION('',(-1.04274793143314E-14,-1.,1.17145334231623E-15));
#754=DIRECTION('',(1.,-1.04274793143314E-14,4.54272779118147E-15));
#755=DIRECTION('',(-1.04274793143314E-14,-1.,1.17145334231623E-15));
#756=DIRECTION('',(4.54272779118146E-15,-1.17145334231628E-15,-1.));
#757=DIRECTION('',(1.04274793143314E-14,1.,-1.17145334231623E-15));
#758=DIRECTION('',(1.,-1.04274793143314E-14,4.54272779118147E-15));
#759=DIRECTION('',(1.04274793143314E-14,1.,-1.17145334231623E-15));
#760=DIRECTION('',(-1.04274793143314E-14,-1.,1.17145334231623E-15));
#761=DIRECTION('',(1.,-1.04274793143314E-14,0.));
#762=DIRECTION('',(-1.04274793143314E-14,-1.,1.17145334231623E-15));
#763=DIRECTION('',(1.,-1.04274793143314E-14,0.));
#764=DIRECTION('',(-1.04274793143314E-14,-1.,1.17145334231623E-15));
#765=DIRECTION('',(1.,-1.04274793143314E-14,1.22153054947069E-29));
#766=DIRECTION('',(-1.04274793143314E-14,-1.,1.17145334231623E-15));
#767=DIRECTION('',(1.,-1.04274793143314E-14,0.));
#768=DIRECTION('',(-1.04274793143314E-14,-1.,1.17145334231623E-15));
#769=DIRECTION('',(1.,-1.04274793143314E-14,0.));
#770=DIRECTION('',(-1.04274793143314E-14,-1.,1.17145334231623E-15));
#771=DIRECTION('',(1.,-1.04274793143314E-14,1.22153054947069E-29));
#772=DIRECTION('',(-1.04274793143314E-14,-1.,1.17145334231623E-15));
#773=DIRECTION('',(1.,-1.04274793143314E-14,0.));
#774=DIRECTION('',(-1.04274793143314E-14,-1.,1.17145334231623E-15));
#775=DIRECTION('',(1.,-1.04274793143314E-14,0.));
#776=DIRECTION('',(-1.04274793143314E-14,-1.,1.17145334231623E-15));
#777=DIRECTION('',(1.,-1.04274793143314E-14,1.22153054947069E-29));
#778=DIRECTION('',(-1.,1.04274793143314E-14,-4.51834951882458E-15));
#779=DIRECTION('',(-1.04274793143314E-14,-1.,0.));
#780=DIRECTION('',(-4.51834951882457E-15,1.29095700537845E-15,1.));
#781=DIRECTION('',(1.04274793143314E-14,1.,-1.17145334231623E-15));
#782=DIRECTION('',(-1.,1.04274793143314E-14,-1.22153054947069E-29));
#783=CARTESIAN_POINT('',(0.,0.,0.));
#784=CARTESIAN_POINT('',(0.0132234537702805,0.00340161943095901,0.00360157915179196));
#785=CARTESIAN_POINT('',(0.0082526564255987,0.0034016194309591,0.0139015791517921));
#786=CARTESIAN_POINT('',(0.0100526564255987,0.00340161943095908,0.0139015791517921));
#787=CARTESIAN_POINT('',(-0.0317473435744013,0.00340161943095948,0.0139015791517921));
#788=CARTESIAN_POINT('',(-0.0299473435744013,0.00340161943095947,0.0139015791517921));
#789=CARTESIAN_POINT('',(0.0149999999999962,0.00340161943095901,-0.018398420848202));
#790=CARTESIAN_POINT('',(0.0149999999999961,0.00340161943095899,0.00310157915179196));
#791=CARTESIAN_POINT('',(0.0149999999999962,0.00340161943095903,0.0251015791517922));
#792=CARTESIAN_POINT('',(0.0129999999999969,0.00340161943095901,0.00310157915179196));
#793=CARTESIAN_POINT('',(0.0129999999999962,0.00340161943095901,0.00510157915179196));
#794=CARTESIAN_POINT('',(0.0129999999999961,0.00340161943095901,0.00510157915179196));
#795=CARTESIAN_POINT('',(-0.0343473435744012,0.00340161943095951,0.00510157915179096));
#796=CARTESIAN_POINT('',(-0.0343473435743964,0.00340161943095851,0.00710157915179047));
#797=CARTESIAN_POINT('',(-0.0363473435744012,0.00340161943095951,0.00710157915179097));
#798=CARTESIAN_POINT('',(-0.0363473435744014,0.00340161943095951,0.00710157915179097));
#799=CARTESIAN_POINT('',(-0.0363473435744013,0.00340161943095951,0.019101579151791));
#800=CARTESIAN_POINT('',(-0.0303473435743972,0.00340161943095901,0.019101579151791));
#801=CARTESIAN_POINT('',(-0.0303473435744013,0.00340161943095951,0.025101579151791));
#802=CARTESIAN_POINT('',(-0.0303473435744014,0.00340161943095951,0.025101579151792));
#803=CARTESIAN_POINT('',(-0.0120000000000022,-0.00909838056904,0.025101579151792));
#804=CARTESIAN_POINT('',(-0.0303473435744015,-0.000598380569040487,0.025101579151792));
#805=CARTESIAN_POINT('',(0.0149999999999962,-0.000598380569040966,0.0251015791517922));
#806=CARTESIAN_POINT('',(0.0292234537702805,-0.000598380569040987,0.025101579151792));
#807=CARTESIAN_POINT('',(0.0149999999999962,-0.000598380569040966,0.0251015791517922));
#808=CARTESIAN_POINT('',(-0.0303473435744015,-0.00909838056904,0.025101579151791));
#809=CARTESIAN_POINT('',(-0.0303473435743972,-0.00569838056903999,0.025101579151791));
#810=CARTESIAN_POINT('',(-0.0303473435744013,-0.00569838056903949,0.0251015791517919));
#811=CARTESIAN_POINT('',(0.0292234537702805,-0.00569838056903999,0.0251015791517924));
#812=CARTESIAN_POINT('',(0.0292234537702804,-0.009098380569041,0.025101579151792));
#813=CARTESIAN_POINT('',(0.0149999999999961,-0.010848380569041,-0.00239842084820499));
#814=CARTESIAN_POINT('',(0.0149999999999961,-0.000598380569040987,-0.018398420848202));
#815=CARTESIAN_POINT('',(0.0149999999999963,-0.000598380569040987,-0.018398420848202));
#816=CARTESIAN_POINT('',(0.014999999999996,-0.000598380569041006,0.00310157915179196));
#817=CARTESIAN_POINT('',(0.0149999999999961,-0.01809838056904,-0.018398420848202));
#818=CARTESIAN_POINT('',(0.0149999999999995,-0.00569838056903999,-0.0183984208482025));
#819=CARTESIAN_POINT('',(0.0149999999999962,-0.00569838056903999,-0.018398420848202));
#820=CARTESIAN_POINT('',(0.0149999999999961,-0.00569838056903999,0.00310157915179194));
#821=CARTESIAN_POINT('',(0.014999999999996,-0.010848380569041,0.00310157915179196));
#822=CARTESIAN_POINT('',(-0.037500000000003,-0.01159838056904,-0.021398420848202));
#823=CARTESIAN_POINT('',(0.0322234537702806,-0.000598380569041487,-0.0213984208482015));
#824=CARTESIAN_POINT('',(0.0322234537702807,-0.000598380569041197,-0.0213984208482021));
#825=CARTESIAN_POINT('',(0.0179999999999963,-0.000598380569040987,-0.021398420848202));
#826=CARTESIAN_POINT('',(0.0322234537702806,-0.011598380569041,-0.021398420848202));
#827=CARTESIAN_POINT('',(0.032223453770284,-0.00569838056903999,-0.0213984208482026));
#828=CARTESIAN_POINT('',(0.0322234537702807,-0.00569838056903999,-0.0213984208482016));
#829=CARTESIAN_POINT('',(0.0179999999999963,-0.00569838056903999,-0.0213984208482021));
#830=CARTESIAN_POINT('',(0.0179999999999962,-0.01309838056904,-0.021398420848202));
#831=CARTESIAN_POINT('',(0.029363453770282,0.117012936808775,-0.0065984208482017));
#832=CARTESIAN_POINT('',(0.0293634537702807,-0.00369838056904018,-0.00659842084820156));
#833=CARTESIAN_POINT('',(0.0311634537702807,-0.00369838056904019,-0.00659842084820156));
#834=CARTESIAN_POINT('',(0.0293634537702807,-0.000598380569041181,-0.00659842084820155));
#835=CARTESIAN_POINT('',(0.0311634537702807,-0.0005983805690412,-0.00659842084820155));
#836=CARTESIAN_POINT('',(0.0220499999999975,0.117012936808775,-0.0173984208482017));
#837=CARTESIAN_POINT('',(0.0240999999999975,0.117012936808775,-0.0173984208482017));
#838=CARTESIAN_POINT('',(0.0240999999999962,-0.000598380569041098,-0.0173984208482016));
#839=CARTESIAN_POINT('',(0.0240999999999962,-0.00569838056904012,-0.0173984208482016));
#840=CARTESIAN_POINT('',(0.0132234537702804,-0.000598380569041015,-0.0173984208482016));
#841=CARTESIAN_POINT('',(0.0199999999999962,-0.000598380569041098,-0.0173984208482017));
#842=CARTESIAN_POINT('',(0.0199999999999975,0.117012936808775,-0.0173984208482017));
#843=CARTESIAN_POINT('',(0.0199999999999962,-0.0056983805690401,-0.0173984208482016));
#844=CARTESIAN_POINT('',(0.0220499999999962,-0.0056983805690401,-0.0173984208482016));
#845=CARTESIAN_POINT('',(0.0240999999999974,0.117012936808775,-0.00784842084820173));
#846=CARTESIAN_POINT('',(0.0240999999999961,-0.000598380569041098,0.00360157915179202));
#847=CARTESIAN_POINT('',(0.0240999999999961,-0.000598380569041043,0.00170157915179842));
#848=CARTESIAN_POINT('',(0.0240999999999961,-0.00569838056904012,-0.00784842084820159));
#849=CARTESIAN_POINT('',(0.0240999999999961,-0.0056983805690401,0.00170157915179841));
#850=CARTESIAN_POINT('',(0.0240999999999974,0.117012936808775,0.00170157915179828));
#851=CARTESIAN_POINT('',(0.0220499999999974,0.117012936808775,0.00170157915179828));
#852=CARTESIAN_POINT('',(0.0132234537702804,-0.000598380569040987,0.00170157915179842));
#853=CARTESIAN_POINT('',(0.0199999999999961,-0.000598380569041046,0.00170157915179841));
#854=CARTESIAN_POINT('',(0.0220499999999961,-0.0056983805690401,0.00170157915179841));
#855=CARTESIAN_POINT('',(0.0199999999999961,-0.00569838056904007,0.00170157915179841));
#856=CARTESIAN_POINT('',(0.0199999999999974,0.117012936808775,0.00170157915179828));
#857=CARTESIAN_POINT('',(0.0199999999999975,0.117012936808775,-0.00784842084820173));
#858=CARTESIAN_POINT('',(0.0199999999999961,-0.00059838056904107,0.00360157915179199));
#859=CARTESIAN_POINT('',(0.0199999999999961,-0.00569838056904007,-0.00784842084820159));
#860=CARTESIAN_POINT('',(0.029363453770282,0.117012936808775,-0.0170984208482027));
#861=CARTESIAN_POINT('',(0.0293634537702806,-0.00569838056904018,-0.0170984208482025));
#862=CARTESIAN_POINT('',(0.0316634537702807,-0.0056983805690402,-0.0170984208482025));
#863=CARTESIAN_POINT('',(0.0293634537702807,-0.000598380569041181,-0.0170984208482025));
#864=CARTESIAN_POINT('',(0.0316634537702807,-0.000598380569041205,-0.0170984208482025));
#865=CARTESIAN_POINT('',(0.029363453770282,0.117012936808775,0.00390157915179731));
#866=CARTESIAN_POINT('',(0.0293634537702806,-0.00569838056904015,0.00390157915179745));
#867=CARTESIAN_POINT('',(0.0316634537702807,-0.00569838056904017,0.00390157915179745));
#868=CARTESIAN_POINT('',(0.0293634537702807,-0.000598380569041154,0.00390157915179745));
#869=CARTESIAN_POINT('',(0.0316634537702807,-0.000598380569041178,0.00390157915179745));
#870=CARTESIAN_POINT('',(0.00825265642559989,0.117012936808775,0.013901579151792));
#871=CARTESIAN_POINT('',(0.00825265642559863,-0.00369838056903993,0.0139015791517921));
#872=CARTESIAN_POINT('',(0.0100526564255986,-0.00369838056903995,0.0139015791517921));
#873=CARTESIAN_POINT('',(-0.0317473435744001,0.117012936808775,0.013901579151792));
#874=CARTESIAN_POINT('',(-0.0317473435744014,-0.00369838056903951,0.0139015791517921));
#875=CARTESIAN_POINT('',(-0.0299473435744014,-0.00369838056903953,0.0139015791517921));
#876=CARTESIAN_POINT('',(0.0132234537702805,-0.00569838056903999,0.00360157915179194));
#877=CARTESIAN_POINT('',(-0.0317473435744014,-0.00569838056903951,0.0139015791517921));
#878=CARTESIAN_POINT('',(-0.0285473435744014,-0.00569838056903954,0.0139015791517921));
#879=CARTESIAN_POINT('',(0.00825265642559861,-0.00569838056903993,0.0139015791517921));
#880=CARTESIAN_POINT('',(0.0114526564255986,-0.00569838056903996,0.0139015791517921));
#881=CARTESIAN_POINT('',(0.0293634537702806,-0.00569838056904018,-0.00659842084820156));
#882=CARTESIAN_POINT('',(0.0325634537702807,-0.00569838056904021,-0.00659842084820156));
#883=CARTESIAN_POINT('',(-0.0363473435744014,-0.00569838056903949,0.00710157915179094));
#884=CARTESIAN_POINT('',(-0.0363473435744014,-0.00569838056903949,0.00710157915179094));
#885=CARTESIAN_POINT('',(-0.0363473435744014,-0.00569838056903949,0.0191015791517909));
#886=CARTESIAN_POINT('',(-0.0343473435743964,-0.00569838056903949,0.00710157915179044));
#887=CARTESIAN_POINT('',(-0.0343473435744013,-0.00569838056903974,0.00510157915179096));
#888=CARTESIAN_POINT('',(0.0129999999999961,-0.00569838056903999,0.00510157915179194));
#889=CARTESIAN_POINT('',(0.0129999999999969,-0.00569838056903949,0.00510157915179194));
#890=CARTESIAN_POINT('',(0.0129999999999969,-0.00569838056903999,0.00310157915179194));
#891=CARTESIAN_POINT('',(0.0179999999999995,-0.00569838056903999,-0.0183984208482025));
#892=CARTESIAN_POINT('',(0.0322234537702839,-0.00569838056903999,-0.0183984208482025));
#893=CARTESIAN_POINT('',(0.0352234537702806,-0.00569838056903999,-0.018398420848202));
#894=CARTESIAN_POINT('',(0.0352234537702805,-0.00569838056903999,0.0191015791517919));
#895=CARTESIAN_POINT('',(0.0352234537702847,-0.00569838056903999,0.0191015791517914));
#896=CARTESIAN_POINT('',(0.0292234537702846,-0.00569838056903999,0.0191015791517914));
#897=CARTESIAN_POINT('',(-0.0303473435743972,-0.00569838056903949,0.0191015791517909));
#898=CARTESIAN_POINT('',(0.0352234537702805,-0.009098380569041,0.00360157915179196));
#899=CARTESIAN_POINT('',(0.0352234537702803,-0.000598380569040987,0.019101579151792));
#900=CARTESIAN_POINT('',(0.0352234537702805,-0.000598380569040987,0.019101579151792));
#901=CARTESIAN_POINT('',(0.0352234537702806,-0.000598380569041487,-0.018398420848202));
#902=CARTESIAN_POINT('',(0.0352234537702804,-0.009098380569041,0.019101579151792));
#903=CARTESIAN_POINT('',(0.0352234537702805,-0.009098380569041,-0.018398420848202));
#904=CARTESIAN_POINT('',(0.012999999999996,-0.010848380569041,0.00310157915179196));
#905=CARTESIAN_POINT('',(0.0129999999999961,-0.009098380569041,0.00510157915179196));
#906=CARTESIAN_POINT('',(0.014999999999996,-0.010848380569041,0.00310157915179196));
#907=CARTESIAN_POINT('',(0.0322234537702806,-0.011598380569041,-0.018398420848202));
#908=CARTESIAN_POINT('',(0.0322234537702838,-0.000598380569040987,-0.0183984208482025));
#909=CARTESIAN_POINT('',(0.0179999999999962,-0.010848380569041,-0.018398420848202));
#910=CARTESIAN_POINT('',(0.0179999999999994,-0.000598380569040987,-0.0183984208482025));
#911=CARTESIAN_POINT('',(-0.0343473435744014,-0.00909838056904,0.00710157915179097));
#912=CARTESIAN_POINT('',(-0.0343473435744013,-0.00909838056904,0.00510157915179096));
#913=CARTESIAN_POINT('',(-0.0363473435744014,-0.01809838056904,0.00710157915179097));
#914=CARTESIAN_POINT('',(0.0292234537702804,-0.009098380569041,0.019101579151792));
#915=CARTESIAN_POINT('',(0.0292234537702845,-0.000598380569041487,0.0191015791517915));
#916=CARTESIAN_POINT('',(-0.0303473435744014,-0.00909838056904,0.019101579151791));
#917=CARTESIAN_POINT('',(-0.0363473435744014,-0.00909838056904,0.019101579151791));
#918=CARTESIAN_POINT('',(0.0132234537702805,-0.009098380569041,0.00510157915179196));
#919=CARTESIAN_POINT('',(-0.0363473435744013,-0.00909838056904,0.00360157915179096));
#920=CARTESIAN_POINT('',(-0.0317473435744014,-0.00369838056903951,0.0139015791517921));
#921=CARTESIAN_POINT('',(-0.0317473435744014,-0.00369838056903951,0.0139015791517921));
#922=CARTESIAN_POINT('',(-0.0285473435744013,-0.00369838056903954,0.0139015791517921));
#923=CARTESIAN_POINT('',(-0.000561944902058346,-0.00369838056903985,0.00185157915179496));
#924=CARTESIAN_POINT('',(0.0293634537702807,-0.00369838056904018,-0.00659842084820156));
#925=CARTESIAN_POINT('',(0.0293634537702807,-0.00369838056904018,-0.00659842084820156));
#926=CARTESIAN_POINT('',(0.0325634537702807,-0.00369838056904021,-0.00659842084820156));
#927=CARTESIAN_POINT('',(-0.000561944902058346,-0.00369838056903985,0.00185157915179496));
#928=CARTESIAN_POINT('',(0.00825265642559863,-0.00369838056903993,0.0139015791517921));
#929=CARTESIAN_POINT('',(0.00825265642559863,-0.00369838056903993,0.0139015791517921));
#930=CARTESIAN_POINT('',(0.0114526564255986,-0.00369838056903996,0.0139015791517921));
#931=CARTESIAN_POINT('',(-0.000561944902058346,-0.00369838056903985,0.00185157915179496));
#932=CARTESIAN_POINT('',(0.0149999999999961,-0.000598380569040987,-0.018398420848202));
#933=CARTESIAN_POINT('',(0.0149999999999961,-0.000598380569040987,-0.018398420848202));
#934=CARTESIAN_POINT('',(-0.000561944902058387,-0.000598380569040846,0.00185157915179483));
#935=MECHANICAL_DESIGN_GEOMETRIC_PRESENTATION_REPRESENTATION('',(#551),
#936);
#936=(
GEOMETRIC_REPRESENTATION_CONTEXT(3)
GLOBAL_UNCERTAINTY_ASSIGNED_CONTEXT((#937))
GLOBAL_UNIT_ASSIGNED_CONTEXT((#940,#939,#938))
REPRESENTATION_CONTEXT('L bracket','TOP_LEVEL_ASSEMBLY_PART')
);
#937=UNCERTAINTY_MEASURE_WITH_UNIT(LENGTH_MEASURE(1.E-8),#940,
'DISTANCE_ACCURACY_VALUE','Maximum Tolerance applied to model');
#938=(
NAMED_UNIT(*)
SI_UNIT($,.STERADIAN.)
SOLID_ANGLE_UNIT()
);
#939=(
NAMED_UNIT(*)
PLANE_ANGLE_UNIT()
SI_UNIT($,.RADIAN.)
);
#940=(
LENGTH_UNIT()
NAMED_UNIT(*)
SI_UNIT($,.METRE.)
);
#941=PRODUCT_DEFINITION_SHAPE('','',#942);
#942=PRODUCT_DEFINITION('','',#944,#943);
#943=PRODUCT_DEFINITION_CONTEXT('',#950,'design');
#944=PRODUCT_DEFINITION_FORMATION_WITH_SPECIFIED_SOURCE('','',#946,
 .NOT_KNOWN.);
#945=PRODUCT_RELATED_PRODUCT_CATEGORY('','',(#946));
#946=PRODUCT('L bracket','L bracket','L bracket',(#948));
#947=PRODUCT_CATEGORY('','');
#948=PRODUCT_CONTEXT('',#950,'mechanical');
#949=APPLICATION_PROTOCOL_DEFINITION('international standard',
'ap242_managed_model_based_3d_engineering',2020,#950);
#950=APPLICATION_CONTEXT('managed model based 3d engineering');
ENDSEC;
END-ISO-10303-21;
