ISO-10303-21;
HEADER;
/* Generated by software containing ST-Developer
 * from STEP Tools, Inc. (www.steptools.com) 
 */
/* OPTION: using custom renumber hook */

FILE_DESCRIPTION(
/* description */ ('STEP AP242 Edition 2',
'CAx-IF Rec.Pracs.---Representation and Presentation of Product Manufa
cturing Information (PMI)---4.0---2014-10-13',
'CAx-IF Rec.Pracs.---3D Tessellated Geometry---0.4---2014-09-14','2;1',
'CAx-IF Rec.Pracs.---User Defined Attributes---1.5---2016-08-15'),
/* implementation_level */ '2;1');

FILE_NAME(
/* name */ 'arc_extender - Part 2',
/* time_stamp */ '2026-08-28T10:49:10Z',
/* author */ (''),
/* organization */ (''),
/* preprocessor_version */ 'ST-DEVELOPER v20',
/* originating_system */ 'ONSHAPE BY PTC INC, 1.219',
/* authorisation */ '  ');

FILE_SCHEMA (('AP242_MANAGED_MODEL_BASED_3D_ENGINEERING_MIM_LF { 1 0 10303 442 3 1 4 }'));
ENDSEC;

DATA;
#10=SHAPE_REPRESENTATION_RELATIONSHIP('','',#957,#11);
#11=ADVANCED_BREP_SHAPE_REPRESENTATION('',(#955),#1617);
#12=B_SPLINE_CURVE_WITH_KNOTS('',3,(#1324,#1325,#1326,#1327,#1328,#1329,
#1330,#1331,#1332,#1333,#1334,#1335,#1336),.UNSPECIFIED.,.F.,.F.,(4,1,1,
1,1,1,1,1,1,1,4),(0.,0.00268777418464341,0.00537554836928681,0.00806332255393022,
0.00940720964625192,0.0107510967385736,0.0120949838308953,0.013438870923217,
0.0161266451078604,0.0188144192925038,0.0215021934771472),.UNSPECIFIED.);
#13=B_SPLINE_CURVE_WITH_KNOTS('',3,(#1376,#1377,#1378,#1379,#1380,#1381,
#1382,#1383,#1384,#1385,#1386,#1387,#1388),.UNSPECIFIED.,.F.,.F.,(4,1,1,
1,1,1,1,1,1,1,4),(0.,0.00268777418464341,0.00537554836928681,0.00806332255393022,
0.00940720964625192,0.0107510967385736,0.0120949838308953,0.013438870923217,
0.0161266451078604,0.0188144192925038,0.0215021934771472),.UNSPECIFIED.);
#14=B_SPLINE_CURVE_WITH_KNOTS('',3,(#1416,#1417,#1418,#1419,#1420,#1421,
#1422),.UNSPECIFIED.,.F.,.F.,(4,1,1,1,4),(0.,0.00209651549769923,0.00419303099539846,
0.0062895464930977,0.00838606199079693),.UNSPECIFIED.);
#15=B_SPLINE_CURVE_WITH_KNOTS('',3,(#1427,#1428,#1429,#1430,#1431,#1432,
#1433),.UNSPECIFIED.,.F.,.F.,(4,1,1,1,4),(0.,0.00209651549769923,0.00419303099539845,
0.00628954649309768,0.0083860619907969),.UNSPECIFIED.);
#16=B_SPLINE_CURVE_WITH_KNOTS('',3,(#1462,#1463,#1464,#1465,#1466,#1467,
#1468,#1469,#1470,#1471,#1472,#1473,#1474),.UNSPECIFIED.,.T.,.F.,(1,1,1,
1,1,1,1,1,1,1,1,1,1,1,1,1,1),(-0.00426832828530331,-0.00284555219020221,
-0.0014227760951011,0.,0.0014227760951011,0.00284555219020221,0.00426832828530331,
0.00497971633285387,0.00569110438040442,0.00640249242795497,0.00711388047550552,
0.00853665657060663,0.00995943266570773,0.0113822087608088,0.0128049848559099,
0.014227760951011,0.0156505370461121),.UNSPECIFIED.);
#17=B_SPLINE_CURVE_WITH_KNOTS('',3,(#1476,#1477,#1478,#1479,#1480,#1481,
#1482,#1483,#1484,#1485,#1486,#1487,#1488),.UNSPECIFIED.,.T.,.F.,(1,1,1,
1,1,1,1,1,1,1,1,1,1,1,1,1,1),(-0.0028449885230247,-0.00142249426151235,
-0.00071124713075617,6.93889390390723E-18,0.000711247130756183,0.00142249426151236,
0.00284498852302471,0.00426748278453706,0.00568997704604942,0.00711247130756177,
0.00853496556907412,0.00995745983058647,0.0106687069613426,0.0113799540920988,
0.012091201222855,0.0128024483536112,0.0142249426151235),.UNSPECIFIED.);
#18=CYLINDRICAL_SURFACE('',#963,0.0263);
#19=CYLINDRICAL_SURFACE('',#970,0.0263);
#20=CYLINDRICAL_SURFACE('',#977,0.0262999999999995);
#21=CYLINDRICAL_SURFACE('',#984,0.02855);
#22=CYLINDRICAL_SURFACE('',#987,0.0017);
#23=CYLINDRICAL_SURFACE('',#990,0.0017);
#24=CYLINDRICAL_SURFACE('',#1004,0.005);
#25=CYLINDRICAL_SURFACE('',#1011,0.0032);
#26=CYLINDRICAL_SURFACE('',#1014,0.0032);
#27=CYLINDRICAL_SURFACE('',#1017,0.0017);
#28=CYLINDRICAL_SURFACE('',#1019,0.0017);
#29=CYLINDRICAL_SURFACE('',#1021,0.0052);
#30=CYLINDRICAL_SURFACE('',#1022,0.0052);
#31=LINE('',#1293,#125);
#32=LINE('',#1296,#126);
#33=LINE('',#1298,#127);
#34=LINE('',#1300,#128);
#35=LINE('',#1302,#129);
#36=LINE('',#1304,#130);
#37=LINE('',#1308,#131);
#38=LINE('',#1311,#132);
#39=LINE('',#1313,#133);
#40=LINE('',#1315,#134);
#41=LINE('',#1317,#135);
#42=LINE('',#1319,#136);
#43=LINE('',#1321,#137);
#44=LINE('',#1338,#138);
#45=LINE('',#1342,#139);
#46=LINE('',#1346,#140);
#47=LINE('',#1349,#141);
#48=LINE('',#1350,#142);
#49=LINE('',#1352,#143);
#50=LINE('',#1354,#144);
#51=LINE('',#1356,#145);
#52=LINE('',#1358,#146);
#53=LINE('',#1361,#147);
#54=LINE('',#1363,#148);
#55=LINE('',#1365,#149);
#56=LINE('',#1367,#150);
#57=LINE('',#1370,#151);
#58=LINE('',#1372,#152);
#59=LINE('',#1374,#153);
#60=LINE('',#1391,#154);
#61=LINE('',#1397,#155);
#62=LINE('',#1399,#156);
#63=LINE('',#1401,#157);
#64=LINE('',#1404,#158);
#65=LINE('',#1406,#159);
#66=LINE('',#1408,#160);
#67=LINE('',#1410,#161);
#68=LINE('',#1412,#162);
#69=LINE('',#1414,#163);
#70=LINE('',#1425,#164);
#71=LINE('',#1435,#165);
#72=LINE('',#1439,#166);
#73=LINE('',#1442,#167);
#74=LINE('',#1443,#168);
#75=LINE('',#1445,#169);
#76=LINE('',#1447,#170);
#77=LINE('',#1449,#171);
#78=LINE('',#1452,#172);
#79=LINE('',#1457,#173);
#80=LINE('',#1461,#174);
#81=LINE('',#1501,#175);
#82=LINE('',#1503,#176);
#83=LINE('',#1504,#177);
#84=LINE('',#1507,#178);
#85=LINE('',#1508,#179);
#86=LINE('',#1510,#180);
#87=LINE('',#1512,#181);
#88=LINE('',#1515,#182);
#89=LINE('',#1517,#183);
#90=LINE('',#1519,#184);
#91=LINE('',#1521,#185);
#92=LINE('',#1522,#186);
#93=LINE('',#1524,#187);
#94=LINE('',#1525,#188);
#95=LINE('',#1528,#189);
#96=LINE('',#1532,#190);
#97=LINE('',#1535,#191);
#98=LINE('',#1537,#192);
#99=LINE('',#1541,#193);
#100=LINE('',#1543,#194);
#101=LINE('',#1567,#195);
#102=LINE('',#1569,#196);
#103=LINE('',#1571,#197);
#104=LINE('',#1573,#198);
#105=LINE('',#1575,#199);
#106=LINE('',#1577,#200);
#107=LINE('',#1579,#201);
#108=LINE('',#1581,#202);
#109=LINE('',#1583,#203);
#110=LINE('',#1585,#204);
#111=LINE('',#1587,#205);
#112=LINE('',#1589,#206);
#113=LINE('',#1592,#207);
#114=LINE('',#1594,#208);
#115=LINE('',#1596,#209);
#116=LINE('',#1598,#210);
#117=LINE('',#1600,#211);
#118=LINE('',#1602,#212);
#119=LINE('',#1604,#213);
#120=LINE('',#1606,#214);
#121=LINE('',#1608,#215);
#122=LINE('',#1610,#216);
#123=LINE('',#1612,#217);
#124=LINE('',#1614,#218);
#125=VECTOR('',#1043,1.);
#126=VECTOR('',#1044,1.);
#127=VECTOR('',#1045,1.);
#128=VECTOR('',#1046,1.);
#129=VECTOR('',#1047,1.);
#130=VECTOR('',#1048,1.);
#131=VECTOR('',#1053,1.);
#132=VECTOR('',#1054,1.);
#133=VECTOR('',#1055,1.);
#134=VECTOR('',#1056,1.);
#135=VECTOR('',#1057,1.);
#136=VECTOR('',#1058,1.);
#137=VECTOR('',#1061,1.);
#138=VECTOR('',#1062,1.);
#139=VECTOR('',#1065,1.);
#140=VECTOR('',#1070,1.);
#141=VECTOR('',#1071,1.);
#142=VECTOR('',#1072,1.);
#143=VECTOR('',#1075,1.);
#144=VECTOR('',#1076,1.);
#145=VECTOR('',#1077,1.);
#146=VECTOR('',#1080,1.);
#147=VECTOR('',#1081,1.);
#148=VECTOR('',#1082,1.);
#149=VECTOR('',#1083,1.);
#150=VECTOR('',#1086,1.);
#151=VECTOR('',#1087,1.);
#152=VECTOR('',#1088,1.);
#153=VECTOR('',#1089,1.);
#154=VECTOR('',#1094,1.);
#155=VECTOR('',#1101,1.);
#156=VECTOR('',#1102,1.);
#157=VECTOR('',#1105,1.);
#158=VECTOR('',#1106,1.);
#159=VECTOR('',#1107,1.);
#160=VECTOR('',#1108,1.);
#161=VECTOR('',#1111,1.);
#162=VECTOR('',#1112,1.);
#163=VECTOR('',#1113,1.);
#164=VECTOR('',#1118,1.);
#165=VECTOR('',#1119,1.);
#166=VECTOR('',#1124,1.);
#167=VECTOR('',#1125,1.);
#168=VECTOR('',#1126,1.);
#169=VECTOR('',#1129,1.);
#170=VECTOR('',#1130,1.);
#171=VECTOR('',#1131,1.);
#172=VECTOR('',#1136,1.);
#173=VECTOR('',#1141,1.);
#174=VECTOR('',#1144,1.);
#175=VECTOR('',#1159,1.);
#176=VECTOR('',#1160,1.);
#177=VECTOR('',#1161,1.);
#178=VECTOR('',#1166,1.);
#179=VECTOR('',#1167,1.);
#180=VECTOR('',#1168,1.);
#181=VECTOR('',#1169,1.);
#182=VECTOR('',#1174,1.);
#183=VECTOR('',#1175,1.);
#184=VECTOR('',#1176,1.);
#185=VECTOR('',#1177,1.);
#186=VECTOR('',#1178,1.);
#187=VECTOR('',#1181,1.);
#188=VECTOR('',#1182,1.);
#189=VECTOR('',#1187,1.);
#190=VECTOR('',#1190,1.);
#191=VECTOR('',#1195,1.);
#192=VECTOR('',#1196,1.);
#193=VECTOR('',#1201,1.);
#194=VECTOR('',#1204,1.);
#195=VECTOR('',#1239,1.);
#196=VECTOR('',#1240,1.);
#197=VECTOR('',#1241,1.);
#198=VECTOR('',#1244,1.);
#199=VECTOR('',#1245,1.);
#200=VECTOR('',#1248,1.);
#201=VECTOR('',#1249,1.);
#202=VECTOR('',#1252,1.);
#203=VECTOR('',#1253,1.);
#204=VECTOR('',#1256,1.);
#205=VECTOR('',#1257,1.);
#206=VECTOR('',#1260,1.);
#207=VECTOR('',#1265,1.);
#208=VECTOR('',#1266,1.);
#209=VECTOR('',#1267,1.);
#210=VECTOR('',#1270,1.);
#211=VECTOR('',#1271,1.);
#212=VECTOR('',#1274,1.);
#213=VECTOR('',#1275,1.);
#214=VECTOR('',#1278,1.);
#215=VECTOR('',#1279,1.);
#216=VECTOR('',#1282,1.);
#217=VECTOR('',#1283,1.);
#218=VECTOR('',#1286,1.);
#219=ORIENTED_EDGE('',*,*,#471,.F.);
#220=ORIENTED_EDGE('',*,*,#472,.F.);
#221=ORIENTED_EDGE('',*,*,#473,.F.);
#222=ORIENTED_EDGE('',*,*,#474,.F.);
#223=ORIENTED_EDGE('',*,*,#475,.F.);
#224=ORIENTED_EDGE('',*,*,#476,.F.);
#225=ORIENTED_EDGE('',*,*,#477,.F.);
#226=ORIENTED_EDGE('',*,*,#478,.F.);
#227=ORIENTED_EDGE('',*,*,#479,.F.);
#228=ORIENTED_EDGE('',*,*,#480,.F.);
#229=ORIENTED_EDGE('',*,*,#481,.F.);
#230=ORIENTED_EDGE('',*,*,#482,.F.);
#231=ORIENTED_EDGE('',*,*,#483,.F.);
#232=ORIENTED_EDGE('',*,*,#484,.F.);
#233=ORIENTED_EDGE('',*,*,#485,.F.);
#234=ORIENTED_EDGE('',*,*,#486,.F.);
#235=ORIENTED_EDGE('',*,*,#487,.F.);
#236=ORIENTED_EDGE('',*,*,#488,.T.);
#237=ORIENTED_EDGE('',*,*,#489,.T.);
#238=ORIENTED_EDGE('',*,*,#490,.F.);
#239=ORIENTED_EDGE('',*,*,#491,.F.);
#240=ORIENTED_EDGE('',*,*,#492,.F.);
#241=ORIENTED_EDGE('',*,*,#485,.T.);
#242=ORIENTED_EDGE('',*,*,#493,.F.);
#243=ORIENTED_EDGE('',*,*,#487,.T.);
#244=ORIENTED_EDGE('',*,*,#494,.F.);
#245=ORIENTED_EDGE('',*,*,#495,.F.);
#246=ORIENTED_EDGE('',*,*,#496,.T.);
#247=ORIENTED_EDGE('',*,*,#497,.T.);
#248=ORIENTED_EDGE('',*,*,#498,.T.);
#249=ORIENTED_EDGE('',*,*,#499,.T.);
#250=ORIENTED_EDGE('',*,*,#500,.F.);
#251=ORIENTED_EDGE('',*,*,#501,.T.);
#252=ORIENTED_EDGE('',*,*,#502,.F.);
#253=ORIENTED_EDGE('',*,*,#503,.F.);
#254=ORIENTED_EDGE('',*,*,#504,.T.);
#255=ORIENTED_EDGE('',*,*,#502,.T.);
#256=ORIENTED_EDGE('',*,*,#505,.F.);
#257=ORIENTED_EDGE('',*,*,#500,.T.);
#258=ORIENTED_EDGE('',*,*,#506,.F.);
#259=ORIENTED_EDGE('',*,*,#507,.F.);
#260=ORIENTED_EDGE('',*,*,#508,.T.);
#261=ORIENTED_EDGE('',*,*,#509,.T.);
#262=ORIENTED_EDGE('',*,*,#510,.F.);
#263=ORIENTED_EDGE('',*,*,#511,.F.);
#264=ORIENTED_EDGE('',*,*,#495,.T.);
#265=ORIENTED_EDGE('',*,*,#512,.T.);
#266=ORIENTED_EDGE('',*,*,#513,.T.);
#267=ORIENTED_EDGE('',*,*,#514,.T.);
#268=ORIENTED_EDGE('',*,*,#515,.F.);
#269=ORIENTED_EDGE('',*,*,#516,.T.);
#270=ORIENTED_EDGE('',*,*,#517,.F.);
#271=ORIENTED_EDGE('',*,*,#518,.F.);
#272=ORIENTED_EDGE('',*,*,#510,.T.);
#273=ORIENTED_EDGE('',*,*,#517,.T.);
#274=ORIENTED_EDGE('',*,*,#519,.F.);
#275=ORIENTED_EDGE('',*,*,#515,.T.);
#276=ORIENTED_EDGE('',*,*,#520,.F.);
#277=ORIENTED_EDGE('',*,*,#521,.F.);
#278=ORIENTED_EDGE('',*,*,#522,.F.);
#279=ORIENTED_EDGE('',*,*,#523,.F.);
#280=ORIENTED_EDGE('',*,*,#524,.T.);
#281=ORIENTED_EDGE('',*,*,#525,.F.);
#282=ORIENTED_EDGE('',*,*,#526,.F.);
#283=ORIENTED_EDGE('',*,*,#521,.T.);
#284=ORIENTED_EDGE('',*,*,#527,.F.);
#285=ORIENTED_EDGE('',*,*,#523,.T.);
#286=ORIENTED_EDGE('',*,*,#528,.F.);
#287=ORIENTED_EDGE('',*,*,#529,.F.);
#288=ORIENTED_EDGE('',*,*,#530,.T.);
#289=ORIENTED_EDGE('',*,*,#529,.T.);
#290=ORIENTED_EDGE('',*,*,#531,.F.);
#291=ORIENTED_EDGE('',*,*,#504,.F.);
#292=ORIENTED_EDGE('',*,*,#532,.T.);
#293=ORIENTED_EDGE('',*,*,#533,.T.);
#294=ORIENTED_EDGE('',*,*,#534,.F.);
#295=ORIENTED_EDGE('',*,*,#535,.F.);
#296=ORIENTED_EDGE('',*,*,#536,.T.);
#297=ORIENTED_EDGE('',*,*,#537,.F.);
#298=ORIENTED_EDGE('',*,*,#538,.F.);
#299=ORIENTED_EDGE('',*,*,#539,.F.);
#300=ORIENTED_EDGE('',*,*,#540,.T.);
#301=ORIENTED_EDGE('',*,*,#541,.F.);
#302=ORIENTED_EDGE('',*,*,#542,.T.);
#303=ORIENTED_EDGE('',*,*,#543,.F.);
#304=ORIENTED_EDGE('',*,*,#544,.F.);
#305=ORIENTED_EDGE('',*,*,#489,.F.);
#306=ORIENTED_EDGE('',*,*,#545,.T.);
#307=ORIENTED_EDGE('',*,*,#534,.T.);
#308=ORIENTED_EDGE('',*,*,#546,.T.);
#309=ORIENTED_EDGE('',*,*,#491,.T.);
#310=ORIENTED_EDGE('',*,*,#547,.F.);
#311=ORIENTED_EDGE('',*,*,#544,.T.);
#312=ORIENTED_EDGE('',*,*,#548,.T.);
#313=ORIENTED_EDGE('',*,*,#549,.F.);
#314=ORIENTED_EDGE('',*,*,#550,.F.);
#315=ORIENTED_EDGE('',*,*,#513,.F.);
#316=ORIENTED_EDGE('',*,*,#498,.F.);
#317=ORIENTED_EDGE('',*,*,#551,.F.);
#318=ORIENTED_EDGE('',*,*,#525,.T.);
#319=ORIENTED_EDGE('',*,*,#552,.F.);
#320=ORIENTED_EDGE('',*,*,#553,.T.);
#321=ORIENTED_EDGE('',*,*,#554,.F.);
#322=ORIENTED_EDGE('',*,*,#555,.F.);
#323=ORIENTED_EDGE('',*,*,#556,.F.);
#324=ORIENTED_EDGE('',*,*,#557,.T.);
#325=ORIENTED_EDGE('',*,*,#536,.F.);
#326=ORIENTED_EDGE('',*,*,#558,.F.);
#327=ORIENTED_EDGE('',*,*,#507,.T.);
#328=ORIENTED_EDGE('',*,*,#555,.T.);
#329=ORIENTED_EDGE('',*,*,#545,.F.);
#330=ORIENTED_EDGE('',*,*,#488,.F.);
#331=ORIENTED_EDGE('',*,*,#496,.F.);
#332=ORIENTED_EDGE('',*,*,#511,.T.);
#333=ORIENTED_EDGE('',*,*,#518,.T.);
#334=ORIENTED_EDGE('',*,*,#524,.F.);
#335=ORIENTED_EDGE('',*,*,#530,.F.);
#336=ORIENTED_EDGE('',*,*,#532,.F.);
#337=ORIENTED_EDGE('',*,*,#503,.T.);
#338=ORIENTED_EDGE('',*,*,#508,.F.);
#339=ORIENTED_EDGE('',*,*,#558,.T.);
#340=ORIENTED_EDGE('',*,*,#535,.T.);
#341=ORIENTED_EDGE('',*,*,#557,.F.);
#342=ORIENTED_EDGE('',*,*,#554,.T.);
#343=ORIENTED_EDGE('',*,*,#559,.T.);
#344=ORIENTED_EDGE('',*,*,#560,.F.);
#345=ORIENTED_EDGE('',*,*,#561,.F.);
#346=ORIENTED_EDGE('',*,*,#548,.F.);
#347=ORIENTED_EDGE('',*,*,#543,.T.);
#348=ORIENTED_EDGE('',*,*,#533,.F.);
#349=ORIENTED_EDGE('',*,*,#539,.T.);
#350=ORIENTED_EDGE('',*,*,#541,.T.);
#351=ORIENTED_EDGE('',*,*,#499,.F.);
#352=ORIENTED_EDGE('',*,*,#556,.T.);
#353=ORIENTED_EDGE('',*,*,#506,.T.);
#354=ORIENTED_EDGE('',*,*,#559,.F.);
#355=ORIENTED_EDGE('',*,*,#553,.F.);
#356=ORIENTED_EDGE('',*,*,#562,.T.);
#357=ORIENTED_EDGE('',*,*,#563,.T.);
#358=ORIENTED_EDGE('',*,*,#560,.T.);
#359=ORIENTED_EDGE('',*,*,#563,.F.);
#360=ORIENTED_EDGE('',*,*,#564,.F.);
#361=ORIENTED_EDGE('',*,*,#565,.T.);
#362=ORIENTED_EDGE('',*,*,#561,.T.);
#363=ORIENTED_EDGE('',*,*,#565,.F.);
#364=ORIENTED_EDGE('',*,*,#566,.F.);
#365=ORIENTED_EDGE('',*,*,#549,.T.);
#366=ORIENTED_EDGE('',*,*,#567,.F.);
#367=ORIENTED_EDGE('',*,*,#568,.F.);
#368=ORIENTED_EDGE('',*,*,#514,.F.);
#369=ORIENTED_EDGE('',*,*,#550,.T.);
#370=ORIENTED_EDGE('',*,*,#566,.T.);
#371=ORIENTED_EDGE('',*,*,#564,.T.);
#372=ORIENTED_EDGE('',*,*,#562,.F.);
#373=ORIENTED_EDGE('',*,*,#552,.T.);
#374=ORIENTED_EDGE('',*,*,#527,.T.);
#375=ORIENTED_EDGE('',*,*,#520,.T.);
#376=ORIENTED_EDGE('',*,*,#547,.T.);
#377=ORIENTED_EDGE('',*,*,#493,.T.);
#378=ORIENTED_EDGE('',*,*,#490,.T.);
#379=ORIENTED_EDGE('',*,*,#569,.F.);
#380=ORIENTED_EDGE('',*,*,#568,.T.);
#381=ORIENTED_EDGE('',*,*,#540,.F.);
#382=ORIENTED_EDGE('',*,*,#569,.T.);
#383=ORIENTED_EDGE('',*,*,#570,.F.);
#384=ORIENTED_EDGE('',*,*,#567,.T.);
#385=ORIENTED_EDGE('',*,*,#542,.F.);
#386=ORIENTED_EDGE('',*,*,#570,.T.);
#387=ORIENTED_EDGE('',*,*,#571,.F.);
#388=ORIENTED_EDGE('',*,*,#537,.T.);
#389=ORIENTED_EDGE('',*,*,#572,.F.);
#390=ORIENTED_EDGE('',*,*,#538,.T.);
#391=ORIENTED_EDGE('',*,*,#531,.T.);
#392=ORIENTED_EDGE('',*,*,#528,.T.);
#393=ORIENTED_EDGE('',*,*,#522,.T.);
#394=ORIENTED_EDGE('',*,*,#526,.T.);
#395=ORIENTED_EDGE('',*,*,#551,.T.);
#396=ORIENTED_EDGE('',*,*,#497,.F.);
#397=ORIENTED_EDGE('',*,*,#505,.T.);
#398=ORIENTED_EDGE('',*,*,#501,.F.);
#399=ORIENTED_EDGE('',*,*,#471,.T.);
#400=ORIENTED_EDGE('',*,*,#512,.F.);
#401=ORIENTED_EDGE('',*,*,#519,.T.);
#402=ORIENTED_EDGE('',*,*,#516,.F.);
#403=ORIENTED_EDGE('',*,*,#509,.F.);
#404=ORIENTED_EDGE('',*,*,#494,.T.);
#405=ORIENTED_EDGE('',*,*,#486,.T.);
#406=ORIENTED_EDGE('',*,*,#492,.T.);
#407=ORIENTED_EDGE('',*,*,#546,.F.);
#408=ORIENTED_EDGE('',*,*,#478,.T.);
#409=ORIENTED_EDGE('',*,*,#479,.T.);
#410=ORIENTED_EDGE('',*,*,#573,.F.);
#411=ORIENTED_EDGE('',*,*,#574,.T.);
#412=ORIENTED_EDGE('',*,*,#575,.T.);
#413=ORIENTED_EDGE('',*,*,#480,.T.);
#414=ORIENTED_EDGE('',*,*,#575,.F.);
#415=ORIENTED_EDGE('',*,*,#576,.T.);
#416=ORIENTED_EDGE('',*,*,#577,.T.);
#417=ORIENTED_EDGE('',*,*,#481,.T.);
#418=ORIENTED_EDGE('',*,*,#577,.F.);
#419=ORIENTED_EDGE('',*,*,#578,.T.);
#420=ORIENTED_EDGE('',*,*,#579,.T.);
#421=ORIENTED_EDGE('',*,*,#482,.T.);
#422=ORIENTED_EDGE('',*,*,#579,.F.);
#423=ORIENTED_EDGE('',*,*,#580,.T.);
#424=ORIENTED_EDGE('',*,*,#581,.T.);
#425=ORIENTED_EDGE('',*,*,#483,.T.);
#426=ORIENTED_EDGE('',*,*,#581,.F.);
#427=ORIENTED_EDGE('',*,*,#582,.T.);
#428=ORIENTED_EDGE('',*,*,#583,.T.);
#429=ORIENTED_EDGE('',*,*,#484,.T.);
#430=ORIENTED_EDGE('',*,*,#583,.F.);
#431=ORIENTED_EDGE('',*,*,#584,.T.);
#432=ORIENTED_EDGE('',*,*,#573,.T.);
#433=ORIENTED_EDGE('',*,*,#572,.T.);
#434=ORIENTED_EDGE('',*,*,#574,.F.);
#435=ORIENTED_EDGE('',*,*,#584,.F.);
#436=ORIENTED_EDGE('',*,*,#582,.F.);
#437=ORIENTED_EDGE('',*,*,#580,.F.);
#438=ORIENTED_EDGE('',*,*,#578,.F.);
#439=ORIENTED_EDGE('',*,*,#576,.F.);
#440=ORIENTED_EDGE('',*,*,#472,.T.);
#441=ORIENTED_EDGE('',*,*,#585,.F.);
#442=ORIENTED_EDGE('',*,*,#586,.T.);
#443=ORIENTED_EDGE('',*,*,#587,.T.);
#444=ORIENTED_EDGE('',*,*,#473,.T.);
#445=ORIENTED_EDGE('',*,*,#587,.F.);
#446=ORIENTED_EDGE('',*,*,#588,.T.);
#447=ORIENTED_EDGE('',*,*,#589,.T.);
#448=ORIENTED_EDGE('',*,*,#474,.T.);
#449=ORIENTED_EDGE('',*,*,#589,.F.);
#450=ORIENTED_EDGE('',*,*,#590,.T.);
#451=ORIENTED_EDGE('',*,*,#591,.T.);
#452=ORIENTED_EDGE('',*,*,#475,.T.);
#453=ORIENTED_EDGE('',*,*,#591,.F.);
#454=ORIENTED_EDGE('',*,*,#592,.T.);
#455=ORIENTED_EDGE('',*,*,#593,.T.);
#456=ORIENTED_EDGE('',*,*,#476,.T.);
#457=ORIENTED_EDGE('',*,*,#593,.F.);
#458=ORIENTED_EDGE('',*,*,#594,.T.);
#459=ORIENTED_EDGE('',*,*,#595,.T.);
#460=ORIENTED_EDGE('',*,*,#477,.T.);
#461=ORIENTED_EDGE('',*,*,#595,.F.);
#462=ORIENTED_EDGE('',*,*,#596,.T.);
#463=ORIENTED_EDGE('',*,*,#585,.T.);
#464=ORIENTED_EDGE('',*,*,#571,.T.);
#465=ORIENTED_EDGE('',*,*,#586,.F.);
#466=ORIENTED_EDGE('',*,*,#596,.F.);
#467=ORIENTED_EDGE('',*,*,#594,.F.);
#468=ORIENTED_EDGE('',*,*,#592,.F.);
#469=ORIENTED_EDGE('',*,*,#590,.F.);
#470=ORIENTED_EDGE('',*,*,#588,.F.);
#471=EDGE_CURVE('',#597,#597,#685,.T.);
#472=EDGE_CURVE('',#598,#599,#31,.T.);
#473=EDGE_CURVE('',#600,#598,#32,.T.);
#474=EDGE_CURVE('',#601,#600,#33,.T.);
#475=EDGE_CURVE('',#602,#601,#34,.T.);
#476=EDGE_CURVE('',#603,#602,#35,.T.);
#477=EDGE_CURVE('',#599,#603,#36,.T.);
#478=EDGE_CURVE('',#604,#604,#686,.T.);
#479=EDGE_CURVE('',#605,#606,#37,.T.);
#480=EDGE_CURVE('',#607,#605,#38,.T.);
#481=EDGE_CURVE('',#608,#607,#39,.T.);
#482=EDGE_CURVE('',#609,#608,#40,.T.);
#483=EDGE_CURVE('',#610,#609,#41,.T.);
#484=EDGE_CURVE('',#606,#610,#42,.T.);
#485=EDGE_CURVE('',#611,#612,#43,.T.);
#486=EDGE_CURVE('',#613,#611,#12,.T.);
#487=EDGE_CURVE('',#614,#613,#44,.T.);
#488=EDGE_CURVE('',#614,#615,#687,.T.);
#489=EDGE_CURVE('',#615,#616,#45,.T.);
#490=EDGE_CURVE('',#612,#616,#688,.T.);
#491=EDGE_CURVE('',#617,#618,#46,.T.);
#492=EDGE_CURVE('',#611,#617,#47,.T.);
#493=EDGE_CURVE('',#618,#612,#48,.T.);
#494=EDGE_CURVE('',#619,#613,#49,.F.);
#495=EDGE_CURVE('',#620,#619,#50,.T.);
#496=EDGE_CURVE('',#620,#614,#51,.T.);
#497=EDGE_CURVE('',#621,#622,#52,.T.);
#498=EDGE_CURVE('',#622,#623,#53,.T.);
#499=EDGE_CURVE('',#623,#624,#54,.T.);
#500=EDGE_CURVE('',#621,#624,#55,.T.);
#501=EDGE_CURVE('',#625,#626,#56,.F.);
#502=EDGE_CURVE('',#627,#626,#57,.T.);
#503=EDGE_CURVE('',#628,#627,#58,.T.);
#504=EDGE_CURVE('',#628,#625,#59,.T.);
#505=EDGE_CURVE('',#621,#626,#13,.T.);
#506=EDGE_CURVE('',#629,#624,#689,.T.);
#507=EDGE_CURVE('',#630,#629,#60,.T.);
#508=EDGE_CURVE('',#630,#627,#690,.T.);
#509=EDGE_CURVE('',#619,#631,#691,.T.);
#510=EDGE_CURVE('',#632,#631,#61,.T.);
#511=EDGE_CURVE('',#620,#632,#62,.T.);
#512=EDGE_CURVE('',#633,#634,#63,.T.);
#513=EDGE_CURVE('',#634,#635,#64,.T.);
#514=EDGE_CURVE('',#635,#636,#65,.T.);
#515=EDGE_CURVE('',#633,#636,#66,.T.);
#516=EDGE_CURVE('',#631,#637,#67,.F.);
#517=EDGE_CURVE('',#638,#637,#68,.T.);
#518=EDGE_CURVE('',#632,#638,#69,.T.);
#519=EDGE_CURVE('',#633,#637,#14,.T.);
#520=EDGE_CURVE('',#639,#636,#692,.T.);
#521=EDGE_CURVE('',#640,#639,#70,.T.);
#522=EDGE_CURVE('',#641,#640,#15,.T.);
#523=EDGE_CURVE('',#642,#641,#71,.T.);
#524=EDGE_CURVE('',#642,#638,#693,.T.);
#525=EDGE_CURVE('',#643,#644,#72,.T.);
#526=EDGE_CURVE('',#640,#643,#73,.T.);
#527=EDGE_CURVE('',#644,#639,#74,.T.);
#528=EDGE_CURVE('',#645,#641,#75,.F.);
#529=EDGE_CURVE('',#646,#645,#76,.T.);
#530=EDGE_CURVE('',#646,#642,#77,.T.);
#531=EDGE_CURVE('',#625,#645,#694,.T.);
#532=EDGE_CURVE('',#628,#646,#78,.T.);
#533=EDGE_CURVE('',#647,#648,#695,.F.);
#534=EDGE_CURVE('',#649,#648,#79,.T.);
#535=EDGE_CURVE('',#650,#649,#696,.F.);
#536=EDGE_CURVE('',#650,#647,#80,.T.);
#537=EDGE_CURVE('',#651,#651,#16,.T.);
#538=EDGE_CURVE('',#652,#652,#17,.T.);
#539=EDGE_CURVE('',#653,#653,#697,.T.);
#540=EDGE_CURVE('',#654,#654,#698,.T.);
#541=EDGE_CURVE('',#655,#655,#699,.T.);
#542=EDGE_CURVE('',#656,#656,#700,.T.);
#543=EDGE_CURVE('',#657,#648,#81,.T.);
#544=EDGE_CURVE('',#616,#657,#82,.T.);
#545=EDGE_CURVE('',#615,#649,#83,.T.);
#546=EDGE_CURVE('',#634,#617,#701,.T.);
#547=EDGE_CURVE('',#616,#618,#84,.T.);
#548=EDGE_CURVE('',#657,#658,#85,.T.);
#549=EDGE_CURVE('',#659,#658,#86,.T.);
#550=EDGE_CURVE('',#635,#659,#87,.T.);
#551=EDGE_CURVE('',#643,#622,#702,.T.);
#552=EDGE_CURVE('',#660,#644,#88,.T.);
#553=EDGE_CURVE('',#660,#661,#89,.T.);
#554=EDGE_CURVE('',#662,#661,#90,.T.);
#555=EDGE_CURVE('',#629,#662,#91,.T.);
#556=EDGE_CURVE('',#623,#629,#92,.T.);
#557=EDGE_CURVE('',#662,#647,#93,.T.);
#558=EDGE_CURVE('',#630,#650,#94,.T.);
#559=EDGE_CURVE('',#661,#663,#95,.T.);
#560=EDGE_CURVE('',#664,#663,#703,.T.);
#561=EDGE_CURVE('',#658,#664,#96,.T.);
#562=EDGE_CURVE('',#660,#665,#97,.T.);
#563=EDGE_CURVE('',#665,#663,#98,.T.);
#564=EDGE_CURVE('',#666,#665,#704,.T.);
#565=EDGE_CURVE('',#666,#664,#99,.T.);
#566=EDGE_CURVE('',#659,#666,#100,.T.);
#567=EDGE_CURVE('',#667,#667,#705,.T.);
#568=EDGE_CURVE('',#668,#668,#706,.T.);
#569=EDGE_CURVE('',#669,#669,#707,.T.);
#570=EDGE_CURVE('',#670,#670,#708,.T.);
#571=EDGE_CURVE('',#671,#671,#709,.T.);
#572=EDGE_CURVE('',#672,#672,#710,.T.);
#573=EDGE_CURVE('',#673,#606,#101,.T.);
#574=EDGE_CURVE('',#673,#674,#102,.T.);
#575=EDGE_CURVE('',#674,#605,#103,.T.);
#576=EDGE_CURVE('',#674,#675,#104,.T.);
#577=EDGE_CURVE('',#675,#607,#105,.T.);
#578=EDGE_CURVE('',#675,#676,#106,.T.);
#579=EDGE_CURVE('',#676,#608,#107,.T.);
#580=EDGE_CURVE('',#676,#677,#108,.T.);
#581=EDGE_CURVE('',#677,#609,#109,.T.);
#582=EDGE_CURVE('',#677,#678,#110,.T.);
#583=EDGE_CURVE('',#678,#610,#111,.T.);
#584=EDGE_CURVE('',#678,#673,#112,.T.);
#585=EDGE_CURVE('',#679,#599,#113,.T.);
#586=EDGE_CURVE('',#679,#680,#114,.T.);
#587=EDGE_CURVE('',#680,#598,#115,.T.);
#588=EDGE_CURVE('',#680,#681,#116,.T.);
#589=EDGE_CURVE('',#681,#600,#117,.T.);
#590=EDGE_CURVE('',#681,#682,#118,.T.);
#591=EDGE_CURVE('',#682,#601,#119,.T.);
#592=EDGE_CURVE('',#682,#683,#120,.T.);
#593=EDGE_CURVE('',#683,#602,#121,.T.);
#594=EDGE_CURVE('',#683,#684,#122,.T.);
#595=EDGE_CURVE('',#684,#603,#123,.T.);
#596=EDGE_CURVE('',#684,#679,#124,.T.);
#597=VERTEX_POINT('',#1292);
#598=VERTEX_POINT('',#1294);
#599=VERTEX_POINT('',#1295);
#600=VERTEX_POINT('',#1297);
#601=VERTEX_POINT('',#1299);
#602=VERTEX_POINT('',#1301);
#603=VERTEX_POINT('',#1303);
#604=VERTEX_POINT('',#1307);
#605=VERTEX_POINT('',#1309);
#606=VERTEX_POINT('',#1310);
#607=VERTEX_POINT('',#1312);
#608=VERTEX_POINT('',#1314);
#609=VERTEX_POINT('',#1316);
#610=VERTEX_POINT('',#1318);
#611=VERTEX_POINT('',#1322);
#612=VERTEX_POINT('',#1323);
#613=VERTEX_POINT('',#1337);
#614=VERTEX_POINT('',#1339);
#615=VERTEX_POINT('',#1341);
#616=VERTEX_POINT('',#1343);
#617=VERTEX_POINT('',#1347);
#618=VERTEX_POINT('',#1348);
#619=VERTEX_POINT('',#1353);
#620=VERTEX_POINT('',#1355);
#621=VERTEX_POINT('',#1359);
#622=VERTEX_POINT('',#1360);
#623=VERTEX_POINT('',#1362);
#624=VERTEX_POINT('',#1364);
#625=VERTEX_POINT('',#1368);
#626=VERTEX_POINT('',#1369);
#627=VERTEX_POINT('',#1371);
#628=VERTEX_POINT('',#1373);
#629=VERTEX_POINT('',#1390);
#630=VERTEX_POINT('',#1392);
#631=VERTEX_POINT('',#1396);
#632=VERTEX_POINT('',#1398);
#633=VERTEX_POINT('',#1402);
#634=VERTEX_POINT('',#1403);
#635=VERTEX_POINT('',#1405);
#636=VERTEX_POINT('',#1407);
#637=VERTEX_POINT('',#1411);
#638=VERTEX_POINT('',#1413);
#639=VERTEX_POINT('',#1424);
#640=VERTEX_POINT('',#1426);
#641=VERTEX_POINT('',#1434);
#642=VERTEX_POINT('',#1436);
#643=VERTEX_POINT('',#1440);
#644=VERTEX_POINT('',#1441);
#645=VERTEX_POINT('',#1446);
#646=VERTEX_POINT('',#1448);
#647=VERTEX_POINT('',#1455);
#648=VERTEX_POINT('',#1456);
#649=VERTEX_POINT('',#1458);
#650=VERTEX_POINT('',#1460);
#651=VERTEX_POINT('',#1475);
#652=VERTEX_POINT('',#1489);
#653=VERTEX_POINT('',#1492);
#654=VERTEX_POINT('',#1494);
#655=VERTEX_POINT('',#1497);
#656=VERTEX_POINT('',#1499);
#657=VERTEX_POINT('',#1502);
#658=VERTEX_POINT('',#1509);
#659=VERTEX_POINT('',#1511);
#660=VERTEX_POINT('',#1516);
#661=VERTEX_POINT('',#1518);
#662=VERTEX_POINT('',#1520);
#663=VERTEX_POINT('',#1529);
#664=VERTEX_POINT('',#1531);
#665=VERTEX_POINT('',#1536);
#666=VERTEX_POINT('',#1540);
#667=VERTEX_POINT('',#1546);
#668=VERTEX_POINT('',#1548);
#669=VERTEX_POINT('',#1552);
#670=VERTEX_POINT('',#1556);
#671=VERTEX_POINT('',#1560);
#672=VERTEX_POINT('',#1563);
#673=VERTEX_POINT('',#1568);
#674=VERTEX_POINT('',#1570);
#675=VERTEX_POINT('',#1574);
#676=VERTEX_POINT('',#1578);
#677=VERTEX_POINT('',#1582);
#678=VERTEX_POINT('',#1586);
#679=VERTEX_POINT('',#1593);
#680=VERTEX_POINT('',#1595);
#681=VERTEX_POINT('',#1599);
#682=VERTEX_POINT('',#1603);
#683=VERTEX_POINT('',#1607);
#684=VERTEX_POINT('',#1611);
#685=CIRCLE('',#960,0.0052);
#686=CIRCLE('',#962,0.0052);
#687=CIRCLE('',#964,0.0263);
#688=CIRCLE('',#965,0.0263);
#689=CIRCLE('',#971,0.0263);
#690=CIRCLE('',#972,0.0263);
#691=CIRCLE('',#974,0.0052);
#692=CIRCLE('',#978,0.0263);
#693=CIRCLE('',#979,0.0262999999999995);
#694=CIRCLE('',#983,0.0052);
#695=CIRCLE('',#985,0.02855);
#696=CIRCLE('',#986,0.02855);
#697=CIRCLE('',#988,0.0017);
#698=CIRCLE('',#989,0.0017);
#699=CIRCLE('',#991,0.0017);
#700=CIRCLE('',#992,0.0017);
#701=CIRCLE('',#995,0.0052);
#702=CIRCLE('',#997,0.0052);
#703=CIRCLE('',#1001,0.005);
#704=CIRCLE('',#1005,0.005);
#705=CIRCLE('',#1008,0.0032);
#706=CIRCLE('',#1009,0.0032);
#707=CIRCLE('',#1012,0.0032);
#708=CIRCLE('',#1015,0.0032);
#709=CIRCLE('',#1018,0.0017);
#710=CIRCLE('',#1020,0.0017);
#711=EDGE_LOOP('',(#219));
#712=EDGE_LOOP('',(#220,#221,#222,#223,#224,#225));
#713=EDGE_LOOP('',(#226));
#714=EDGE_LOOP('',(#227,#228,#229,#230,#231,#232));
#715=EDGE_LOOP('',(#233,#234,#235,#236,#237,#238));
#716=EDGE_LOOP('',(#239,#240,#241,#242));
#717=EDGE_LOOP('',(#243,#244,#245,#246));
#718=EDGE_LOOP('',(#247,#248,#249,#250));
#719=EDGE_LOOP('',(#251,#252,#253,#254));
#720=EDGE_LOOP('',(#255,#256,#257,#258,#259,#260));
#721=EDGE_LOOP('',(#261,#262,#263,#264));
#722=EDGE_LOOP('',(#265,#266,#267,#268));
#723=EDGE_LOOP('',(#269,#270,#271,#272));
#724=EDGE_LOOP('',(#273,#274,#275,#276,#277,#278,#279,#280));
#725=EDGE_LOOP('',(#281,#282,#283,#284));
#726=EDGE_LOOP('',(#285,#286,#287,#288));
#727=EDGE_LOOP('',(#289,#290,#291,#292));
#728=EDGE_LOOP('',(#293,#294,#295,#296));
#729=EDGE_LOOP('',(#297));
#730=EDGE_LOOP('',(#298));
#731=EDGE_LOOP('',(#299));
#732=EDGE_LOOP('',(#300));
#733=EDGE_LOOP('',(#301));
#734=EDGE_LOOP('',(#302));
#735=EDGE_LOOP('',(#303,#304,#305,#306,#307));
#736=EDGE_LOOP('',(#308,#309,#310,#311,#312,#313,#314,#315));
#737=EDGE_LOOP('',(#316,#317,#318,#319,#320,#321,#322,#323));
#738=EDGE_LOOP('',(#324,#325,#326,#327,#328));
#739=EDGE_LOOP('',(#329,#330,#331,#332,#333,#334,#335,#336,#337,#338,#339,
#340));
#740=EDGE_LOOP('',(#341,#342,#343,#344,#345,#346,#347,#348));
#741=EDGE_LOOP('',(#349));
#742=EDGE_LOOP('',(#350));
#743=EDGE_LOOP('',(#351,#352,#353));
#744=EDGE_LOOP('',(#354,#355,#356,#357));
#745=EDGE_LOOP('',(#358,#359,#360,#361));
#746=EDGE_LOOP('',(#362,#363,#364,#365));
#747=EDGE_LOOP('',(#366));
#748=EDGE_LOOP('',(#367));
#749=EDGE_LOOP('',(#368,#369,#370,#371,#372,#373,#374,#375));
#750=EDGE_LOOP('',(#376,#377,#378));
#751=EDGE_LOOP('',(#379));
#752=EDGE_LOOP('',(#380));
#753=EDGE_LOOP('',(#381));
#754=EDGE_LOOP('',(#382));
#755=EDGE_LOOP('',(#383));
#756=EDGE_LOOP('',(#384));
#757=EDGE_LOOP('',(#385));
#758=EDGE_LOOP('',(#386));
#759=EDGE_LOOP('',(#387));
#760=EDGE_LOOP('',(#388));
#761=EDGE_LOOP('',(#389));
#762=EDGE_LOOP('',(#390));
#763=EDGE_LOOP('',(#391,#392,#393,#394,#395,#396,#397,#398));
#764=EDGE_LOOP('',(#399));
#765=EDGE_LOOP('',(#400,#401,#402,#403,#404,#405,#406,#407));
#766=EDGE_LOOP('',(#408));
#767=EDGE_LOOP('',(#409,#410,#411,#412));
#768=EDGE_LOOP('',(#413,#414,#415,#416));
#769=EDGE_LOOP('',(#417,#418,#419,#420));
#770=EDGE_LOOP('',(#421,#422,#423,#424));
#771=EDGE_LOOP('',(#425,#426,#427,#428));
#772=EDGE_LOOP('',(#429,#430,#431,#432));
#773=EDGE_LOOP('',(#433));
#774=EDGE_LOOP('',(#434,#435,#436,#437,#438,#439));
#775=EDGE_LOOP('',(#440,#441,#442,#443));
#776=EDGE_LOOP('',(#444,#445,#446,#447));
#777=EDGE_LOOP('',(#448,#449,#450,#451));
#778=EDGE_LOOP('',(#452,#453,#454,#455));
#779=EDGE_LOOP('',(#456,#457,#458,#459));
#780=EDGE_LOOP('',(#460,#461,#462,#463));
#781=EDGE_LOOP('',(#464));
#782=EDGE_LOOP('',(#465,#466,#467,#468,#469,#470));
#783=FACE_BOUND('',#711,.T.);
#784=FACE_BOUND('',#712,.T.);
#785=FACE_BOUND('',#713,.T.);
#786=FACE_BOUND('',#714,.T.);
#787=FACE_BOUND('',#715,.T.);
#788=FACE_BOUND('',#716,.T.);
#789=FACE_BOUND('',#717,.T.);
#790=FACE_BOUND('',#718,.T.);
#791=FACE_BOUND('',#719,.T.);
#792=FACE_BOUND('',#720,.T.);
#793=FACE_BOUND('',#721,.T.);
#794=FACE_BOUND('',#722,.T.);
#795=FACE_BOUND('',#723,.T.);
#796=FACE_BOUND('',#724,.T.);
#797=FACE_BOUND('',#725,.T.);
#798=FACE_BOUND('',#726,.T.);
#799=FACE_BOUND('',#727,.T.);
#800=FACE_BOUND('',#728,.T.);
#801=FACE_BOUND('',#729,.T.);
#802=FACE_BOUND('',#730,.T.);
#803=FACE_BOUND('',#731,.T.);
#804=FACE_BOUND('',#732,.T.);
#805=FACE_BOUND('',#733,.T.);
#806=FACE_BOUND('',#734,.T.);
#807=FACE_BOUND('',#735,.T.);
#808=FACE_BOUND('',#736,.T.);
#809=FACE_BOUND('',#737,.T.);
#810=FACE_BOUND('',#738,.T.);
#811=FACE_BOUND('',#739,.T.);
#812=FACE_BOUND('',#740,.T.);
#813=FACE_BOUND('',#741,.T.);
#814=FACE_BOUND('',#742,.T.);
#815=FACE_BOUND('',#743,.T.);
#816=FACE_BOUND('',#744,.T.);
#817=FACE_BOUND('',#745,.T.);
#818=FACE_BOUND('',#746,.T.);
#819=FACE_BOUND('',#747,.T.);
#820=FACE_BOUND('',#748,.T.);
#821=FACE_BOUND('',#749,.T.);
#822=FACE_BOUND('',#750,.T.);
#823=FACE_BOUND('',#751,.T.);
#824=FACE_BOUND('',#752,.T.);
#825=FACE_BOUND('',#753,.T.);
#826=FACE_BOUND('',#754,.T.);
#827=FACE_BOUND('',#755,.T.);
#828=FACE_BOUND('',#756,.T.);
#829=FACE_BOUND('',#757,.T.);
#830=FACE_BOUND('',#758,.T.);
#831=FACE_BOUND('',#759,.T.);
#832=FACE_BOUND('',#760,.T.);
#833=FACE_BOUND('',#761,.T.);
#834=FACE_BOUND('',#762,.T.);
#835=FACE_BOUND('',#763,.T.);
#836=FACE_BOUND('',#764,.T.);
#837=FACE_BOUND('',#765,.T.);
#838=FACE_BOUND('',#766,.T.);
#839=FACE_BOUND('',#767,.T.);
#840=FACE_BOUND('',#768,.T.);
#841=FACE_BOUND('',#769,.T.);
#842=FACE_BOUND('',#770,.T.);
#843=FACE_BOUND('',#771,.T.);
#844=FACE_BOUND('',#772,.T.);
#845=FACE_BOUND('',#773,.T.);
#846=FACE_BOUND('',#774,.T.);
#847=FACE_BOUND('',#775,.T.);
#848=FACE_BOUND('',#776,.T.);
#849=FACE_BOUND('',#777,.T.);
#850=FACE_BOUND('',#778,.T.);
#851=FACE_BOUND('',#779,.T.);
#852=FACE_BOUND('',#780,.T.);
#853=FACE_BOUND('',#781,.T.);
#854=FACE_BOUND('',#782,.T.);
#855=PLANE('',#959);
#856=PLANE('',#961);
#857=PLANE('',#966);
#858=PLANE('',#967);
#859=PLANE('',#968);
#860=PLANE('',#969);
#861=PLANE('',#973);
#862=PLANE('',#975);
#863=PLANE('',#976);
#864=PLANE('',#980);
#865=PLANE('',#981);
#866=PLANE('',#982);
#867=PLANE('',#993);
#868=PLANE('',#994);
#869=PLANE('',#996);
#870=PLANE('',#998);
#871=PLANE('',#999);
#872=PLANE('',#1000);
#873=PLANE('',#1002);
#874=PLANE('',#1003);
#875=PLANE('',#1006);
#876=PLANE('',#1007);
#877=PLANE('',#1010);
#878=PLANE('',#1013);
#879=PLANE('',#1016);
#880=PLANE('',#1023);
#881=PLANE('',#1024);
#882=PLANE('',#1025);
#883=PLANE('',#1026);
#884=PLANE('',#1027);
#885=PLANE('',#1028);
#886=PLANE('',#1029);
#887=PLANE('',#1030);
#888=PLANE('',#1031);
#889=PLANE('',#1032);
#890=PLANE('',#1033);
#891=PLANE('',#1034);
#892=PLANE('',#1035);
#893=PLANE('',#1036);
#894=ADVANCED_FACE('',(#783,#784),#855,.F.);
#895=ADVANCED_FACE('',(#785,#786),#856,.F.);
#896=ADVANCED_FACE('',(#787),#18,.F.);
#897=ADVANCED_FACE('',(#788),#857,.T.);
#898=ADVANCED_FACE('',(#789),#858,.T.);
#899=ADVANCED_FACE('',(#790),#859,.F.);
#900=ADVANCED_FACE('',(#791),#860,.F.);
#901=ADVANCED_FACE('',(#792),#19,.F.);
#902=ADVANCED_FACE('',(#793),#861,.F.);
#903=ADVANCED_FACE('',(#794),#862,.F.);
#904=ADVANCED_FACE('',(#795),#863,.F.);
#905=ADVANCED_FACE('',(#796),#20,.F.);
#906=ADVANCED_FACE('',(#797),#864,.T.);
#907=ADVANCED_FACE('',(#798),#865,.T.);
#908=ADVANCED_FACE('',(#799),#866,.T.);
#909=ADVANCED_FACE('',(#800,#801,#802),#21,.T.);
#910=ADVANCED_FACE('',(#803,#804),#22,.F.);
#911=ADVANCED_FACE('',(#805,#806),#23,.F.);
#912=ADVANCED_FACE('',(#807),#867,.T.);
#913=ADVANCED_FACE('',(#808),#868,.F.);
#914=ADVANCED_FACE('',(#809),#869,.T.);
#915=ADVANCED_FACE('',(#810),#870,.F.);
#916=ADVANCED_FACE('',(#811),#871,.T.);
#917=ADVANCED_FACE('',(#812,#813,#814),#872,.F.);
#918=ADVANCED_FACE('',(#815),#873,.T.);
#919=ADVANCED_FACE('',(#816),#874,.T.);
#920=ADVANCED_FACE('',(#817),#24,.T.);
#921=ADVANCED_FACE('',(#818),#875,.F.);
#922=ADVANCED_FACE('',(#819,#820,#821),#876,.T.);
#923=ADVANCED_FACE('',(#822),#877,.T.);
#924=ADVANCED_FACE('',(#823,#824),#25,.F.);
#925=ADVANCED_FACE('',(#825,#826),#878,.T.);
#926=ADVANCED_FACE('',(#827,#828),#26,.F.);
#927=ADVANCED_FACE('',(#829,#830),#879,.T.);
#928=ADVANCED_FACE('',(#831,#832),#27,.F.);
#929=ADVANCED_FACE('',(#833,#834),#28,.F.);
#930=ADVANCED_FACE('',(#835,#836),#29,.T.);
#931=ADVANCED_FACE('',(#837,#838),#30,.T.);
#932=ADVANCED_FACE('',(#839),#880,.T.);
#933=ADVANCED_FACE('',(#840),#881,.T.);
#934=ADVANCED_FACE('',(#841),#882,.T.);
#935=ADVANCED_FACE('',(#842),#883,.T.);
#936=ADVANCED_FACE('',(#843),#884,.T.);
#937=ADVANCED_FACE('',(#844),#885,.T.);
#938=ADVANCED_FACE('',(#845,#846),#886,.F.);
#939=ADVANCED_FACE('',(#847),#887,.T.);
#940=ADVANCED_FACE('',(#848),#888,.T.);
#941=ADVANCED_FACE('',(#849),#889,.T.);
#942=ADVANCED_FACE('',(#850),#890,.T.);
#943=ADVANCED_FACE('',(#851),#891,.T.);
#944=ADVANCED_FACE('',(#852),#892,.T.);
#945=ADVANCED_FACE('',(#853,#854),#893,.F.);
#946=CLOSED_SHELL('',(#894,#895,#896,#897,#898,#899,#900,#901,#902,#903,
#904,#905,#906,#907,#908,#909,#910,#911,#912,#913,#914,#915,#916,#917,#918,
#919,#920,#921,#922,#923,#924,#925,#926,#927,#928,#929,#930,#931,#932,#933,
#934,#935,#936,#937,#938,#939,#940,#941,#942,#943,#944,#945));
#947=STYLED_ITEM('',(#948),#955);
#948=PRESENTATION_STYLE_ASSIGNMENT((#949));
#949=SURFACE_STYLE_USAGE(.BOTH.,#950);
#950=SURFACE_SIDE_STYLE('',(#951));
#951=SURFACE_STYLE_FILL_AREA(#952);
#952=FILL_AREA_STYLE('',(#953));
#953=FILL_AREA_STYLE_COLOUR('',#954);
#954=COLOUR_RGB('',0.498039215686275,0.498039215686275,0.498039215686275);
#955=MANIFOLD_SOLID_BREP('Part 2',#946);
#956=SHAPE_DEFINITION_REPRESENTATION(#1622,#957);
#957=SHAPE_REPRESENTATION('Part 2',(#958),#1617);
#958=AXIS2_PLACEMENT_3D('',#1289,#1037,#1038);
#959=AXIS2_PLACEMENT_3D('',#1290,#1039,#1040);
#960=AXIS2_PLACEMENT_3D('',#1291,#1041,#1042);
#961=AXIS2_PLACEMENT_3D('',#1305,#1049,#1050);
#962=AXIS2_PLACEMENT_3D('',#1306,#1051,#1052);
#963=AXIS2_PLACEMENT_3D('',#1320,#1059,#1060);
#964=AXIS2_PLACEMENT_3D('',#1340,#1063,#1064);
#965=AXIS2_PLACEMENT_3D('',#1344,#1066,#1067);
#966=AXIS2_PLACEMENT_3D('',#1345,#1068,#1069);
#967=AXIS2_PLACEMENT_3D('',#1351,#1073,#1074);
#968=AXIS2_PLACEMENT_3D('',#1357,#1078,#1079);
#969=AXIS2_PLACEMENT_3D('',#1366,#1084,#1085);
#970=AXIS2_PLACEMENT_3D('',#1375,#1090,#1091);
#971=AXIS2_PLACEMENT_3D('',#1389,#1092,#1093);
#972=AXIS2_PLACEMENT_3D('',#1393,#1095,#1096);
#973=AXIS2_PLACEMENT_3D('',#1394,#1097,#1098);
#974=AXIS2_PLACEMENT_3D('',#1395,#1099,#1100);
#975=AXIS2_PLACEMENT_3D('',#1400,#1103,#1104);
#976=AXIS2_PLACEMENT_3D('',#1409,#1109,#1110);
#977=AXIS2_PLACEMENT_3D('',#1415,#1114,#1115);
#978=AXIS2_PLACEMENT_3D('',#1423,#1116,#1117);
#979=AXIS2_PLACEMENT_3D('',#1437,#1120,#1121);
#980=AXIS2_PLACEMENT_3D('',#1438,#1122,#1123);
#981=AXIS2_PLACEMENT_3D('',#1444,#1127,#1128);
#982=AXIS2_PLACEMENT_3D('',#1450,#1132,#1133);
#983=AXIS2_PLACEMENT_3D('',#1451,#1134,#1135);
#984=AXIS2_PLACEMENT_3D('',#1453,#1137,#1138);
#985=AXIS2_PLACEMENT_3D('',#1454,#1139,#1140);
#986=AXIS2_PLACEMENT_3D('',#1459,#1142,#1143);
#987=AXIS2_PLACEMENT_3D('',#1490,#1145,#1146);
#988=AXIS2_PLACEMENT_3D('',#1491,#1147,#1148);
#989=AXIS2_PLACEMENT_3D('',#1493,#1149,#1150);
#990=AXIS2_PLACEMENT_3D('',#1495,#1151,#1152);
#991=AXIS2_PLACEMENT_3D('',#1496,#1153,#1154);
#992=AXIS2_PLACEMENT_3D('',#1498,#1155,#1156);
#993=AXIS2_PLACEMENT_3D('',#1500,#1157,#1158);
#994=AXIS2_PLACEMENT_3D('',#1505,#1162,#1163);
#995=AXIS2_PLACEMENT_3D('',#1506,#1164,#1165);
#996=AXIS2_PLACEMENT_3D('',#1513,#1170,#1171);
#997=AXIS2_PLACEMENT_3D('',#1514,#1172,#1173);
#998=AXIS2_PLACEMENT_3D('',#1523,#1179,#1180);
#999=AXIS2_PLACEMENT_3D('',#1526,#1183,#1184);
#1000=AXIS2_PLACEMENT_3D('',#1527,#1185,#1186);
#1001=AXIS2_PLACEMENT_3D('',#1530,#1188,#1189);
#1002=AXIS2_PLACEMENT_3D('',#1533,#1191,#1192);
#1003=AXIS2_PLACEMENT_3D('',#1534,#1193,#1194);
#1004=AXIS2_PLACEMENT_3D('',#1538,#1197,#1198);
#1005=AXIS2_PLACEMENT_3D('',#1539,#1199,#1200);
#1006=AXIS2_PLACEMENT_3D('',#1542,#1202,#1203);
#1007=AXIS2_PLACEMENT_3D('',#1544,#1205,#1206);
#1008=AXIS2_PLACEMENT_3D('',#1545,#1207,#1208);
#1009=AXIS2_PLACEMENT_3D('',#1547,#1209,#1210);
#1010=AXIS2_PLACEMENT_3D('',#1549,#1211,#1212);
#1011=AXIS2_PLACEMENT_3D('',#1550,#1213,#1214);
#1012=AXIS2_PLACEMENT_3D('',#1551,#1215,#1216);
#1013=AXIS2_PLACEMENT_3D('',#1553,#1217,#1218);
#1014=AXIS2_PLACEMENT_3D('',#1554,#1219,#1220);
#1015=AXIS2_PLACEMENT_3D('',#1555,#1221,#1222);
#1016=AXIS2_PLACEMENT_3D('',#1557,#1223,#1224);
#1017=AXIS2_PLACEMENT_3D('',#1558,#1225,#1226);
#1018=AXIS2_PLACEMENT_3D('',#1559,#1227,#1228);
#1019=AXIS2_PLACEMENT_3D('',#1561,#1229,#1230);
#1020=AXIS2_PLACEMENT_3D('',#1562,#1231,#1232);
#1021=AXIS2_PLACEMENT_3D('',#1564,#1233,#1234);
#1022=AXIS2_PLACEMENT_3D('',#1565,#1235,#1236);
#1023=AXIS2_PLACEMENT_3D('',#1566,#1237,#1238);
#1024=AXIS2_PLACEMENT_3D('',#1572,#1242,#1243);
#1025=AXIS2_PLACEMENT_3D('',#1576,#1246,#1247);
#1026=AXIS2_PLACEMENT_3D('',#1580,#1250,#1251);
#1027=AXIS2_PLACEMENT_3D('',#1584,#1254,#1255);
#1028=AXIS2_PLACEMENT_3D('',#1588,#1258,#1259);
#1029=AXIS2_PLACEMENT_3D('',#1590,#1261,#1262);
#1030=AXIS2_PLACEMENT_3D('',#1591,#1263,#1264);
#1031=AXIS2_PLACEMENT_3D('',#1597,#1268,#1269);
#1032=AXIS2_PLACEMENT_3D('',#1601,#1272,#1273);
#1033=AXIS2_PLACEMENT_3D('',#1605,#1276,#1277);
#1034=AXIS2_PLACEMENT_3D('',#1609,#1280,#1281);
#1035=AXIS2_PLACEMENT_3D('',#1613,#1284,#1285);
#1036=AXIS2_PLACEMENT_3D('',#1615,#1287,#1288);
#1037=DIRECTION('',(0.,0.,1.));
#1038=DIRECTION('',(1.,0.,0.));
#1039=DIRECTION('',(0.,0.,1.));
#1040=DIRECTION('',(1.,0.,0.));
#1041=DIRECTION('',(0.,0.,1.));
#1042=DIRECTION('',(1.,0.,0.));
#1043=DIRECTION('',(-0.5,-0.866025403784439,0.));
#1044=DIRECTION('',(0.5,-0.866025403784438,0.));
#1045=DIRECTION('',(1.,0.,0.));
#1046=DIRECTION('',(0.5,0.866025403784439,0.));
#1047=DIRECTION('',(-0.5,0.866025403784439,0.));
#1048=DIRECTION('',(-1.,0.,0.));
#1049=DIRECTION('',(0.,0.,1.));
#1050=DIRECTION('',(1.,0.,0.));
#1051=DIRECTION('',(0.,0.,1.));
#1052=DIRECTION('',(1.,0.,0.));
#1053=DIRECTION('',(-1.,0.,0.));
#1054=DIRECTION('',(-0.5,-0.866025403784439,0.));
#1055=DIRECTION('',(0.5,-0.866025403784439,0.));
#1056=DIRECTION('',(1.,0.,0.));
#1057=DIRECTION('',(0.5,0.866025403784439,0.));
#1058=DIRECTION('',(-0.5,0.866025403784439,0.));
#1059=DIRECTION('',(0.,1.,0.));
#1060=DIRECTION('',(0.,0.,1.));
#1061=DIRECTION('',(0.,1.,0.));
#1062=DIRECTION('',(0.,1.,0.));
#1063=DIRECTION('',(0.,-1.,0.));
#1064=DIRECTION('',(0.,0.,-1.));
#1065=DIRECTION('',(0.,1.,0.));
#1066=DIRECTION('',(0.,-1.,0.));
#1067=DIRECTION('',(0.,0.,-1.));
#1068=DIRECTION('',(-1.,0.,0.));
#1069=DIRECTION('',(0.,0.,1.));
#1070=DIRECTION('',(0.,1.,0.));
#1071=DIRECTION('',(0.,0.,-1.));
#1072=DIRECTION('',(0.,0.,1.));
#1073=DIRECTION('',(-1.,0.,0.));
#1074=DIRECTION('',(0.,0.,1.));
#1075=DIRECTION('',(0.,0.,-1.));
#1076=DIRECTION('',(0.,1.,0.));
#1077=DIRECTION('',(0.,0.,1.));
#1078=DIRECTION('',(-1.,0.,0.));
#1079=DIRECTION('',(0.,0.,1.));
#1080=DIRECTION('',(0.,0.,-1.));
#1081=DIRECTION('',(0.,1.,0.));
#1082=DIRECTION('',(0.,0.,1.));
#1083=DIRECTION('',(0.,1.,0.));
#1084=DIRECTION('',(-1.,0.,0.));
#1085=DIRECTION('',(0.,0.,1.));
#1086=DIRECTION('',(0.,0.,-1.));
#1087=DIRECTION('',(0.,1.,0.));
#1088=DIRECTION('',(0.,0.,1.));
#1089=DIRECTION('',(0.,1.,0.));
#1090=DIRECTION('',(0.,1.,0.));
#1091=DIRECTION('',(0.,0.,1.));
#1092=DIRECTION('',(0.,-1.,0.));
#1093=DIRECTION('',(0.,0.,-1.));
#1094=DIRECTION('',(0.,1.,0.));
#1095=DIRECTION('',(0.,-1.,0.));
#1096=DIRECTION('',(0.,0.,-1.));
#1097=DIRECTION('',(0.,0.,1.));
#1098=DIRECTION('',(1.,0.,0.));
#1099=DIRECTION('',(0.,0.,1.));
#1100=DIRECTION('',(1.,0.,0.));
#1101=DIRECTION('',(0.,1.,0.));
#1102=DIRECTION('',(1.,0.,0.));
#1103=DIRECTION('',(-1.,0.,0.));
#1104=DIRECTION('',(0.,0.,1.));
#1105=DIRECTION('',(0.,0.,-1.));
#1106=DIRECTION('',(0.,1.,0.));
#1107=DIRECTION('',(0.,0.,1.));
#1108=DIRECTION('',(0.,1.,0.));
#1109=DIRECTION('',(-1.,0.,0.));
#1110=DIRECTION('',(0.,0.,1.));
#1111=DIRECTION('',(0.,0.,-1.));
#1112=DIRECTION('',(0.,1.,0.));
#1113=DIRECTION('',(0.,0.,1.));
#1114=DIRECTION('',(0.,1.,0.));
#1115=DIRECTION('',(0.,0.,1.));
#1116=DIRECTION('',(0.,-1.,0.));
#1117=DIRECTION('',(0.,0.,-1.));
#1118=DIRECTION('',(0.,1.,0.));
#1119=DIRECTION('',(0.,1.,0.));
#1120=DIRECTION('',(0.,-1.,0.));
#1121=DIRECTION('',(0.,0.,-1.));
#1122=DIRECTION('',(-1.,0.,0.));
#1123=DIRECTION('',(0.,0.,1.));
#1124=DIRECTION('',(0.,1.,0.));
#1125=DIRECTION('',(0.,0.,-1.));
#1126=DIRECTION('',(0.,0.,1.));
#1127=DIRECTION('',(-1.,0.,0.));
#1128=DIRECTION('',(0.,0.,1.));
#1129=DIRECTION('',(0.,0.,-1.));
#1130=DIRECTION('',(0.,1.,0.));
#1131=DIRECTION('',(0.,0.,1.));
#1132=DIRECTION('',(0.,0.,-1.));
#1133=DIRECTION('',(-1.,0.,0.));
#1134=DIRECTION('',(0.,0.,-1.));
#1135=DIRECTION('',(-1.,0.,0.));
#1136=DIRECTION('',(-1.,0.,0.));
#1137=DIRECTION('',(0.,1.,0.));
#1138=DIRECTION('',(0.,0.,1.));
#1139=DIRECTION('',(0.,1.,0.));
#1140=DIRECTION('',(0.,0.,1.));
#1141=DIRECTION('',(0.,1.,0.));
#1142=DIRECTION('',(0.,1.,0.));
#1143=DIRECTION('',(0.,0.,1.));
#1144=DIRECTION('',(0.,1.,0.));
#1145=DIRECTION('',(0.,1.,0.));
#1146=DIRECTION('',(0.,0.,1.));
#1147=DIRECTION('',(0.,-1.,0.));
#1148=DIRECTION('',(0.,0.,-1.));
#1149=DIRECTION('',(0.,-1.,0.));
#1150=DIRECTION('',(0.,0.,-1.));
#1151=DIRECTION('',(0.,1.,0.));
#1152=DIRECTION('',(0.,0.,1.));
#1153=DIRECTION('',(0.,-1.,0.));
#1154=DIRECTION('',(0.,0.,-1.));
#1155=DIRECTION('',(0.,-1.,0.));
#1156=DIRECTION('',(0.,0.,-1.));
#1157=DIRECTION('',(-0.648288973384031,0.,-0.761394383344584));
#1158=DIRECTION('',(-0.761394383344584,0.,0.648288973384031));
#1159=DIRECTION('',(-0.761394383344584,0.,0.648288973384031));
#1160=DIRECTION('',(0.,1.,0.));
#1161=DIRECTION('',(-0.761394383344584,0.,0.648288973384031));
#1162=DIRECTION('',(0.,0.,1.));
#1163=DIRECTION('',(1.,0.,0.));
#1164=DIRECTION('',(0.,0.,1.));
#1165=DIRECTION('',(1.,0.,0.));
#1166=DIRECTION('',(1.,0.,0.));
#1167=DIRECTION('',(1.,0.,0.));
#1168=DIRECTION('',(0.,1.,0.));
#1169=DIRECTION('',(1.,0.,0.));
#1170=DIRECTION('',(0.,0.,-1.));
#1171=DIRECTION('',(-1.,0.,0.));
#1172=DIRECTION('',(0.,0.,-1.));
#1173=DIRECTION('',(-1.,0.,0.));
#1174=DIRECTION('',(1.,0.,0.));
#1175=DIRECTION('',(0.,1.,0.));
#1176=DIRECTION('',(-1.,0.,0.));
#1177=DIRECTION('',(0.,1.,0.));
#1178=DIRECTION('',(1.,0.,0.));
#1179=DIRECTION('',(-0.648288973384031,0.,0.761394383344584));
#1180=DIRECTION('',(0.761394383344584,0.,0.648288973384031));
#1181=DIRECTION('',(0.761394383344584,0.,0.64828897338403));
#1182=DIRECTION('',(0.761394383344584,0.,0.64828897338403));
#1183=DIRECTION('',(0.,-1.,0.));
#1184=DIRECTION('',(1.,0.,0.));
#1185=DIRECTION('',(0.,-1.,0.));
#1186=DIRECTION('',(1.,0.,0.));
#1187=DIRECTION('',(1.92747052886312E-16,0.,-1.));
#1188=DIRECTION('',(0.,-1.,0.));
#1189=DIRECTION('',(0.,0.,-1.));
#1190=DIRECTION('',(6.42490176287706E-17,0.,-1.));
#1191=DIRECTION('',(0.,-1.,0.));
#1192=DIRECTION('',(1.,0.,0.));
#1193=DIRECTION('',(1.,0.,1.92747052886312E-16));
#1194=DIRECTION('',(1.92747052886312E-16,0.,-1.));
#1195=DIRECTION('',(1.92747052886312E-16,0.,-1.));
#1196=DIRECTION('',(0.,1.,0.));
#1197=DIRECTION('',(0.,1.,0.));
#1198=DIRECTION('',(0.,0.,1.));
#1199=DIRECTION('',(0.,-1.,0.));
#1200=DIRECTION('',(0.,0.,-1.));
#1201=DIRECTION('',(0.,1.,0.));
#1202=DIRECTION('',(1.,0.,6.42490176287706E-17));
#1203=DIRECTION('',(6.42490176287706E-17,0.,-1.));
#1204=DIRECTION('',(6.42490176287706E-17,0.,-1.));
#1205=DIRECTION('',(0.,-1.,0.));
#1206=DIRECTION('',(1.,0.,0.));
#1207=DIRECTION('',(0.,-1.,0.));
#1208=DIRECTION('',(0.,0.,-1.));
#1209=DIRECTION('',(0.,-1.,0.));
#1210=DIRECTION('',(0.,0.,-1.));
#1211=DIRECTION('',(0.,-1.,0.));
#1212=DIRECTION('',(1.,0.,0.));
#1213=DIRECTION('',(0.,-1.,0.));
#1214=DIRECTION('',(0.,0.,-1.));
#1215=DIRECTION('',(0.,-1.,0.));
#1216=DIRECTION('',(0.,0.,-1.));
#1217=DIRECTION('',(0.,-1.,0.));
#1218=DIRECTION('',(1.,0.,0.));
#1219=DIRECTION('',(0.,-1.,0.));
#1220=DIRECTION('',(0.,0.,-1.));
#1221=DIRECTION('',(0.,-1.,0.));
#1222=DIRECTION('',(0.,0.,-1.));
#1223=DIRECTION('',(0.,-1.,0.));
#1224=DIRECTION('',(1.,0.,0.));
#1225=DIRECTION('',(0.,0.,-1.));
#1226=DIRECTION('',(-1.,0.,0.));
#1227=DIRECTION('',(0.,0.,1.));
#1228=DIRECTION('',(1.,0.,0.));
#1229=DIRECTION('',(0.,0.,-1.));
#1230=DIRECTION('',(-1.,0.,0.));
#1231=DIRECTION('',(0.,0.,1.));
#1232=DIRECTION('',(1.,0.,0.));
#1233=DIRECTION('',(0.,0.,-1.));
#1234=DIRECTION('',(-1.,0.,0.));
#1235=DIRECTION('',(0.,0.,-1.));
#1236=DIRECTION('',(-1.,0.,0.));
#1237=DIRECTION('',(0.,1.,0.));
#1238=DIRECTION('',(0.,0.,1.));
#1239=DIRECTION('',(0.,0.,-1.));
#1240=DIRECTION('',(1.,0.,0.));
#1241=DIRECTION('',(0.,0.,-1.));
#1242=DIRECTION('',(-0.866025403784439,0.5,0.));
#1243=DIRECTION('',(-0.5,-0.866025403784439,0.));
#1244=DIRECTION('',(0.5,0.866025403784439,0.));
#1245=DIRECTION('',(0.,0.,-1.));
#1246=DIRECTION('',(-0.866025403784439,-0.5,0.));
#1247=DIRECTION('',(0.5,-0.866025403784439,0.));
#1248=DIRECTION('',(-0.5,0.866025403784439,0.));
#1249=DIRECTION('',(0.,0.,-1.));
#1250=DIRECTION('',(0.,-1.,0.));
#1251=DIRECTION('',(0.,0.,-1.));
#1252=DIRECTION('',(-1.,0.,0.));
#1253=DIRECTION('',(0.,0.,-1.));
#1254=DIRECTION('',(0.866025403784439,-0.5,0.));
#1255=DIRECTION('',(0.5,0.866025403784439,0.));
#1256=DIRECTION('',(-0.5,-0.866025403784439,0.));
#1257=DIRECTION('',(0.,0.,-1.));
#1258=DIRECTION('',(0.866025403784439,0.5,0.));
#1259=DIRECTION('',(-0.5,0.866025403784439,0.));
#1260=DIRECTION('',(0.5,-0.866025403784439,0.));
#1261=DIRECTION('',(0.,0.,1.));
#1262=DIRECTION('',(1.,0.,0.));
#1263=DIRECTION('',(-0.866025403784439,0.5,0.));
#1264=DIRECTION('',(-0.5,-0.866025403784439,0.));
#1265=DIRECTION('',(0.,0.,-1.));
#1266=DIRECTION('',(0.5,0.866025403784439,0.));
#1267=DIRECTION('',(0.,0.,-1.));
#1268=DIRECTION('',(-0.866025403784438,-0.5,0.));
#1269=DIRECTION('',(0.5,-0.866025403784438,0.));
#1270=DIRECTION('',(-0.5,0.866025403784438,0.));
#1271=DIRECTION('',(0.,0.,-1.));
#1272=DIRECTION('',(0.,-1.,0.));
#1273=DIRECTION('',(0.,0.,-1.));
#1274=DIRECTION('',(-1.,0.,0.));
#1275=DIRECTION('',(0.,0.,-1.));
#1276=DIRECTION('',(0.866025403784439,-0.5,0.));
#1277=DIRECTION('',(0.5,0.866025403784439,0.));
#1278=DIRECTION('',(-0.5,-0.866025403784439,0.));
#1279=DIRECTION('',(0.,0.,-1.));
#1280=DIRECTION('',(0.866025403784439,0.5,0.));
#1281=DIRECTION('',(-0.5,0.866025403784439,0.));
#1282=DIRECTION('',(0.5,-0.866025403784439,0.));
#1283=DIRECTION('',(0.,0.,-1.));
#1284=DIRECTION('',(0.,1.,0.));
#1285=DIRECTION('',(0.,0.,1.));
#1286=DIRECTION('',(1.,0.,0.));
#1287=DIRECTION('',(0.,0.,1.));
#1288=DIRECTION('',(1.,0.,0.));
#1289=CARTESIAN_POINT('',(0.,0.,0.));
#1290=CARTESIAN_POINT('',(0.,-0.0345,0.017));
#1291=CARTESIAN_POINT('',(0.013625,-0.0345,0.017));
#1292=CARTESIAN_POINT('',(0.018825,-0.0345,0.017));
#1293=CARTESIAN_POINT('',(0.01261875,-0.0417854387093366,0.017));
#1294=CARTESIAN_POINT('',(0.016825,-0.0345,0.017));
#1295=CARTESIAN_POINT('',(0.015225,-0.0372712812921102,0.017));
#1296=CARTESIAN_POINT('',(0.01261875,-0.0272145612906634,0.017));
#1297=CARTESIAN_POINT('',(0.015225,-0.0317287187078898,0.017));
#1298=CARTESIAN_POINT('',(0.,-0.0317287187078898,0.017));
#1299=CARTESIAN_POINT('',(0.012025,-0.0317287187078898,0.017));
#1300=CARTESIAN_POINT('',(0.00781875,-0.0390141574172264,0.017));
#1301=CARTESIAN_POINT('',(0.010425,-0.0345,0.017));
#1302=CARTESIAN_POINT('',(0.00781875,-0.0299858425827736,0.017));
#1303=CARTESIAN_POINT('',(0.012025,-0.0372712812921102,0.017));
#1304=CARTESIAN_POINT('',(0.,-0.0372712812921102,0.017));
#1305=CARTESIAN_POINT('',(0.,-0.0345,0.017));
#1306=CARTESIAN_POINT('',(-0.013625,-0.0345,0.017));
#1307=CARTESIAN_POINT('',(-0.008425,-0.0345,0.017));
#1308=CARTESIAN_POINT('',(0.,-0.0372712812921102,0.017));
#1309=CARTESIAN_POINT('',(-0.012025,-0.0372712812921102,0.017));
#1310=CARTESIAN_POINT('',(-0.015225,-0.0372712812921102,0.017));
#1311=CARTESIAN_POINT('',(-0.00781875,-0.0299858425827736,0.017));
#1312=CARTESIAN_POINT('',(-0.010425,-0.0345,0.017));
#1313=CARTESIAN_POINT('',(-0.00781875,-0.0390141574172264,0.017));
#1314=CARTESIAN_POINT('',(-0.012025,-0.0317287187078898,0.017));
#1315=CARTESIAN_POINT('',(0.,-0.0317287187078898,0.017));
#1316=CARTESIAN_POINT('',(-0.015225,-0.0317287187078898,0.017));
#1317=CARTESIAN_POINT('',(-0.01261875,-0.0272145612906634,0.017));
#1318=CARTESIAN_POINT('',(-0.016825,-0.0345,0.017));
#1319=CARTESIAN_POINT('',(-0.01261875,-0.0417854387093366,0.017));
#1320=CARTESIAN_POINT('',(1.12757025938492E-17,-0.0415,-1.56125112837912E-17));
#1321=CARTESIAN_POINT('',(-0.01225,-0.0415,0.0232728919560934));
#1322=CARTESIAN_POINT('',(-0.01225,-0.0294850847464788,0.0232728919560934));
#1323=CARTESIAN_POINT('',(-0.01225,-0.005,0.0232728919560934));
#1324=CARTESIAN_POINT('',(-0.01225,-0.0395149152535213,0.0232728919560934));
#1325=CARTESIAN_POINT('',(-0.0130368551953498,-0.0397306568640791,0.022858720130726));
#1326=CARTESIAN_POINT('',(-0.0145992542630919,-0.0397736552976992,0.0219321409339227));
#1327=CARTESIAN_POINT('',(-0.0167058729044801,-0.0388879825328158,0.0203622284513219));
#1328=CARTESIAN_POINT('',(-0.0180394324991471,-0.037459184110955,0.0191516509191675));
#1329=CARTESIAN_POINT('',(-0.0187006094984037,-0.0358702652623173,0.0184946450337086));
#1330=CARTESIAN_POINT('',(-0.0188860692473178,-0.0345084095581379,0.0183028129302809));
#1331=CARTESIAN_POINT('',(-0.0187050730610969,-0.0331463374746208,0.0184900498036996));
#1332=CARTESIAN_POINT('',(-0.0180480253791104,-0.0315519861787278,0.0191436061978897));
#1333=CARTESIAN_POINT('',(-0.0167101963132463,-0.0301162914154607,0.0203582006353267));
#1334=CARTESIAN_POINT('',(-0.0146179263310811,-0.0292287794855381,0.0219200520417398));
#1335=CARTESIAN_POINT('',(-0.0130368284146076,-0.029269350478721,0.0228587342271302));
#1336=CARTESIAN_POINT('',(-0.01225,-0.0294850847464788,0.0232728919560934));
#1337=CARTESIAN_POINT('',(-0.01225,-0.0395149152535213,0.0232728919560934));
#1338=CARTESIAN_POINT('',(-0.01225,-0.0415,0.0232728919560934));
#1339=CARTESIAN_POINT('',(-0.01225,-0.0415,0.0232728919560934));
#1340=CARTESIAN_POINT('',(1.12757025938492E-17,-0.0415,-1.56125112837912E-17));
#1341=CARTESIAN_POINT('',(-0.0200246722819626,-0.0415,0.01705));
#1342=CARTESIAN_POINT('',(-0.0200246722819626,-0.0415,0.01705));
#1343=CARTESIAN_POINT('',(-0.0200246722819626,-0.005,0.01705));
#1344=CARTESIAN_POINT('',(1.12757025938492E-17,-0.005,-1.56125112837912E-17));
#1345=CARTESIAN_POINT('',(-0.01225,-0.0415,0.0201614459780468));
#1346=CARTESIAN_POINT('',(-0.01225,-0.0415,0.01705));
#1347=CARTESIAN_POINT('',(-0.01225,-0.0294850847464788,0.01705));
#1348=CARTESIAN_POINT('',(-0.01225,-0.005,0.01705));
#1349=CARTESIAN_POINT('',(-0.01225,-0.0294850847464788,0.028552));
#1350=CARTESIAN_POINT('',(-0.01225,-0.005,0.0201614459780468));
#1351=CARTESIAN_POINT('',(-0.01225,-0.0415,0.0201614459780468));
#1352=CARTESIAN_POINT('',(-0.01225,-0.0395149152535213,0.028552));
#1353=CARTESIAN_POINT('',(-0.01225,-0.0395149152535213,0.01705));
#1354=CARTESIAN_POINT('',(-0.01225,-0.0415,0.01705));
#1355=CARTESIAN_POINT('',(-0.01225,-0.0415,0.01705));
#1356=CARTESIAN_POINT('',(-0.01225,-0.0415,0.0201614459780468));
#1357=CARTESIAN_POINT('',(0.01225,-0.0415,0.0201614459780468));
#1358=CARTESIAN_POINT('',(0.01225,-0.0294850847464788,0.028552));
#1359=CARTESIAN_POINT('',(0.01225,-0.0294850847464788,0.0232728919560934));
#1360=CARTESIAN_POINT('',(0.01225,-0.0294850847464788,0.01705));
#1361=CARTESIAN_POINT('',(0.01225,-0.0415,0.01705));
#1362=CARTESIAN_POINT('',(0.01225,-0.005,0.01705));
#1363=CARTESIAN_POINT('',(0.01225,-0.005,0.0201614459780468));
#1364=CARTESIAN_POINT('',(0.01225,-0.005,0.0232728919560934));
#1365=CARTESIAN_POINT('',(0.01225,-0.0415,0.0232728919560934));
#1366=CARTESIAN_POINT('',(0.01225,-0.0415,0.0201614459780468));
#1367=CARTESIAN_POINT('',(0.01225,-0.0395149152535213,0.028552));
#1368=CARTESIAN_POINT('',(0.01225,-0.0395149152535213,0.01705));
#1369=CARTESIAN_POINT('',(0.01225,-0.0395149152535213,0.0232728919560934));
#1370=CARTESIAN_POINT('',(0.01225,-0.0415,0.0232728919560934));
#1371=CARTESIAN_POINT('',(0.01225,-0.0415,0.0232728919560934));
#1372=CARTESIAN_POINT('',(0.01225,-0.0415,0.0201614459780468));
#1373=CARTESIAN_POINT('',(0.01225,-0.0415,0.01705));
#1374=CARTESIAN_POINT('',(0.01225,-0.0415,0.01705));
#1375=CARTESIAN_POINT('',(6.07153216591882E-18,-0.0415,3.29597460435593E-17));
#1376=CARTESIAN_POINT('',(0.01225,-0.0294850847464788,0.0232728919560934));
#1377=CARTESIAN_POINT('',(0.0130368551953498,-0.0292693431359209,0.022858720130726));
#1378=CARTESIAN_POINT('',(0.0145992542630919,-0.0292263447023008,0.0219321409339228));
#1379=CARTESIAN_POINT('',(0.0167058729044801,-0.0301120174671843,0.0203622284513219));
#1380=CARTESIAN_POINT('',(0.0180394324991471,-0.0315408158890451,0.0191516509191676));
#1381=CARTESIAN_POINT('',(0.0187006094984037,-0.0331297347376827,0.0184946450337087));
#1382=CARTESIAN_POINT('',(0.0188860692473178,-0.0344915904418621,0.018302812930281));
#1383=CARTESIAN_POINT('',(0.0187050730610969,-0.0358536625253791,0.0184900498036996));
#1384=CARTESIAN_POINT('',(0.0180480253791104,-0.0374480138212722,0.0191436061978897));
#1385=CARTESIAN_POINT('',(0.0167101963132464,-0.0388837085845393,0.0203582006353267));
#1386=CARTESIAN_POINT('',(0.0146179263310812,-0.0397712205144619,0.0219200520417398));
#1387=CARTESIAN_POINT('',(0.0130368284146076,-0.039730649521279,0.0228587342271302));
#1388=CARTESIAN_POINT('',(0.01225,-0.0395149152535213,0.0232728919560934));
#1389=CARTESIAN_POINT('',(1.12757025938492E-17,-0.005,-1.56125112837912E-17));
#1390=CARTESIAN_POINT('',(0.0200246722819626,-0.005,0.01705));
#1391=CARTESIAN_POINT('',(0.0200246722819626,-0.0415,0.01705));
#1392=CARTESIAN_POINT('',(0.0200246722819626,-0.0415,0.01705));
#1393=CARTESIAN_POINT('',(6.07153216591882E-18,-0.0415,3.29597460435593E-17));
#1394=CARTESIAN_POINT('',(-0.011125,-0.0415,0.01705));
#1395=CARTESIAN_POINT('',(-0.013625,-0.0345,0.01705));
#1396=CARTESIAN_POINT('',(-0.01,-0.0382281865564909,0.01705));
#1397=CARTESIAN_POINT('',(-0.01,-0.0415,0.01705));
#1398=CARTESIAN_POINT('',(-0.01,-0.0415,0.01705));
#1399=CARTESIAN_POINT('',(-0.011125,-0.0415,0.01705));
#1400=CARTESIAN_POINT('',(-0.01,-0.0415,0.0206873394131228));
#1401=CARTESIAN_POINT('',(-0.01,-0.0307718134435091,0.028552));
#1402=CARTESIAN_POINT('',(-0.01,-0.0307718134435091,0.0243246788262456));
#1403=CARTESIAN_POINT('',(-0.01,-0.0307718134435091,0.01705));
#1404=CARTESIAN_POINT('',(-0.01,-0.0415,0.01705));
#1405=CARTESIAN_POINT('',(-0.01,-0.005,0.01705));
#1406=CARTESIAN_POINT('',(-0.01,-0.005,0.0206873394131228));
#1407=CARTESIAN_POINT('',(-0.01,-0.005,0.0243246788262456));
#1408=CARTESIAN_POINT('',(-0.01,-0.0415,0.0243246788262456));
#1409=CARTESIAN_POINT('',(-0.01,-0.0415,0.0206873394131228));
#1410=CARTESIAN_POINT('',(-0.01,-0.0382281865564909,0.028552));
#1411=CARTESIAN_POINT('',(-0.01,-0.0382281865564909,0.0243246788262456));
#1412=CARTESIAN_POINT('',(-0.01,-0.0415,0.0243246788262456));
#1413=CARTESIAN_POINT('',(-0.01,-0.0415,0.0243246788262456));
#1414=CARTESIAN_POINT('',(-0.01,-0.0415,0.0206873394131228));
#1415=CARTESIAN_POINT('',(-1.0321604682062E-16,-0.0415,4.68375338513738E-16));
#1416=CARTESIAN_POINT('',(-0.01,-0.0307718134435091,0.0243246788262456));
#1417=CARTESIAN_POINT('',(-0.00951272068804645,-0.0312456061250357,0.024525001846103));
#1418=CARTESIAN_POINT('',(-0.00871654366741932,-0.0323943587597812,0.0248182070824692));
#1419=CARTESIAN_POINT('',(-0.00827937491620296,-0.0344991943696082,0.0249619037346901));
#1420=CARTESIAN_POINT('',(-0.00871595694319109,-0.0366047181196092,0.0248184161851939));
#1421=CARTESIAN_POINT('',(-0.00951270520483197,-0.0377543788202851,0.0245250082113318));
#1422=CARTESIAN_POINT('',(-0.01,-0.0382281865564909,0.0243246788262456));
#1423=CARTESIAN_POINT('',(1.12757025938492E-17,-0.005,-1.56125112837912E-17));
#1424=CARTESIAN_POINT('',(0.01,-0.005,0.0243246788262456));
#1425=CARTESIAN_POINT('',(0.01,-0.0415,0.0243246788262456));
#1426=CARTESIAN_POINT('',(0.01,-0.0307718134435091,0.0243246788262456));
#1427=CARTESIAN_POINT('',(0.01,-0.0382281865564909,0.0243246788262455));
#1428=CARTESIAN_POINT('',(0.00951272068804645,-0.0377543938749643,0.0245250018461029));
#1429=CARTESIAN_POINT('',(0.00871654366741931,-0.0366056412402188,0.0248182070824691));
#1430=CARTESIAN_POINT('',(0.00827937491620297,-0.0345008056303918,0.02496190373469));
#1431=CARTESIAN_POINT('',(0.00871595694319109,-0.0323952818803909,0.0248184161851938));
#1432=CARTESIAN_POINT('',(0.00951270520483197,-0.0312456211797149,0.0245250082113317));
#1433=CARTESIAN_POINT('',(0.01,-0.0307718134435091,0.0243246788262455));
#1434=CARTESIAN_POINT('',(0.01,-0.0382281865564909,0.0243246788262455));
#1435=CARTESIAN_POINT('',(0.01,-0.0415,0.0243246788262456));
#1436=CARTESIAN_POINT('',(0.01,-0.0415,0.0243246788262456));
#1437=CARTESIAN_POINT('',(-1.0321604682062E-16,-0.0415,4.68375338513738E-16));
#1438=CARTESIAN_POINT('',(0.01,-0.0415,0.0206873394131228));
#1439=CARTESIAN_POINT('',(0.01,-0.0415,0.01705));
#1440=CARTESIAN_POINT('',(0.01,-0.0307718134435091,0.01705));
#1441=CARTESIAN_POINT('',(0.01,-0.005,0.01705));
#1442=CARTESIAN_POINT('',(0.01,-0.0307718134435091,0.028552));
#1443=CARTESIAN_POINT('',(0.01,-0.005,0.0206873394131228));
#1444=CARTESIAN_POINT('',(0.01,-0.0415,0.0206873394131228));
#1445=CARTESIAN_POINT('',(0.01,-0.038228186556491,0.028552));
#1446=CARTESIAN_POINT('',(0.01,-0.038228186556491,0.01705));
#1447=CARTESIAN_POINT('',(0.01,-0.0415,0.01705));
#1448=CARTESIAN_POINT('',(0.01,-0.0415,0.01705));
#1449=CARTESIAN_POINT('',(0.01,-0.0415,0.0206873394131228));
#1450=CARTESIAN_POINT('',(0.011125,-0.0415,0.01705));
#1451=CARTESIAN_POINT('',(0.013625,-0.0345,0.01705));
#1452=CARTESIAN_POINT('',(0.011125,-0.0415,0.01705));
#1453=CARTESIAN_POINT('',(0.,-0.0415,0.));
#1454=CARTESIAN_POINT('',(0.,0.,0.));
#1455=CARTESIAN_POINT('',(0.0217378096444879,0.,0.0185086501901141));
#1456=CARTESIAN_POINT('',(-0.0217378096444879,0.,0.0185086501901141));
#1457=CARTESIAN_POINT('',(-0.0217378096444879,-0.0415,0.0185086501901141));
#1458=CARTESIAN_POINT('',(-0.0217378096444879,-0.0415,0.0185086501901141));
#1459=CARTESIAN_POINT('',(0.,-0.0415,0.));
#1460=CARTESIAN_POINT('',(0.0217378096444879,-0.0415,0.0185086501901141));
#1461=CARTESIAN_POINT('',(0.0217378096444879,-0.0415,0.0185086501901141));
#1462=CARTESIAN_POINT('',(0.0123647553051536,-0.0330920316723016,0.0257421736066103));
#1463=CARTESIAN_POINT('',(0.0117056627479293,-0.0345003938072046,0.0260390235366779));
#1464=CARTESIAN_POINT('',(0.0123625937031292,-0.0359063930988799,0.0257432675128145));
#1465=CARTESIAN_POINT('',(0.0136591433909613,-0.0363538924031127,0.025086506987177));
#1466=CARTESIAN_POINT('',(0.0146802467586144,-0.0359566169401286,0.0244915246338187));
#1467=CARTESIAN_POINT('',(0.015220460569377,-0.0352151221204669,0.0241552271537722));
#1468=CARTESIAN_POINT('',(0.0153765983867336,-0.0345044327000659,0.0240552850060502));
#1469=CARTESIAN_POINT('',(0.0152231205202233,-0.0337898938164368,0.0241535334112845));
#1470=CARTESIAN_POINT('',(0.014683631130335,-0.0330449348784079,0.0244895349509706));
#1471=CARTESIAN_POINT('',(0.0136565433619507,-0.0326460196450158,0.0250879469361845));
#1472=CARTESIAN_POINT('',(0.0123647553051536,-0.0330920316723016,0.0257421736066103));
#1473=CARTESIAN_POINT('',(0.0117056627479293,-0.0345003938072046,0.0260390235366779));
#1474=CARTESIAN_POINT('',(0.0123625937031292,-0.0359063930988799,0.0257432675128145));
#1475=CARTESIAN_POINT('',(0.011925,-0.0345,0.0259402558776894));
#1476=CARTESIAN_POINT('',(-0.0152194853757928,-0.0337821661485882,0.0241558315658585));
#1477=CARTESIAN_POINT('',(-0.0153773803833014,-0.0345011243860766,0.0240547950266088));
#1478=CARTESIAN_POINT('',(-0.0152209930910015,-0.0352133363071055,0.0241548727807148));
#1479=CARTESIAN_POINT('',(-0.0146835458293541,-0.03595452822522,0.0244895661508969));
#1480=CARTESIAN_POINT('',(-0.0136561203431253,-0.0363538749516336,0.0250881357642277));
#1481=CARTESIAN_POINT('',(-0.0123677337712243,-0.0359089968898013,0.0257407282434187));
#1482=CARTESIAN_POINT('',(-0.0117056620749684,-0.0345062166547383,0.0260390365729883));
#1483=CARTESIAN_POINT('',(-0.0123596598369197,-0.0330953755371647,0.025744641465215));
#1484=CARTESIAN_POINT('',(-0.0136577904940071,-0.0326445791896007,0.025087352207112));
#1485=CARTESIAN_POINT('',(-0.014682667985524,-0.0330466938011021,0.0244900474378816));
#1486=CARTESIAN_POINT('',(-0.0152194853757928,-0.0337821661485882,0.0241558315658585));
#1487=CARTESIAN_POINT('',(-0.0153773803833014,-0.0345011243860766,0.0240547950266088));
#1488=CARTESIAN_POINT('',(-0.0152209930910015,-0.0352133363071055,0.0241548727807148));
#1489=CARTESIAN_POINT('',(-0.015325,-0.0345,0.0240883140755014));
#1490=CARTESIAN_POINT('',(9.54097911787244E-18,-0.005,-0.02325));
#1491=CARTESIAN_POINT('',(9.54097911787244E-18,0.,-0.02325));
#1492=CARTESIAN_POINT('',(9.54097911787244E-18,0.,-0.02495));
#1493=CARTESIAN_POINT('',(9.54097911787244E-18,-0.0032,-0.02325));
#1494=CARTESIAN_POINT('',(9.54097911787244E-18,-0.0032,-0.02495));
#1495=CARTESIAN_POINT('',(4.11996825544492E-18,-0.005,0.02175));
#1496=CARTESIAN_POINT('',(4.11996825544492E-18,0.,0.02175));
#1497=CARTESIAN_POINT('',(4.11996825544492E-18,0.,0.02005));
#1498=CARTESIAN_POINT('',(4.11996825544492E-18,-0.0032,0.02175));
#1499=CARTESIAN_POINT('',(4.11996825544492E-18,-0.0032,0.02005));
#1500=CARTESIAN_POINT('',(-0.0208812409632252,-0.0415,0.017779325095057));
#1501=CARTESIAN_POINT('',(-0.0208812409632252,0.,0.017779325095057));
#1502=CARTESIAN_POINT('',(-0.0200246722819626,0.,0.01705));
#1503=CARTESIAN_POINT('',(-0.0200246722819626,-0.005,0.01705));
#1504=CARTESIAN_POINT('',(-0.0208812409632252,-0.0415,0.017779325095057));
#1505=CARTESIAN_POINT('',(-0.011125,-0.0415,0.01705));
#1506=CARTESIAN_POINT('',(-0.013625,-0.0345,0.01705));
#1507=CARTESIAN_POINT('',(-0.0161373361409813,-0.005,0.01705));
#1508=CARTESIAN_POINT('',(-0.011125,0.,0.01705));
#1509=CARTESIAN_POINT('',(-0.005,0.,0.01705));
#1510=CARTESIAN_POINT('',(-0.005,-0.005,0.01705));
#1511=CARTESIAN_POINT('',(-0.005,-0.005,0.01705));
#1512=CARTESIAN_POINT('',(-0.0161373361409813,-0.005,0.01705));
#1513=CARTESIAN_POINT('',(0.011125,-0.0415,0.01705));
#1514=CARTESIAN_POINT('',(0.013625,-0.0345,0.01705));
#1515=CARTESIAN_POINT('',(0.0075,-0.005,0.01705));
#1516=CARTESIAN_POINT('',(0.005,-0.005,0.01705));
#1517=CARTESIAN_POINT('',(0.005,-0.005,0.01705));
#1518=CARTESIAN_POINT('',(0.005,0.,0.01705));
#1519=CARTESIAN_POINT('',(0.011125,0.,0.01705));
#1520=CARTESIAN_POINT('',(0.0200246722819626,0.,0.01705));
#1521=CARTESIAN_POINT('',(0.0200246722819626,-0.005,0.01705));
#1522=CARTESIAN_POINT('',(0.0075,-0.005,0.01705));
#1523=CARTESIAN_POINT('',(0.0208812409632252,-0.0415,0.017779325095057));
#1524=CARTESIAN_POINT('',(0.0208812409632252,0.,0.017779325095057));
#1525=CARTESIAN_POINT('',(0.0208812409632252,-0.0415,0.017779325095057));
#1526=CARTESIAN_POINT('',(0.00446627475321293,-0.0415,0.00920568608343601));
#1527=CARTESIAN_POINT('',(0.00446627475321293,0.,0.00920568608343601));
#1528=CARTESIAN_POINT('',(0.005,0.,-0.0032));
#1529=CARTESIAN_POINT('',(0.005,0.,-0.02345));
#1530=CARTESIAN_POINT('',(1.56125112837912E-17,0.,-0.02345));
#1531=CARTESIAN_POINT('',(-0.005,0.,-0.02345));
#1532=CARTESIAN_POINT('',(-0.005,0.,-0.0032));
#1533=CARTESIAN_POINT('',(0.00446627475321293,-0.005,0.00920568608343601));
#1534=CARTESIAN_POINT('',(0.005,-0.005,-0.0032));
#1535=CARTESIAN_POINT('',(0.005,-0.005,-0.0032));
#1536=CARTESIAN_POINT('',(0.005,-0.005,-0.02345));
#1537=CARTESIAN_POINT('',(0.005,-0.005,-0.02345));
#1538=CARTESIAN_POINT('',(1.56125112837912E-17,-0.005,-0.02345));
#1539=CARTESIAN_POINT('',(1.56125112837912E-17,-0.005,-0.02345));
#1540=CARTESIAN_POINT('',(-0.005,-0.005,-0.02345));
#1541=CARTESIAN_POINT('',(-0.005,-0.005,-0.02345));
#1542=CARTESIAN_POINT('',(-0.005,-0.005,-0.0032));
#1543=CARTESIAN_POINT('',(-0.005,-0.005,-0.0032));
#1544=CARTESIAN_POINT('',(0.00446627475321293,-0.005,0.00920568608343601));
#1545=CARTESIAN_POINT('',(3.90312782094781E-18,-0.005,0.02175));
#1546=CARTESIAN_POINT('',(3.90312782094781E-18,-0.005,0.01855));
#1547=CARTESIAN_POINT('',(6.82697833617076E-18,-0.005,-0.02325));
#1548=CARTESIAN_POINT('',(6.82697833617076E-18,-0.005,-0.02645));
#1549=CARTESIAN_POINT('',(0.00446627475321293,-0.005,0.00920568608343601));
#1550=CARTESIAN_POINT('',(6.82697833617076E-18,-0.0032,-0.02325));
#1551=CARTESIAN_POINT('',(6.82697833617076E-18,-0.0032,-0.02325));
#1552=CARTESIAN_POINT('',(6.82697833617076E-18,-0.0032,-0.02645));
#1553=CARTESIAN_POINT('',(0.00446627475321293,-0.0032,0.00920568608343601));
#1554=CARTESIAN_POINT('',(3.90312782094781E-18,-0.0032,0.02175));
#1555=CARTESIAN_POINT('',(3.90312782094781E-18,-0.0032,0.02175));
#1556=CARTESIAN_POINT('',(3.90312782094781E-18,-0.0032,0.01855));
#1557=CARTESIAN_POINT('',(0.00446627475321293,-0.0032,0.00920568608343601));
#1558=CARTESIAN_POINT('',(0.013625,-0.0345,0.10953690308778));
#1559=CARTESIAN_POINT('',(0.013625,-0.0345,0.0196));
#1560=CARTESIAN_POINT('',(0.015325,-0.0345,0.0196));
#1561=CARTESIAN_POINT('',(-0.013625,-0.0345,0.10953690308778));
#1562=CARTESIAN_POINT('',(-0.013625,-0.0345,0.0196));
#1563=CARTESIAN_POINT('',(-0.011925,-0.0345,0.0196));
#1564=CARTESIAN_POINT('',(0.013625,-0.0345,0.028552));
#1565=CARTESIAN_POINT('',(-0.013625,-0.0345,0.028552));
#1566=CARTESIAN_POINT('',(-0.013625,-0.0372712812921102,0.0196));
#1567=CARTESIAN_POINT('',(-0.015225,-0.0372712812921102,0.0196));
#1568=CARTESIAN_POINT('',(-0.015225,-0.0372712812921102,0.0196));
#1569=CARTESIAN_POINT('',(-0.013625,-0.0372712812921102,0.0196));
#1570=CARTESIAN_POINT('',(-0.012025,-0.0372712812921102,0.0196));
#1571=CARTESIAN_POINT('',(-0.012025,-0.0372712812921102,0.0196));
#1572=CARTESIAN_POINT('',(-0.011225,-0.0358856406460551,0.0196));
#1573=CARTESIAN_POINT('',(-0.011225,-0.0358856406460551,0.0196));
#1574=CARTESIAN_POINT('',(-0.010425,-0.0345,0.0196));
#1575=CARTESIAN_POINT('',(-0.010425,-0.0345,0.0196));
#1576=CARTESIAN_POINT('',(-0.011225,-0.0331143593539449,0.0196));
#1577=CARTESIAN_POINT('',(-0.011225,-0.0331143593539449,0.0196));
#1578=CARTESIAN_POINT('',(-0.012025,-0.0317287187078898,0.0196));
#1579=CARTESIAN_POINT('',(-0.012025,-0.0317287187078898,0.0196));
#1580=CARTESIAN_POINT('',(-0.013625,-0.0317287187078898,0.0196));
#1581=CARTESIAN_POINT('',(-0.013625,-0.0317287187078898,0.0196));
#1582=CARTESIAN_POINT('',(-0.015225,-0.0317287187078898,0.0196));
#1583=CARTESIAN_POINT('',(-0.015225,-0.0317287187078898,0.0196));
#1584=CARTESIAN_POINT('',(-0.016025,-0.0331143593539449,0.0196));
#1585=CARTESIAN_POINT('',(-0.016025,-0.0331143593539449,0.0196));
#1586=CARTESIAN_POINT('',(-0.016825,-0.0345,0.0196));
#1587=CARTESIAN_POINT('',(-0.016825,-0.0345,0.0196));
#1588=CARTESIAN_POINT('',(-0.016025,-0.0358856406460551,0.0196));
#1589=CARTESIAN_POINT('',(-0.016025,-0.0358856406460551,0.0196));
#1590=CARTESIAN_POINT('',(0.,-0.0345,0.0196));
#1591=CARTESIAN_POINT('',(0.016025,-0.0358856406460551,0.0196));
#1592=CARTESIAN_POINT('',(0.015225,-0.0372712812921102,0.0196));
#1593=CARTESIAN_POINT('',(0.015225,-0.0372712812921102,0.0196));
#1594=CARTESIAN_POINT('',(0.016025,-0.0358856406460551,0.0196));
#1595=CARTESIAN_POINT('',(0.016825,-0.0345,0.0196));
#1596=CARTESIAN_POINT('',(0.016825,-0.0345,0.0196));
#1597=CARTESIAN_POINT('',(0.016025,-0.0331143593539449,0.0196));
#1598=CARTESIAN_POINT('',(0.016025,-0.0331143593539449,0.0196));
#1599=CARTESIAN_POINT('',(0.015225,-0.0317287187078898,0.0196));
#1600=CARTESIAN_POINT('',(0.015225,-0.0317287187078898,0.0196));
#1601=CARTESIAN_POINT('',(0.013625,-0.0317287187078898,0.0196));
#1602=CARTESIAN_POINT('',(0.013625,-0.0317287187078898,0.0196));
#1603=CARTESIAN_POINT('',(0.012025,-0.0317287187078898,0.0196));
#1604=CARTESIAN_POINT('',(0.012025,-0.0317287187078898,0.0196));
#1605=CARTESIAN_POINT('',(0.011225,-0.0331143593539449,0.0196));
#1606=CARTESIAN_POINT('',(0.011225,-0.0331143593539449,0.0196));
#1607=CARTESIAN_POINT('',(0.010425,-0.0345,0.0196));
#1608=CARTESIAN_POINT('',(0.010425,-0.0345,0.0196));
#1609=CARTESIAN_POINT('',(0.011225,-0.0358856406460551,0.0196));
#1610=CARTESIAN_POINT('',(0.011225,-0.0358856406460551,0.0196));
#1611=CARTESIAN_POINT('',(0.012025,-0.0372712812921102,0.0196));
#1612=CARTESIAN_POINT('',(0.012025,-0.0372712812921102,0.0196));
#1613=CARTESIAN_POINT('',(0.013625,-0.0372712812921102,0.0196));
#1614=CARTESIAN_POINT('',(0.013625,-0.0372712812921102,0.0196));
#1615=CARTESIAN_POINT('',(0.,-0.0345,0.0196));
#1616=MECHANICAL_DESIGN_GEOMETRIC_PRESENTATION_REPRESENTATION('',(#947),
#1617);
#1617=(
GEOMETRIC_REPRESENTATION_CONTEXT(3)
GLOBAL_UNCERTAINTY_ASSIGNED_CONTEXT((#1618))
GLOBAL_UNIT_ASSIGNED_CONTEXT((#1621,#1620,#1619))
REPRESENTATION_CONTEXT('Part 2','TOP_LEVEL_ASSEMBLY_PART')
);
#1618=UNCERTAINTY_MEASURE_WITH_UNIT(LENGTH_MEASURE(2.E-5),#1621,
'DISTANCE_ACCURACY_VALUE','Maximum Tolerance applied to model');
#1619=(
NAMED_UNIT(*)
SI_UNIT($,.STERADIAN.)
SOLID_ANGLE_UNIT()
);
#1620=(
NAMED_UNIT(*)
PLANE_ANGLE_UNIT()
SI_UNIT($,.RADIAN.)
);
#1621=(
LENGTH_UNIT()
NAMED_UNIT(*)
SI_UNIT($,.METRE.)
);
#1622=PRODUCT_DEFINITION_SHAPE('','',#1623);
#1623=PRODUCT_DEFINITION('','',#1625,#1624);
#1624=PRODUCT_DEFINITION_CONTEXT('',#1631,'design');
#1625=PRODUCT_DEFINITION_FORMATION_WITH_SPECIFIED_SOURCE('','',#1627,
 .NOT_KNOWN.);
#1626=PRODUCT_RELATED_PRODUCT_CATEGORY('','',(#1627));
#1627=PRODUCT('Part 2','Part 2','Part 2',(#1629));
#1628=PRODUCT_CATEGORY('','');
#1629=PRODUCT_CONTEXT('',#1631,'mechanical');
#1630=APPLICATION_PROTOCOL_DEFINITION('international standard',
'ap242_managed_model_based_3d_engineering',2020,#1631);
#1631=APPLICATION_CONTEXT('managed model based 3d engineering');
ENDSEC;
END-ISO-10303-21;
