ISO-10303-21;
HEADER;
/* Generated by software containing ST-Developer
 * from STEP Tools, Inc. (www.steptools.com) 
 */
/* OPTION: using custom renumber hook */

FILE_DESCRIPTION(
/* description */ ('STEP AP242 Edition 2',
'CAx-IF Rec.Pracs.---Representation and Presentation of Product Manufa
cturing Information (PMI)---4.0---2014-10-13',
'CAx-IF Rec.Pracs.---3D Tessellated Geometry---0.4---2014-09-14','2;1',
'CAx-IF Rec.Pracs.---User Defined Attributes---1.5---2016-08-15'),
/* implementation_level */ '2;1');

FILE_NAME(
/* name */ 'stalk_rod_80mm',
/* time_stamp */ '2026-08-28T06:29:45Z',
/* author */ (''),
/* organization */ (''),
/* preprocessor_version */ 'ST-DEVELOPER v20',
/* originating_system */ 'ONSHAPE BY PTC INC, 1.219',
/* authorisation */ '  ');

FILE_SCHEMA (('AP242_MANAGED_MODEL_BASED_3D_ENGINEERING_MIM_LF { 1 0 10303 442 3 1 4 }'));
ENDSEC;

DATA;
#10=SHAPE_REPRESENTATION_RELATIONSHIP('','',#411,#11);
#11=ADVANCED_BREP_SHAPE_REPRESENTATION('',(#409),#653);
#12=CYLINDRICAL_SURFACE('',#422,0.0013);
#13=CYLINDRICAL_SURFACE('',#424,0.0013);
#14=CIRCLE('',#415,0.0013);
#15=CIRCLE('',#416,0.0013);
#16=CIRCLE('',#423,0.0013);
#17=CIRCLE('',#425,0.0013);
#18=ORIENTED_EDGE('',*,*,#122,.T.);
#19=ORIENTED_EDGE('',*,*,#123,.T.);
#20=ORIENTED_EDGE('',*,*,#124,.T.);
#21=ORIENTED_EDGE('',*,*,#125,.T.);
#22=ORIENTED_EDGE('',*,*,#126,.T.);
#23=ORIENTED_EDGE('',*,*,#127,.T.);
#24=ORIENTED_EDGE('',*,*,#128,.F.);
#25=ORIENTED_EDGE('',*,*,#129,.T.);
#26=ORIENTED_EDGE('',*,*,#130,.F.);
#27=ORIENTED_EDGE('',*,*,#131,.F.);
#28=ORIENTED_EDGE('',*,*,#124,.F.);
#29=ORIENTED_EDGE('',*,*,#132,.T.);
#30=ORIENTED_EDGE('',*,*,#133,.T.);
#31=ORIENTED_EDGE('',*,*,#134,.T.);
#32=ORIENTED_EDGE('',*,*,#135,.F.);
#33=ORIENTED_EDGE('',*,*,#136,.T.);
#34=ORIENTED_EDGE('',*,*,#137,.T.);
#35=ORIENTED_EDGE('',*,*,#138,.T.);
#36=ORIENTED_EDGE('',*,*,#139,.T.);
#37=ORIENTED_EDGE('',*,*,#140,.T.);
#38=ORIENTED_EDGE('',*,*,#141,.T.);
#39=ORIENTED_EDGE('',*,*,#142,.T.);
#40=ORIENTED_EDGE('',*,*,#143,.T.);
#41=ORIENTED_EDGE('',*,*,#144,.T.);
#42=ORIENTED_EDGE('',*,*,#145,.T.);
#43=ORIENTED_EDGE('',*,*,#146,.T.);
#44=ORIENTED_EDGE('',*,*,#147,.F.);
#45=ORIENTED_EDGE('',*,*,#148,.T.);
#46=ORIENTED_EDGE('',*,*,#128,.T.);
#47=ORIENTED_EDGE('',*,*,#149,.T.);
#48=ORIENTED_EDGE('',*,*,#150,.T.);
#49=ORIENTED_EDGE('',*,*,#151,.F.);
#50=ORIENTED_EDGE('',*,*,#133,.F.);
#51=ORIENTED_EDGE('',*,*,#152,.T.);
#52=ORIENTED_EDGE('',*,*,#130,.T.);
#53=ORIENTED_EDGE('',*,*,#153,.F.);
#54=ORIENTED_EDGE('',*,*,#131,.T.);
#55=ORIENTED_EDGE('',*,*,#154,.F.);
#56=ORIENTED_EDGE('',*,*,#134,.F.);
#57=ORIENTED_EDGE('',*,*,#151,.T.);
#58=ORIENTED_EDGE('',*,*,#155,.T.);
#59=ORIENTED_EDGE('',*,*,#156,.F.);
#60=ORIENTED_EDGE('',*,*,#157,.T.);
#61=ORIENTED_EDGE('',*,*,#158,.T.);
#62=ORIENTED_EDGE('',*,*,#141,.F.);
#63=ORIENTED_EDGE('',*,*,#159,.T.);
#64=ORIENTED_EDGE('',*,*,#135,.T.);
#65=ORIENTED_EDGE('',*,*,#156,.T.);
#66=ORIENTED_EDGE('',*,*,#147,.T.);
#67=ORIENTED_EDGE('',*,*,#160,.T.);
#68=ORIENTED_EDGE('',*,*,#157,.F.);
#69=ORIENTED_EDGE('',*,*,#155,.F.);
#70=ORIENTED_EDGE('',*,*,#150,.F.);
#71=ORIENTED_EDGE('',*,*,#161,.T.);
#72=ORIENTED_EDGE('',*,*,#153,.T.);
#73=ORIENTED_EDGE('',*,*,#154,.T.);
#74=ORIENTED_EDGE('',*,*,#162,.F.);
#75=ORIENTED_EDGE('',*,*,#163,.T.);
#76=ORIENTED_EDGE('',*,*,#122,.F.);
#77=ORIENTED_EDGE('',*,*,#164,.T.);
#78=ORIENTED_EDGE('',*,*,#165,.F.);
#79=ORIENTED_EDGE('',*,*,#140,.F.);
#80=ORIENTED_EDGE('',*,*,#166,.F.);
#81=ORIENTED_EDGE('',*,*,#167,.T.);
#82=ORIENTED_EDGE('',*,*,#126,.F.);
#83=ORIENTED_EDGE('',*,*,#168,.T.);
#84=ORIENTED_EDGE('',*,*,#162,.T.);
#85=ORIENTED_EDGE('',*,*,#139,.F.);
#86=ORIENTED_EDGE('',*,*,#143,.F.);
#87=ORIENTED_EDGE('',*,*,#169,.T.);
#88=ORIENTED_EDGE('',*,*,#170,.F.);
#89=ORIENTED_EDGE('',*,*,#137,.F.);
#90=ORIENTED_EDGE('',*,*,#165,.T.);
#91=ORIENTED_EDGE('',*,*,#171,.T.);
#92=ORIENTED_EDGE('',*,*,#170,.T.);
#93=ORIENTED_EDGE('',*,*,#172,.T.);
#94=ORIENTED_EDGE('',*,*,#145,.F.);
#95=ORIENTED_EDGE('',*,*,#173,.T.);
#96=ORIENTED_EDGE('',*,*,#166,.T.);
#97=ORIENTED_EDGE('',*,*,#138,.F.);
#98=ORIENTED_EDGE('',*,*,#169,.F.);
#99=ORIENTED_EDGE('',*,*,#142,.F.);
#100=ORIENTED_EDGE('',*,*,#158,.F.);
#101=ORIENTED_EDGE('',*,*,#160,.F.);
#102=ORIENTED_EDGE('',*,*,#146,.F.);
#103=ORIENTED_EDGE('',*,*,#172,.F.);
#104=ORIENTED_EDGE('',*,*,#173,.F.);
#105=ORIENTED_EDGE('',*,*,#148,.F.);
#106=ORIENTED_EDGE('',*,*,#161,.F.);
#107=ORIENTED_EDGE('',*,*,#149,.F.);
#108=ORIENTED_EDGE('',*,*,#127,.F.);
#109=ORIENTED_EDGE('',*,*,#167,.F.);
#110=ORIENTED_EDGE('',*,*,#168,.F.);
#111=ORIENTED_EDGE('',*,*,#129,.F.);
#112=ORIENTED_EDGE('',*,*,#152,.F.);
#113=ORIENTED_EDGE('',*,*,#132,.F.);
#114=ORIENTED_EDGE('',*,*,#123,.F.);
#115=ORIENTED_EDGE('',*,*,#163,.F.);
#116=ORIENTED_EDGE('',*,*,#164,.F.);
#117=ORIENTED_EDGE('',*,*,#125,.F.);
#118=ORIENTED_EDGE('',*,*,#136,.F.);
#119=ORIENTED_EDGE('',*,*,#159,.F.);
#120=ORIENTED_EDGE('',*,*,#144,.F.);
#121=ORIENTED_EDGE('',*,*,#171,.F.);
#122=EDGE_CURVE('',#174,#175,#210,.T.);
#123=EDGE_CURVE('',#175,#176,#211,.T.);
#124=EDGE_CURVE('',#176,#177,#212,.F.);
#125=EDGE_CURVE('',#177,#174,#213,.T.);
#126=EDGE_CURVE('',#178,#179,#214,.T.);
#127=EDGE_CURVE('',#179,#180,#215,.T.);
#128=EDGE_CURVE('',#181,#180,#216,.F.);
#129=EDGE_CURVE('',#181,#178,#217,.T.);
#130=EDGE_CURVE('',#182,#182,#14,.T.);
#131=EDGE_CURVE('',#183,#183,#15,.T.);
#132=EDGE_CURVE('',#176,#184,#218,.F.);
#133=EDGE_CURVE('',#184,#185,#219,.T.);
#134=EDGE_CURVE('',#185,#186,#220,.T.);
#135=EDGE_CURVE('',#187,#186,#221,.T.);
#136=EDGE_CURVE('',#187,#177,#222,.T.);
#137=EDGE_CURVE('',#188,#189,#223,.T.);
#138=EDGE_CURVE('',#189,#190,#224,.T.);
#139=EDGE_CURVE('',#190,#191,#225,.T.);
#140=EDGE_CURVE('',#191,#188,#226,.T.);
#141=EDGE_CURVE('',#192,#193,#227,.T.);
#142=EDGE_CURVE('',#193,#194,#228,.T.);
#143=EDGE_CURVE('',#194,#195,#229,.T.);
#144=EDGE_CURVE('',#195,#192,#230,.T.);
#145=EDGE_CURVE('',#196,#197,#231,.T.);
#146=EDGE_CURVE('',#197,#198,#232,.T.);
#147=EDGE_CURVE('',#199,#198,#233,.F.);
#148=EDGE_CURVE('',#199,#196,#234,.T.);
#149=EDGE_CURVE('',#180,#200,#235,.T.);
#150=EDGE_CURVE('',#200,#201,#236,.T.);
#151=EDGE_CURVE('',#185,#201,#237,.T.);
#152=EDGE_CURVE('',#184,#181,#238,.F.);
#153=EDGE_CURVE('',#202,#202,#16,.T.);
#154=EDGE_CURVE('',#203,#203,#17,.T.);
#155=EDGE_CURVE('',#201,#204,#239,.T.);
#156=EDGE_CURVE('',#186,#204,#240,.T.);
#157=EDGE_CURVE('',#204,#205,#241,.T.);
#158=EDGE_CURVE('',#205,#193,#242,.F.);
#159=EDGE_CURVE('',#192,#187,#243,.T.);
#160=EDGE_CURVE('',#198,#205,#244,.F.);
#161=EDGE_CURVE('',#200,#199,#245,.T.);
#162=EDGE_CURVE('',#206,#191,#246,.T.);
#163=EDGE_CURVE('',#206,#175,#247,.T.);
#164=EDGE_CURVE('',#174,#207,#248,.F.);
#165=EDGE_CURVE('',#188,#207,#249,.T.);
#166=EDGE_CURVE('',#208,#190,#250,.T.);
#167=EDGE_CURVE('',#208,#179,#251,.F.);
#168=EDGE_CURVE('',#178,#206,#252,.T.);
#169=EDGE_CURVE('',#194,#209,#253,.F.);
#170=EDGE_CURVE('',#189,#209,#254,.F.);
#171=EDGE_CURVE('',#207,#195,#255,.T.);
#172=EDGE_CURVE('',#209,#197,#256,.F.);
#173=EDGE_CURVE('',#196,#208,#257,.T.);
#174=VERTEX_POINT('',#544);
#175=VERTEX_POINT('',#545);
#176=VERTEX_POINT('',#547);
#177=VERTEX_POINT('',#549);
#178=VERTEX_POINT('',#553);
#179=VERTEX_POINT('',#554);
#180=VERTEX_POINT('',#556);
#181=VERTEX_POINT('',#558);
#182=VERTEX_POINT('',#561);
#183=VERTEX_POINT('',#563);
#184=VERTEX_POINT('',#566);
#185=VERTEX_POINT('',#568);
#186=VERTEX_POINT('',#570);
#187=VERTEX_POINT('',#572);
#188=VERTEX_POINT('',#576);
#189=VERTEX_POINT('',#577);
#190=VERTEX_POINT('',#579);
#191=VERTEX_POINT('',#581);
#192=VERTEX_POINT('',#585);
#193=VERTEX_POINT('',#586);
#194=VERTEX_POINT('',#588);
#195=VERTEX_POINT('',#590);
#196=VERTEX_POINT('',#594);
#197=VERTEX_POINT('',#595);
#198=VERTEX_POINT('',#597);
#199=VERTEX_POINT('',#599);
#200=VERTEX_POINT('',#603);
#201=VERTEX_POINT('',#605);
#202=VERTEX_POINT('',#610);
#203=VERTEX_POINT('',#613);
#204=VERTEX_POINT('',#616);
#205=VERTEX_POINT('',#620);
#206=VERTEX_POINT('',#630);
#207=VERTEX_POINT('',#633);
#208=VERTEX_POINT('',#637);
#209=VERTEX_POINT('',#642);
#210=LINE('',#543,#258);
#211=LINE('',#546,#259);
#212=LINE('',#548,#260);
#213=LINE('',#550,#261);
#214=LINE('',#552,#262);
#215=LINE('',#555,#263);
#216=LINE('',#557,#264);
#217=LINE('',#559,#265);
#218=LINE('',#565,#266);
#219=LINE('',#567,#267);
#220=LINE('',#569,#268);
#221=LINE('',#571,#269);
#222=LINE('',#573,#270);
#223=LINE('',#575,#271);
#224=LINE('',#578,#272);
#225=LINE('',#580,#273);
#226=LINE('',#582,#274);
#227=LINE('',#584,#275);
#228=LINE('',#587,#276);
#229=LINE('',#589,#277);
#230=LINE('',#591,#278);
#231=LINE('',#593,#279);
#232=LINE('',#596,#280);
#233=LINE('',#598,#281);
#234=LINE('',#600,#282);
#235=LINE('',#602,#283);
#236=LINE('',#604,#284);
#237=LINE('',#606,#285);
#238=LINE('',#607,#286);
#239=LINE('',#615,#287);
#240=LINE('',#617,#288);
#241=LINE('',#619,#289);
#242=LINE('',#621,#290);
#243=LINE('',#622,#291);
#244=LINE('',#624,#292);
#245=LINE('',#625,#293);
#246=LINE('',#629,#294);
#247=LINE('',#631,#295);
#248=LINE('',#632,#296);
#249=LINE('',#634,#297);
#250=LINE('',#636,#298);
#251=LINE('',#638,#299);
#252=LINE('',#639,#300);
#253=LINE('',#641,#301);
#254=LINE('',#643,#302);
#255=LINE('',#644,#303);
#256=LINE('',#646,#304);
#257=LINE('',#647,#305);
#258=VECTOR('',#443,1.);
#259=VECTOR('',#444,1.);
#260=VECTOR('',#445,1.);
#261=VECTOR('',#446,1.);
#262=VECTOR('',#449,1.);
#263=VECTOR('',#450,1.);
#264=VECTOR('',#451,1.);
#265=VECTOR('',#452,1.);
#266=VECTOR('',#459,1.);
#267=VECTOR('',#460,1.);
#268=VECTOR('',#461,1.);
#269=VECTOR('',#462,1.);
#270=VECTOR('',#463,1.);
#271=VECTOR('',#466,1.);
#272=VECTOR('',#467,1.);
#273=VECTOR('',#468,1.);
#274=VECTOR('',#469,1.);
#275=VECTOR('',#472,1.);
#276=VECTOR('',#473,1.);
#277=VECTOR('',#474,1.);
#278=VECTOR('',#475,1.);
#279=VECTOR('',#478,1.);
#280=VECTOR('',#479,1.);
#281=VECTOR('',#480,1.);
#282=VECTOR('',#481,1.);
#283=VECTOR('',#484,1.);
#284=VECTOR('',#485,1.);
#285=VECTOR('',#486,1.);
#286=VECTOR('',#487,1.);
#287=VECTOR('',#498,1.);
#288=VECTOR('',#499,1.);
#289=VECTOR('',#502,1.);
#290=VECTOR('',#503,1.);
#291=VECTOR('',#504,1.);
#292=VECTOR('',#507,1.);
#293=VECTOR('',#508,1.);
#294=VECTOR('',#515,1.);
#295=VECTOR('',#516,1.);
#296=VECTOR('',#517,1.);
#297=VECTOR('',#518,1.);
#298=VECTOR('',#521,1.);
#299=VECTOR('',#522,1.);
#300=VECTOR('',#523,1.);
#301=VECTOR('',#526,1.);
#302=VECTOR('',#527,1.);
#303=VECTOR('',#528,1.);
#304=VECTOR('',#531,1.);
#305=VECTOR('',#532,1.);
#306=EDGE_LOOP('',(#18,#19,#20,#21));
#307=EDGE_LOOP('',(#22,#23,#24,#25));
#308=EDGE_LOOP('',(#26));
#309=EDGE_LOOP('',(#27));
#310=EDGE_LOOP('',(#28,#29,#30,#31,#32,#33));
#311=EDGE_LOOP('',(#34,#35,#36,#37));
#312=EDGE_LOOP('',(#38,#39,#40,#41));
#313=EDGE_LOOP('',(#42,#43,#44,#45));
#314=EDGE_LOOP('',(#46,#47,#48,#49,#50,#51));
#315=EDGE_LOOP('',(#52));
#316=EDGE_LOOP('',(#53));
#317=EDGE_LOOP('',(#54));
#318=EDGE_LOOP('',(#55));
#319=EDGE_LOOP('',(#56,#57,#58,#59));
#320=EDGE_LOOP('',(#60,#61,#62,#63,#64,#65));
#321=EDGE_LOOP('',(#66,#67,#68,#69,#70,#71));
#322=EDGE_LOOP('',(#72));
#323=EDGE_LOOP('',(#73));
#324=EDGE_LOOP('',(#74,#75,#76,#77,#78,#79));
#325=EDGE_LOOP('',(#80,#81,#82,#83,#84,#85));
#326=EDGE_LOOP('',(#86,#87,#88,#89,#90,#91));
#327=EDGE_LOOP('',(#92,#93,#94,#95,#96,#97));
#328=EDGE_LOOP('',(#98,#99,#100,#101,#102,#103));
#329=EDGE_LOOP('',(#104,#105,#106,#107,#108,#109));
#330=EDGE_LOOP('',(#110,#111,#112,#113,#114,#115));
#331=EDGE_LOOP('',(#116,#117,#118,#119,#120,#121));
#332=FACE_BOUND('',#306,.T.);
#333=FACE_BOUND('',#307,.T.);
#334=FACE_BOUND('',#308,.T.);
#335=FACE_BOUND('',#309,.T.);
#336=FACE_BOUND('',#310,.T.);
#337=FACE_BOUND('',#311,.T.);
#338=FACE_BOUND('',#312,.T.);
#339=FACE_BOUND('',#313,.T.);
#340=FACE_BOUND('',#314,.T.);
#341=FACE_BOUND('',#315,.T.);
#342=FACE_BOUND('',#316,.T.);
#343=FACE_BOUND('',#317,.T.);
#344=FACE_BOUND('',#318,.T.);
#345=FACE_BOUND('',#319,.T.);
#346=FACE_BOUND('',#320,.T.);
#347=FACE_BOUND('',#321,.T.);
#348=FACE_BOUND('',#322,.T.);
#349=FACE_BOUND('',#323,.T.);
#350=FACE_BOUND('',#324,.T.);
#351=FACE_BOUND('',#325,.T.);
#352=FACE_BOUND('',#326,.T.);
#353=FACE_BOUND('',#327,.T.);
#354=FACE_BOUND('',#328,.T.);
#355=FACE_BOUND('',#329,.T.);
#356=FACE_BOUND('',#330,.T.);
#357=FACE_BOUND('',#331,.T.);
#358=PLANE('',#413);
#359=PLANE('',#414);
#360=PLANE('',#417);
#361=PLANE('',#418);
#362=PLANE('',#419);
#363=PLANE('',#420);
#364=PLANE('',#421);
#365=PLANE('',#426);
#366=PLANE('',#427);
#367=PLANE('',#428);
#368=PLANE('',#429);
#369=PLANE('',#430);
#370=PLANE('',#431);
#371=PLANE('',#432);
#372=PLANE('',#433);
#373=PLANE('',#434);
#374=PLANE('',#435);
#375=PLANE('',#436);
#376=PLANE('',#437);
#377=PLANE('',#438);
#378=ADVANCED_FACE('',(#332),#358,.F.);
#379=ADVANCED_FACE('',(#333,#334,#335),#359,.F.);
#380=ADVANCED_FACE('',(#336),#360,.F.);
#381=ADVANCED_FACE('',(#337),#361,.F.);
#382=ADVANCED_FACE('',(#338),#362,.T.);
#383=ADVANCED_FACE('',(#339),#363,.T.);
#384=ADVANCED_FACE('',(#340),#364,.F.);
#385=ADVANCED_FACE('',(#341,#342),#12,.F.);
#386=ADVANCED_FACE('',(#343,#344),#13,.F.);
#387=ADVANCED_FACE('',(#345),#365,.T.);
#388=ADVANCED_FACE('',(#346),#366,.T.);
#389=ADVANCED_FACE('',(#347),#367,.T.);
#390=ADVANCED_FACE('',(#348),#368,.T.);
#391=ADVANCED_FACE('',(#349),#369,.T.);
#392=ADVANCED_FACE('',(#350),#370,.F.);
#393=ADVANCED_FACE('',(#351),#371,.F.);
#394=ADVANCED_FACE('',(#352),#372,.T.);
#395=ADVANCED_FACE('',(#353),#373,.T.);
#396=ADVANCED_FACE('',(#354),#374,.F.);
#397=ADVANCED_FACE('',(#355),#375,.T.);
#398=ADVANCED_FACE('',(#356),#376,.F.);
#399=ADVANCED_FACE('',(#357),#377,.T.);
#400=CLOSED_SHELL('',(#378,#379,#380,#381,#382,#383,#384,#385,#386,#387,
#388,#389,#390,#391,#392,#393,#394,#395,#396,#397,#398,#399));
#401=STYLED_ITEM('',(#402),#409);
#402=PRESENTATION_STYLE_ASSIGNMENT((#403));
#403=SURFACE_STYLE_USAGE(.BOTH.,#404);
#404=SURFACE_SIDE_STYLE('',(#405));
#405=SURFACE_STYLE_FILL_AREA(#406);
#406=FILL_AREA_STYLE('',(#407));
#407=FILL_AREA_STYLE_COLOUR('',#408);
#408=COLOUR_RGB('',0.647058823529412,0.647058823529412,0.647058823529412);
#409=MANIFOLD_SOLID_BREP('Part 1',#400);
#410=SHAPE_DEFINITION_REPRESENTATION(#658,#411);
#411=SHAPE_REPRESENTATION('Part 1',(#412),#653);
#412=AXIS2_PLACEMENT_3D('',#541,#439,#440);
#413=AXIS2_PLACEMENT_3D('',#542,#441,#442);
#414=AXIS2_PLACEMENT_3D('',#551,#447,#448);
#415=AXIS2_PLACEMENT_3D('',#560,#453,#454);
#416=AXIS2_PLACEMENT_3D('',#562,#455,#456);
#417=AXIS2_PLACEMENT_3D('',#564,#457,#458);
#418=AXIS2_PLACEMENT_3D('',#574,#464,#465);
#419=AXIS2_PLACEMENT_3D('',#583,#470,#471);
#420=AXIS2_PLACEMENT_3D('',#592,#476,#477);
#421=AXIS2_PLACEMENT_3D('',#601,#482,#483);
#422=AXIS2_PLACEMENT_3D('',#608,#488,#489);
#423=AXIS2_PLACEMENT_3D('',#609,#490,#491);
#424=AXIS2_PLACEMENT_3D('',#611,#492,#493);
#425=AXIS2_PLACEMENT_3D('',#612,#494,#495);
#426=AXIS2_PLACEMENT_3D('',#614,#496,#497);
#427=AXIS2_PLACEMENT_3D('',#618,#500,#501);
#428=AXIS2_PLACEMENT_3D('',#623,#505,#506);
#429=AXIS2_PLACEMENT_3D('',#626,#509,#510);
#430=AXIS2_PLACEMENT_3D('',#627,#511,#512);
#431=AXIS2_PLACEMENT_3D('',#628,#513,#514);
#432=AXIS2_PLACEMENT_3D('',#635,#519,#520);
#433=AXIS2_PLACEMENT_3D('',#640,#524,#525);
#434=AXIS2_PLACEMENT_3D('',#645,#529,#530);
#435=AXIS2_PLACEMENT_3D('',#648,#533,#534);
#436=AXIS2_PLACEMENT_3D('',#649,#535,#536);
#437=AXIS2_PLACEMENT_3D('',#650,#537,#538);
#438=AXIS2_PLACEMENT_3D('',#651,#539,#540);
#439=DIRECTION('',(0.,0.,1.));
#440=DIRECTION('',(1.,0.,0.));
#441=DIRECTION('',(1.,0.,0.));
#442=DIRECTION('',(0.,0.,1.));
#443=DIRECTION('',(0.,-1.,0.));
#444=DIRECTION('',(0.,0.,1.));
#445=DIRECTION('',(0.,-1.,0.));
#446=DIRECTION('',(0.,0.,-1.));
#447=DIRECTION('',(0.,1.,0.));
#448=DIRECTION('',(0.,0.,1.));
#449=DIRECTION('',(1.,0.,0.));
#450=DIRECTION('',(0.,0.,1.));
#451=DIRECTION('',(-1.,0.,0.));
#452=DIRECTION('',(0.,0.,-1.));
#453=DIRECTION('',(0.,-1.,2.22044604925E-16));
#454=DIRECTION('',(0.,-2.22044604925E-16,-1.));
#455=DIRECTION('',(0.,-1.,2.22044604925E-16));
#456=DIRECTION('',(0.,-2.22044604925E-16,-1.));
#457=DIRECTION('',(0.707106781186548,0.,-0.707106781186548));
#458=DIRECTION('',(0.,1.,0.));
#459=DIRECTION('',(-0.577350269189626,0.577350269189626,-0.577350269189626));
#460=DIRECTION('',(0.577350269189626,0.577350269189626,0.577350269189626));
#461=DIRECTION('',(0.,1.,0.));
#462=DIRECTION('',(0.577350269189626,-0.577350269189626,0.577350269189626));
#463=DIRECTION('',(-0.577350269189626,-0.577350269189626,-0.577350269189626));
#464=DIRECTION('',(0.,0.,1.));
#465=DIRECTION('',(1.,0.,0.));
#466=DIRECTION('',(1.,0.,0.));
#467=DIRECTION('',(0.,-1.,0.));
#468=DIRECTION('',(-1.,0.,0.));
#469=DIRECTION('',(0.,1.,0.));
#470=DIRECTION('',(0.,1.,0.));
#471=DIRECTION('',(0.,0.,1.));
#472=DIRECTION('',(1.,0.,0.));
#473=DIRECTION('',(0.,0.,-1.));
#474=DIRECTION('',(-1.,0.,0.));
#475=DIRECTION('',(0.,0.,1.));
#476=DIRECTION('',(1.,0.,0.));
#477=DIRECTION('',(0.,0.,1.));
#478=DIRECTION('',(0.,1.,0.));
#479=DIRECTION('',(0.,0.,1.));
#480=DIRECTION('',(0.,-1.,0.));
#481=DIRECTION('',(0.,0.,-1.));
#482=DIRECTION('',(0.,0.707106781186548,-0.707106781186548));
#483=DIRECTION('',(-1.,0.,0.));
#484=DIRECTION('',(0.577350269189626,0.577350269189626,0.577350269189626));
#485=DIRECTION('',(-0.577350269189626,0.577350269189626,0.577350269189626));
#486=DIRECTION('',(1.,0.,0.));
#487=DIRECTION('',(-0.577350269189626,0.577350269189626,0.577350269189626));
#488=DIRECTION('',(0.,-1.,2.22044604925E-16));
#489=DIRECTION('',(1.,0.,0.));
#490=DIRECTION('',(0.,-1.,2.22044604925E-16));
#491=DIRECTION('',(0.,-2.22044604925E-16,-1.));
#492=DIRECTION('',(0.,-1.,2.22044604925E-16));
#493=DIRECTION('',(1.,0.,0.));
#494=DIRECTION('',(0.,-1.,2.22044604925E-16));
#495=DIRECTION('',(0.,-2.22044604925E-16,-1.));
#496=DIRECTION('',(0.,0.,1.));
#497=DIRECTION('',(1.,0.,0.));
#498=DIRECTION('',(0.,1.,0.));
#499=DIRECTION('',(1.,0.,0.));
#500=DIRECTION('',(0.,0.707106781186548,0.707106781186548));
#501=DIRECTION('',(1.,0.,0.));
#502=DIRECTION('',(0.577350269189626,0.577350269189626,-0.577350269189626));
#503=DIRECTION('',(0.577350269189626,-0.577350269189626,0.577350269189626));
#504=DIRECTION('',(-0.577350269189626,-0.577350269189626,0.577350269189626));
#505=DIRECTION('',(0.707106781186548,0.,0.707106781186548));
#506=DIRECTION('',(0.,-1.,0.));
#507=DIRECTION('',(0.577350269189626,-0.577350269189626,-0.577350269189626));
#508=DIRECTION('',(0.577350269189626,0.577350269189626,-0.577350269189626));
#509=DIRECTION('',(0.,-1.,2.22044604925E-16));
#510=DIRECTION('',(1.,0.,0.));
#511=DIRECTION('',(0.,-1.,2.22044604925E-16));
#512=DIRECTION('',(1.,0.,0.));
#513=DIRECTION('',(0.707106781186548,0.,0.707106781186548));
#514=DIRECTION('',(0.,1.,0.));
#515=DIRECTION('',(0.577350269189626,0.577350269189626,-0.577350269189626));
#516=DIRECTION('',(-0.577350269189626,0.577350269189626,0.577350269189626));
#517=DIRECTION('',(-0.577350269189626,-0.577350269189626,0.577350269189626));
#518=DIRECTION('',(-0.577350269189626,0.577350269189626,0.577350269189626));
#519=DIRECTION('',(0.,0.707106781186548,0.707106781186548));
#520=DIRECTION('',(1.,0.,0.));
#521=DIRECTION('',(-0.577350269189626,0.577350269189626,-0.577350269189626));
#522=DIRECTION('',(0.577350269189626,0.577350269189626,-0.577350269189626));
#523=DIRECTION('',(-0.577350269189626,0.577350269189626,-0.577350269189626));
#524=DIRECTION('',(0.,0.707106781186548,-0.707106781186548));
#525=DIRECTION('',(-1.,0.,0.));
#526=DIRECTION('',(-0.577350269189626,0.577350269189626,0.577350269189626));
#527=DIRECTION('',(-0.577350269189626,-0.577350269189626,-0.577350269189626));
#528=DIRECTION('',(0.577350269189626,0.577350269189626,0.577350269189626));
#529=DIRECTION('',(0.707106781186548,0.,-0.707106781186548));
#530=DIRECTION('',(0.,-1.,0.));
#531=DIRECTION('',(-0.577350269189626,0.577350269189626,-0.577350269189626));
#532=DIRECTION('',(-0.577350269189626,-0.577350269189626,-0.577350269189626));
#533=DIRECTION('',(-0.707106781186548,-0.707106781186548,0.));
#534=DIRECTION('',(0.,0.,1.));
#535=DIRECTION('',(0.707106781186548,-0.707106781186548,0.));
#536=DIRECTION('',(0.,0.,-1.));
#537=DIRECTION('',(0.707106781186548,0.707106781186548,0.));
#538=DIRECTION('',(0.,0.,1.));
#539=DIRECTION('',(-0.707106781186548,0.707106781186548,0.));
#540=DIRECTION('',(0.,0.,-1.));
#541=CARTESIAN_POINT('',(0.,0.,0.));
#542=CARTESIAN_POINT('',(-0.004,-0.004,0.));
#543=CARTESIAN_POINT('',(-0.004,-0.004,0.001));
#544=CARTESIAN_POINT('',(-0.004,0.003,0.001));
#545=CARTESIAN_POINT('',(-0.004,-0.003,0.001));
#546=CARTESIAN_POINT('',(-0.004,-0.003,0.));
#547=CARTESIAN_POINT('',(-0.004,-0.003,0.079));
#548=CARTESIAN_POINT('',(-0.004,-0.004,0.079));
#549=CARTESIAN_POINT('',(-0.004,0.003,0.079));
#550=CARTESIAN_POINT('',(-0.004,0.003,0.001));
#551=CARTESIAN_POINT('',(-0.004,-0.004,0.));
#552=CARTESIAN_POINT('',(-0.004,-0.004,0.001));
#553=CARTESIAN_POINT('',(-0.003,-0.004,0.001));
#554=CARTESIAN_POINT('',(0.003,-0.004,0.001));
#555=CARTESIAN_POINT('',(0.003,-0.004,0.079));
#556=CARTESIAN_POINT('',(0.003,-0.004,0.079));
#557=CARTESIAN_POINT('',(-0.004,-0.004,0.079));
#558=CARTESIAN_POINT('',(-0.003,-0.004,0.079));
#559=CARTESIAN_POINT('',(-0.003,-0.004,0.));
#560=CARTESIAN_POINT('',(0.,-0.004,0.008));
#561=CARTESIAN_POINT('',(0.,-0.004,0.0067));
#562=CARTESIAN_POINT('',(0.,-0.004,0.072));
#563=CARTESIAN_POINT('',(0.,-0.004,0.0707));
#564=CARTESIAN_POINT('',(-0.0035,-0.004,0.0795));
#565=CARTESIAN_POINT('',(-0.0303333333333334,0.0233333333333333,0.0526666666666667));
#566=CARTESIAN_POINT('',(-0.0035,-0.0035,0.0795));
#567=CARTESIAN_POINT('',(-0.004,-0.004,0.079));
#568=CARTESIAN_POINT('',(-0.003,-0.003,0.08));
#569=CARTESIAN_POINT('',(-0.003,-0.004,0.08));
#570=CARTESIAN_POINT('',(-0.003,0.003,0.08));
#571=CARTESIAN_POINT('',(-0.004,0.004,0.079));
#572=CARTESIAN_POINT('',(-0.0035,0.0035,0.0795));
#573=CARTESIAN_POINT('',(-0.0296666666666667,-0.0226666666666667,0.0533333333333333));
#574=CARTESIAN_POINT('',(-0.004,-0.004,0.));
#575=CARTESIAN_POINT('',(0.004,0.003,0.));
#576=CARTESIAN_POINT('',(-0.003,0.003,0.));
#577=CARTESIAN_POINT('',(0.003,0.003,0.));
#578=CARTESIAN_POINT('',(0.003,-0.004,0.));
#579=CARTESIAN_POINT('',(0.003,-0.003,0.));
#580=CARTESIAN_POINT('',(-0.004,-0.003,0.));
#581=CARTESIAN_POINT('',(-0.003,-0.003,0.));
#582=CARTESIAN_POINT('',(-0.003,-0.004,0.));
#583=CARTESIAN_POINT('',(-0.004,0.004,0.));
#584=CARTESIAN_POINT('',(-0.004,0.004,0.079));
#585=CARTESIAN_POINT('',(-0.003,0.004,0.079));
#586=CARTESIAN_POINT('',(0.003,0.004,0.079));
#587=CARTESIAN_POINT('',(0.003,0.004,0.));
#588=CARTESIAN_POINT('',(0.003,0.004,0.001));
#589=CARTESIAN_POINT('',(-0.004,0.004,0.001));
#590=CARTESIAN_POINT('',(-0.003,0.004,0.001));
#591=CARTESIAN_POINT('',(-0.003,0.004,0.079));
#592=CARTESIAN_POINT('',(0.004,-0.004,0.));
#593=CARTESIAN_POINT('',(0.004,0.004,0.001));
#594=CARTESIAN_POINT('',(0.004,-0.003,0.001));
#595=CARTESIAN_POINT('',(0.004,0.003,0.001));
#596=CARTESIAN_POINT('',(0.004,0.003,0.));
#597=CARTESIAN_POINT('',(0.004,0.003,0.079));
#598=CARTESIAN_POINT('',(0.004,-0.004,0.079));
#599=CARTESIAN_POINT('',(0.004,-0.003,0.079));
#600=CARTESIAN_POINT('',(0.004,-0.003,0.001));
#601=CARTESIAN_POINT('',(-0.004,-0.0035,0.0795));
#602=CARTESIAN_POINT('',(-0.0233333333333333,-0.0303333333333334,0.0526666666666667));
#603=CARTESIAN_POINT('',(0.0035,-0.0035,0.0795));
#604=CARTESIAN_POINT('',(0.004,-0.004,0.079));
#605=CARTESIAN_POINT('',(0.003,-0.003,0.08));
#606=CARTESIAN_POINT('',(-0.004,-0.003,0.08));
#607=CARTESIAN_POINT('',(0.0226666666666667,-0.0296666666666667,0.0533333333333333));
#608=CARTESIAN_POINT('',(0.,0.002,0.008));
#609=CARTESIAN_POINT('',(0.,0.002,0.008));
#610=CARTESIAN_POINT('',(0.,0.002,0.0067));
#611=CARTESIAN_POINT('',(0.,0.002,0.072));
#612=CARTESIAN_POINT('',(0.,0.002,0.072));
#613=CARTESIAN_POINT('',(0.,0.002,0.0707));
#614=CARTESIAN_POINT('',(-0.004,-0.004,0.08));
#615=CARTESIAN_POINT('',(0.003,-0.004,0.08));
#616=CARTESIAN_POINT('',(0.003,0.003,0.08));
#617=CARTESIAN_POINT('',(-0.004,0.003,0.08));
#618=CARTESIAN_POINT('',(-0.004,0.0035,0.0795));
#619=CARTESIAN_POINT('',(0.003,0.003,0.08));
#620=CARTESIAN_POINT('',(0.0035,0.0035,0.0795));
#621=CARTESIAN_POINT('',(0.001,0.006,0.077));
#622=CARTESIAN_POINT('',(-0.00366666666666666,0.00333333333333333,0.0796666666666667));
#623=CARTESIAN_POINT('',(0.0035,-0.004,0.0795));
#624=CARTESIAN_POINT('',(0.006,0.001,0.077));
#625=CARTESIAN_POINT('',(0.00333333333333333,-0.00366666666666666,0.0796666666666667));
#626=CARTESIAN_POINT('',(0.,0.002,0.008));
#627=CARTESIAN_POINT('',(0.,0.002,0.072));
#628=CARTESIAN_POINT('',(-0.003,-0.004,0.));
#629=CARTESIAN_POINT('',(-0.004,-0.004,0.001));
#630=CARTESIAN_POINT('',(-0.0035,-0.0035,0.0005));
#631=CARTESIAN_POINT('',(-0.003,-0.004,0.));
#632=CARTESIAN_POINT('',(-0.00566666666666667,0.00133333333333333,0.00266666666666666));
#633=CARTESIAN_POINT('',(-0.0035,0.0035,0.0005));
#634=CARTESIAN_POINT('',(-0.000666666666666667,0.000666666666666666,-0.00233333333333333));
#635=CARTESIAN_POINT('',(-0.004,-0.004,0.001));
#636=CARTESIAN_POINT('',(0.00133333333333333,-0.00133333333333333,-0.00166666666666667));
#637=CARTESIAN_POINT('',(0.0035,-0.0035,0.0005));
#638=CARTESIAN_POINT('',(0.000666666666666666,-0.00633333333333333,0.00333333333333333));
#639=CARTESIAN_POINT('',(-0.00333333333333333,-0.00366666666666666,0.000666666666666667));
#640=CARTESIAN_POINT('',(-0.004,0.003,0.));
#641=CARTESIAN_POINT('',(0.00133333333333333,0.00566666666666667,0.00266666666666666));
#642=CARTESIAN_POINT('',(0.0035,0.0035,0.0005));
#643=CARTESIAN_POINT('',(0.000666666666666666,0.000666666666666667,-0.00233333333333333));
#644=CARTESIAN_POINT('',(-0.004,0.003,0.));
#645=CARTESIAN_POINT('',(0.004,-0.004,0.001));
#646=CARTESIAN_POINT('',(0.00633333333333333,0.000666666666666666,0.00333333333333333));
#647=CARTESIAN_POINT('',(0.00366666666666666,-0.00333333333333333,0.000666666666666667));
#648=CARTESIAN_POINT('',(0.004,0.003,0.));
#649=CARTESIAN_POINT('',(0.003,-0.004,0.));
#650=CARTESIAN_POINT('',(-0.004,-0.003,0.));
#651=CARTESIAN_POINT('',(-0.003,0.004,0.));
#652=MECHANICAL_DESIGN_GEOMETRIC_PRESENTATION_REPRESENTATION('',(#401),
#653);
#653=(
GEOMETRIC_REPRESENTATION_CONTEXT(3)
GLOBAL_UNCERTAINTY_ASSIGNED_CONTEXT((#654))
GLOBAL_UNIT_ASSIGNED_CONTEXT((#657,#656,#655))
REPRESENTATION_CONTEXT('Part 1','TOP_LEVEL_ASSEMBLY_PART')
);
#654=UNCERTAINTY_MEASURE_WITH_UNIT(LENGTH_MEASURE(1.E-8),#657,
'DISTANCE_ACCURACY_VALUE','Maximum Tolerance applied to model');
#655=(
NAMED_UNIT(*)
SI_UNIT($,.STERADIAN.)
SOLID_ANGLE_UNIT()
);
#656=(
NAMED_UNIT(*)
PLANE_ANGLE_UNIT()
SI_UNIT($,.RADIAN.)
);
#657=(
LENGTH_UNIT()
NAMED_UNIT(*)
SI_UNIT($,.METRE.)
);
#658=PRODUCT_DEFINITION_SHAPE('','',#659);
#659=PRODUCT_DEFINITION('','',#661,#660);
#660=PRODUCT_DEFINITION_CONTEXT('',#667,'design');
#661=PRODUCT_DEFINITION_FORMATION_WITH_SPECIFIED_SOURCE('','',#663,
 .NOT_KNOWN.);
#662=PRODUCT_RELATED_PRODUCT_CATEGORY('','',(#663));
#663=PRODUCT('Part 1','Part 1','Part 1',(#665));
#664=PRODUCT_CATEGORY('','');
#665=PRODUCT_CONTEXT('',#667,'mechanical');
#666=APPLICATION_PROTOCOL_DEFINITION('international standard',
'ap242_managed_model_based_3d_engineering',2020,#667);
#667=APPLICATION_CONTEXT('managed model based 3d engineering');
ENDSEC;
END-ISO-10303-21;
