ISO-10303-21;
HEADER;
/* Generated by software containing ST-Developer
 * from STEP Tools, Inc. (www.steptools.com) 
 */
/* OPTION: using custom renumber hook */

FILE_DESCRIPTION(
/* description */ ('STEP AP242 Edition 2',
'CAx-IF Rec.Pracs.---Representation and Presentation of Product Manufa
cturing Information (PMI)---4.0---2014-10-13',
'CAx-IF Rec.Pracs.---3D Tessellated Geometry---0.4---2014-09-14','2;1',
'CAx-IF Rec.Pracs.---User Defined Attributes---1.5---2016-08-15'),
/* implementation_level */ '2;1');

FILE_NAME(
/* name */ 'wrist_stalk_arc_adapter - Part 1',
/* time_stamp */ '2026-08-28T18:25:00Z',
/* author */ (''),
/* organization */ (''),
/* preprocessor_version */ 'ST-DEVELOPER v20',
/* originating_system */ 'ONSHAPE BY PTC INC, 1.220',
/* authorisation */ '  ');

FILE_SCHEMA (('AP242_MANAGED_MODEL_BASED_3D_ENGINEERING_MIM_LF { 1 0 10303 442 3 1 4 }'));
ENDSEC;

DATA;
#10=SHAPE_REPRESENTATION_RELATIONSHIP('','',#391,#11);
#11=ADVANCED_BREP_SHAPE_REPRESENTATION('',(#389),#654);
#12=PLANE('',#400);
#13=PLANE('',#401);
#14=PLANE('',#403);
#15=PLANE('',#405);
#16=PLANE('',#406);
#17=PLANE('',#407);
#18=PLANE('',#409);
#19=PLANE('',#410);
#20=PLANE('',#411);
#21=PLANE('',#414);
#22=PLANE('',#415);
#23=PLANE('',#416);
#24=PLANE('',#417);
#25=PLANE('',#418);
#26=PLANE('',#421);
#27=PLANE('',#422);
#28=LINE('',#565,#62);
#29=LINE('',#569,#63);
#30=LINE('',#571,#64);
#31=LINE('',#574,#65);
#32=LINE('',#575,#66);
#33=LINE('',#577,#67);
#34=LINE('',#579,#68);
#35=LINE('',#581,#69);
#36=LINE('',#583,#70);
#37=LINE('',#585,#71);
#38=LINE('',#587,#72);
#39=LINE('',#593,#73);
#40=LINE('',#595,#74);
#41=LINE('',#597,#75);
#42=LINE('',#599,#76);
#43=LINE('',#601,#77);
#44=LINE('',#603,#78);
#45=LINE('',#605,#79);
#46=LINE('',#607,#80);
#47=LINE('',#611,#81);
#48=LINE('',#613,#82);
#49=LINE('',#615,#83);
#50=LINE('',#617,#84);
#51=LINE('',#620,#85);
#52=LINE('',#622,#86);
#53=LINE('',#624,#87);
#54=LINE('',#629,#88);
#55=LINE('',#631,#89);
#56=LINE('',#633,#90);
#57=LINE('',#635,#91);
#58=LINE('',#637,#92);
#59=LINE('',#639,#93);
#60=LINE('',#641,#94);
#61=LINE('',#643,#95);
#62=VECTOR('',#439,1.);
#63=VECTOR('',#442,1.);
#64=VECTOR('',#445,1.);
#65=VECTOR('',#446,1.);
#66=VECTOR('',#447,1.);
#67=VECTOR('',#450,1.);
#68=VECTOR('',#451,1.);
#69=VECTOR('',#452,1.);
#70=VECTOR('',#453,1.);
#71=VECTOR('',#454,1.);
#72=VECTOR('',#455,1.);
#73=VECTOR('',#462,1.);
#74=VECTOR('',#463,1.);
#75=VECTOR('',#466,1.);
#76=VECTOR('',#467,1.);
#77=VECTOR('',#468,1.);
#78=VECTOR('',#469,1.);
#79=VECTOR('',#470,1.);
#80=VECTOR('',#473,1.);
#81=VECTOR('',#478,1.);
#82=VECTOR('',#481,1.);
#83=VECTOR('',#484,1.);
#84=VECTOR('',#487,1.);
#85=VECTOR('',#488,1.);
#86=VECTOR('',#489,1.);
#87=VECTOR('',#490,1.);
#88=VECTOR('',#497,1.);
#89=VECTOR('',#498,1.);
#90=VECTOR('',#499,1.);
#91=VECTOR('',#502,1.);
#92=VECTOR('',#503,1.);
#93=VECTOR('',#506,1.);
#94=VECTOR('',#507,1.);
#95=VECTOR('',#510,1.);
#96=CIRCLE('',#394,0.0017);
#97=CIRCLE('',#396,0.0017);
#98=CIRCLE('',#398,0.02855);
#99=CIRCLE('',#399,0.02855);
#100=CIRCLE('',#402,0.0013);
#101=CIRCLE('',#404,0.0032);
#102=CIRCLE('',#408,0.0032);
#103=CIRCLE('',#413,0.0013);
#104=CIRCLE('',#420,0.0032);
#105=CIRCLE('',#423,0.0032);
#106=ORIENTED_EDGE('',*,*,#198,.T.);
#107=ORIENTED_EDGE('',*,*,#199,.F.);
#108=ORIENTED_EDGE('',*,*,#200,.T.);
#109=ORIENTED_EDGE('',*,*,#201,.T.);
#110=ORIENTED_EDGE('',*,*,#202,.F.);
#111=ORIENTED_EDGE('',*,*,#203,.T.);
#112=ORIENTED_EDGE('',*,*,#204,.T.);
#113=ORIENTED_EDGE('',*,*,#205,.F.);
#114=ORIENTED_EDGE('',*,*,#198,.F.);
#115=ORIENTED_EDGE('',*,*,#200,.F.);
#116=ORIENTED_EDGE('',*,*,#206,.T.);
#117=ORIENTED_EDGE('',*,*,#207,.F.);
#118=ORIENTED_EDGE('',*,*,#205,.T.);
#119=ORIENTED_EDGE('',*,*,#208,.T.);
#120=ORIENTED_EDGE('',*,*,#209,.T.);
#121=ORIENTED_EDGE('',*,*,#210,.F.);
#122=ORIENTED_EDGE('',*,*,#211,.T.);
#123=ORIENTED_EDGE('',*,*,#212,.F.);
#124=ORIENTED_EDGE('',*,*,#213,.F.);
#125=ORIENTED_EDGE('',*,*,#214,.F.);
#126=ORIENTED_EDGE('',*,*,#208,.F.);
#127=ORIENTED_EDGE('',*,*,#204,.F.);
#128=ORIENTED_EDGE('',*,*,#215,.F.);
#129=ORIENTED_EDGE('',*,*,#216,.F.);
#130=ORIENTED_EDGE('',*,*,#217,.F.);
#131=ORIENTED_EDGE('',*,*,#206,.F.);
#132=ORIENTED_EDGE('',*,*,#214,.T.);
#133=ORIENTED_EDGE('',*,*,#218,.T.);
#134=ORIENTED_EDGE('',*,*,#219,.F.);
#135=ORIENTED_EDGE('',*,*,#202,.T.);
#136=ORIENTED_EDGE('',*,*,#207,.T.);
#137=ORIENTED_EDGE('',*,*,#217,.T.);
#138=ORIENTED_EDGE('',*,*,#220,.T.);
#139=ORIENTED_EDGE('',*,*,#221,.T.);
#140=ORIENTED_EDGE('',*,*,#222,.F.);
#141=ORIENTED_EDGE('',*,*,#223,.T.);
#142=ORIENTED_EDGE('',*,*,#209,.F.);
#143=ORIENTED_EDGE('',*,*,#203,.F.);
#144=ORIENTED_EDGE('',*,*,#219,.T.);
#145=ORIENTED_EDGE('',*,*,#224,.F.);
#146=ORIENTED_EDGE('',*,*,#225,.F.);
#147=ORIENTED_EDGE('',*,*,#223,.F.);
#148=ORIENTED_EDGE('',*,*,#226,.F.);
#149=ORIENTED_EDGE('',*,*,#210,.T.);
#150=ORIENTED_EDGE('',*,*,#224,.T.);
#151=ORIENTED_EDGE('',*,*,#227,.T.);
#152=ORIENTED_EDGE('',*,*,#220,.F.);
#153=ORIENTED_EDGE('',*,*,#218,.F.);
#154=ORIENTED_EDGE('',*,*,#213,.T.);
#155=ORIENTED_EDGE('',*,*,#211,.F.);
#156=ORIENTED_EDGE('',*,*,#226,.T.);
#157=ORIENTED_EDGE('',*,*,#222,.T.);
#158=ORIENTED_EDGE('',*,*,#228,.F.);
#159=ORIENTED_EDGE('',*,*,#227,.F.);
#160=ORIENTED_EDGE('',*,*,#212,.T.);
#161=ORIENTED_EDGE('',*,*,#228,.T.);
#162=ORIENTED_EDGE('',*,*,#221,.F.);
#163=ORIENTED_EDGE('',*,*,#229,.T.);
#164=ORIENTED_EDGE('',*,*,#230,.T.);
#165=ORIENTED_EDGE('',*,*,#231,.F.);
#166=ORIENTED_EDGE('',*,*,#232,.F.);
#167=ORIENTED_EDGE('',*,*,#215,.T.);
#168=ORIENTED_EDGE('',*,*,#233,.F.);
#169=ORIENTED_EDGE('',*,*,#234,.F.);
#170=ORIENTED_EDGE('',*,*,#235,.F.);
#171=ORIENTED_EDGE('',*,*,#236,.T.);
#172=ORIENTED_EDGE('',*,*,#229,.F.);
#173=ORIENTED_EDGE('',*,*,#233,.T.);
#174=ORIENTED_EDGE('',*,*,#232,.T.);
#175=ORIENTED_EDGE('',*,*,#237,.F.);
#176=ORIENTED_EDGE('',*,*,#238,.F.);
#177=ORIENTED_EDGE('',*,*,#234,.T.);
#178=ORIENTED_EDGE('',*,*,#231,.T.);
#179=ORIENTED_EDGE('',*,*,#239,.F.);
#180=ORIENTED_EDGE('',*,*,#240,.T.);
#181=ORIENTED_EDGE('',*,*,#237,.T.);
#182=ORIENTED_EDGE('',*,*,#236,.F.);
#183=ORIENTED_EDGE('',*,*,#241,.T.);
#184=ORIENTED_EDGE('',*,*,#239,.T.);
#185=ORIENTED_EDGE('',*,*,#230,.F.);
#186=ORIENTED_EDGE('',*,*,#241,.F.);
#187=ORIENTED_EDGE('',*,*,#235,.T.);
#188=ORIENTED_EDGE('',*,*,#238,.T.);
#189=ORIENTED_EDGE('',*,*,#240,.F.);
#190=ORIENTED_EDGE('',*,*,#242,.F.);
#191=ORIENTED_EDGE('',*,*,#216,.T.);
#192=ORIENTED_EDGE('',*,*,#201,.F.);
#193=ORIENTED_EDGE('',*,*,#242,.T.);
#194=ORIENTED_EDGE('',*,*,#243,.T.);
#195=ORIENTED_EDGE('',*,*,#199,.T.);
#196=ORIENTED_EDGE('',*,*,#243,.F.);
#197=ORIENTED_EDGE('',*,*,#225,.T.);
#198=EDGE_CURVE('',#244,#244,#278,.T.);
#199=EDGE_CURVE('',#245,#245,#96,.F.);
#200=EDGE_CURVE('',#246,#246,#279,.T.);
#201=EDGE_CURVE('',#247,#247,#97,.T.);
#202=EDGE_CURVE('',#248,#249,#98,.F.);
#203=EDGE_CURVE('',#248,#250,#28,.T.);
#204=EDGE_CURVE('',#250,#251,#99,.T.);
#205=EDGE_CURVE('',#249,#251,#29,.T.);
#206=EDGE_CURVE('',#252,#253,#30,.F.);
#207=EDGE_CURVE('',#249,#253,#31,.T.);
#208=EDGE_CURVE('',#251,#252,#32,.T.);
#209=EDGE_CURVE('',#250,#254,#33,.T.);
#210=EDGE_CURVE('',#255,#254,#34,.T.);
#211=EDGE_CURVE('',#255,#256,#35,.T.);
#212=EDGE_CURVE('',#257,#256,#36,.T.);
#213=EDGE_CURVE('',#258,#257,#37,.T.);
#214=EDGE_CURVE('',#252,#258,#38,.T.);
#215=EDGE_CURVE('',#259,#259,#100,.T.);
#216=EDGE_CURVE('',#260,#260,#101,.T.);
#217=EDGE_CURVE('',#253,#261,#39,.T.);
#218=EDGE_CURVE('',#258,#261,#40,.T.);
#219=EDGE_CURVE('',#248,#262,#41,.T.);
#220=EDGE_CURVE('',#261,#263,#42,.T.);
#221=EDGE_CURVE('',#263,#264,#43,.T.);
#222=EDGE_CURVE('',#265,#264,#44,.T.);
#223=EDGE_CURVE('',#265,#262,#45,.T.);
#224=EDGE_CURVE('',#254,#262,#46,.T.);
#225=EDGE_CURVE('',#266,#266,#102,.T.);
#226=EDGE_CURVE('',#255,#265,#47,.F.);
#227=EDGE_CURVE('',#257,#263,#48,.F.);
#228=EDGE_CURVE('',#256,#264,#49,.T.);
#229=EDGE_CURVE('',#267,#268,#50,.F.);
#230=EDGE_CURVE('',#268,#269,#51,.T.);
#231=EDGE_CURVE('',#270,#269,#52,.F.);
#232=EDGE_CURVE('',#267,#270,#53,.F.);
#233=EDGE_CURVE('',#271,#271,#103,.T.);
#234=EDGE_CURVE('',#272,#267,#54,.T.);
#235=EDGE_CURVE('',#273,#272,#55,.T.);
#236=EDGE_CURVE('',#273,#268,#56,.T.);
#237=EDGE_CURVE('',#274,#270,#57,.T.);
#238=EDGE_CURVE('',#272,#274,#58,.T.);
#239=EDGE_CURVE('',#275,#269,#59,.T.);
#240=EDGE_CURVE('',#275,#274,#60,.T.);
#241=EDGE_CURVE('',#273,#275,#61,.F.);
#242=EDGE_CURVE('',#276,#276,#104,.T.);
#243=EDGE_CURVE('',#277,#277,#105,.T.);
#244=VERTEX_POINT('',#540);
#245=VERTEX_POINT('',#542);
#246=VERTEX_POINT('',#558);
#247=VERTEX_POINT('',#560);
#248=VERTEX_POINT('',#563);
#249=VERTEX_POINT('',#564);
#250=VERTEX_POINT('',#566);
#251=VERTEX_POINT('',#568);
#252=VERTEX_POINT('',#572);
#253=VERTEX_POINT('',#573);
#254=VERTEX_POINT('',#578);
#255=VERTEX_POINT('',#580);
#256=VERTEX_POINT('',#582);
#257=VERTEX_POINT('',#584);
#258=VERTEX_POINT('',#586);
#259=VERTEX_POINT('',#589);
#260=VERTEX_POINT('',#592);
#261=VERTEX_POINT('',#594);
#262=VERTEX_POINT('',#598);
#263=VERTEX_POINT('',#600);
#264=VERTEX_POINT('',#602);
#265=VERTEX_POINT('',#604);
#266=VERTEX_POINT('',#610);
#267=VERTEX_POINT('',#618);
#268=VERTEX_POINT('',#619);
#269=VERTEX_POINT('',#621);
#270=VERTEX_POINT('',#623);
#271=VERTEX_POINT('',#627);
#272=VERTEX_POINT('',#630);
#273=VERTEX_POINT('',#632);
#274=VERTEX_POINT('',#636);
#275=VERTEX_POINT('',#640);
#276=VERTEX_POINT('',#647);
#277=VERTEX_POINT('',#651);
#278=B_SPLINE_CURVE_WITH_KNOTS('',3,(#527,#528,#529,#530,#531,#532,#533,
#534,#535,#536,#537,#538,#539),.UNSPECIFIED.,.T.,.F.,(1,1,1,1,1,1,1,1,1,
1,1,1,1,1,1,1,1),(-0.00285787645369766,-0.00142893822684883,-0.000714469113424413,
1.36163364383192E-18,0.000714469113424416,0.00142893822684883,0.00285787645369766,
0.00428681468054649,0.00571575290739532,0.00714469113424415,0.00857362936109298,
0.0100025675879418,0.0107170367013662,0.0114315058147906,0.012145974928215,
0.0128604440416395,0.0142893822684883),.UNSPECIFIED.);
#279=B_SPLINE_CURVE_WITH_KNOTS('',3,(#544,#545,#546,#547,#548,#549,#550,
#551,#552,#553,#554,#555,#556,#557),.UNSPECIFIED.,.T.,.F.,(1,1,1,1,1,1,
1,1,1,1,1,1,1,1,1,1,1,1),(-0.00285855633925201,-0.00142927816962601,-0.000714639084813003,
5.09389528974682E-19,0.00142927816962601,0.00285855633925201,0.00428783450887801,
0.00500247359369102,0.00571711267850402,0.00643175176331702,0.00714639084813002,
0.00857566901775603,0.010004947187382,0.010719586272195,0.011434225357008,
0.012863503526634,0.01429278169626,0.0157220598658861),.UNSPECIFIED.);
#280=EDGE_LOOP('',(#106));
#281=EDGE_LOOP('',(#107));
#282=EDGE_LOOP('',(#108));
#283=EDGE_LOOP('',(#109));
#284=EDGE_LOOP('',(#110,#111,#112,#113));
#285=EDGE_LOOP('',(#114));
#286=EDGE_LOOP('',(#115));
#287=EDGE_LOOP('',(#116,#117,#118,#119));
#288=EDGE_LOOP('',(#120,#121,#122,#123,#124,#125,#126,#127));
#289=EDGE_LOOP('',(#128));
#290=EDGE_LOOP('',(#129));
#291=EDGE_LOOP('',(#130,#131,#132,#133));
#292=EDGE_LOOP('',(#134,#135,#136,#137,#138,#139,#140,#141));
#293=EDGE_LOOP('',(#142,#143,#144,#145));
#294=EDGE_LOOP('',(#146));
#295=EDGE_LOOP('',(#147,#148,#149,#150));
#296=EDGE_LOOP('',(#151,#152,#153,#154));
#297=EDGE_LOOP('',(#155,#156,#157,#158));
#298=EDGE_LOOP('',(#159,#160,#161,#162));
#299=EDGE_LOOP('',(#163,#164,#165,#166));
#300=EDGE_LOOP('',(#167));
#301=EDGE_LOOP('',(#168));
#302=EDGE_LOOP('',(#169,#170,#171,#172));
#303=EDGE_LOOP('',(#173));
#304=EDGE_LOOP('',(#174,#175,#176,#177));
#305=EDGE_LOOP('',(#178,#179,#180,#181));
#306=EDGE_LOOP('',(#182,#183,#184,#185));
#307=EDGE_LOOP('',(#186,#187,#188,#189));
#308=EDGE_LOOP('',(#190));
#309=EDGE_LOOP('',(#191));
#310=EDGE_LOOP('',(#192));
#311=EDGE_LOOP('',(#193));
#312=EDGE_LOOP('',(#194));
#313=EDGE_LOOP('',(#195));
#314=EDGE_LOOP('',(#196));
#315=EDGE_LOOP('',(#197));
#316=FACE_BOUND('',#280,.T.);
#317=FACE_BOUND('',#281,.T.);
#318=FACE_BOUND('',#282,.T.);
#319=FACE_BOUND('',#283,.T.);
#320=FACE_BOUND('',#284,.T.);
#321=FACE_BOUND('',#285,.T.);
#322=FACE_BOUND('',#286,.T.);
#323=FACE_BOUND('',#287,.T.);
#324=FACE_BOUND('',#288,.T.);
#325=FACE_BOUND('',#289,.T.);
#326=FACE_BOUND('',#290,.T.);
#327=FACE_BOUND('',#291,.T.);
#328=FACE_BOUND('',#292,.T.);
#329=FACE_BOUND('',#293,.T.);
#330=FACE_BOUND('',#294,.T.);
#331=FACE_BOUND('',#295,.T.);
#332=FACE_BOUND('',#296,.T.);
#333=FACE_BOUND('',#297,.T.);
#334=FACE_BOUND('',#298,.T.);
#335=FACE_BOUND('',#299,.T.);
#336=FACE_BOUND('',#300,.T.);
#337=FACE_BOUND('',#301,.T.);
#338=FACE_BOUND('',#302,.T.);
#339=FACE_BOUND('',#303,.T.);
#340=FACE_BOUND('',#304,.T.);
#341=FACE_BOUND('',#305,.T.);
#342=FACE_BOUND('',#306,.T.);
#343=FACE_BOUND('',#307,.T.);
#344=FACE_BOUND('',#308,.T.);
#345=FACE_BOUND('',#309,.T.);
#346=FACE_BOUND('',#310,.T.);
#347=FACE_BOUND('',#311,.T.);
#348=FACE_BOUND('',#312,.T.);
#349=FACE_BOUND('',#313,.T.);
#350=FACE_BOUND('',#314,.T.);
#351=FACE_BOUND('',#315,.T.);
#352=CYLINDRICAL_SURFACE('',#393,0.0017);
#353=CYLINDRICAL_SURFACE('',#395,0.0017);
#354=CYLINDRICAL_SURFACE('',#397,0.02855);
#355=CYLINDRICAL_SURFACE('',#412,0.0013);
#356=CYLINDRICAL_SURFACE('',#419,0.0032);
#357=CYLINDRICAL_SURFACE('',#424,0.0032);
#358=ADVANCED_FACE('',(#316,#317),#352,.F.);
#359=ADVANCED_FACE('',(#318,#319),#353,.F.);
#360=ADVANCED_FACE('',(#320,#321,#322),#354,.F.);
#361=ADVANCED_FACE('',(#323),#12,.F.);
#362=ADVANCED_FACE('',(#324,#325),#13,.F.);
#363=ADVANCED_FACE('',(#326,#327),#14,.T.);
#364=ADVANCED_FACE('',(#328),#15,.T.);
#365=ADVANCED_FACE('',(#329),#16,.T.);
#366=ADVANCED_FACE('',(#330,#331),#17,.T.);
#367=ADVANCED_FACE('',(#332),#18,.F.);
#368=ADVANCED_FACE('',(#333),#19,.T.);
#369=ADVANCED_FACE('',(#334,#335),#20,.T.);
#370=ADVANCED_FACE('',(#336,#337),#355,.F.);
#371=ADVANCED_FACE('',(#338,#339),#21,.T.);
#372=ADVANCED_FACE('',(#340),#22,.F.);
#373=ADVANCED_FACE('',(#341),#23,.F.);
#374=ADVANCED_FACE('',(#342),#24,.T.);
#375=ADVANCED_FACE('',(#343),#25,.T.);
#376=ADVANCED_FACE('',(#344,#345),#356,.F.);
#377=ADVANCED_FACE('',(#346,#347),#26,.T.);
#378=ADVANCED_FACE('',(#348,#349),#27,.T.);
#379=ADVANCED_FACE('',(#350,#351),#357,.F.);
#380=CLOSED_SHELL('',(#358,#359,#360,#361,#362,#363,#364,#365,#366,#367,
#368,#369,#370,#371,#372,#373,#374,#375,#376,#377,#378,#379));
#381=STYLED_ITEM('',(#382),#389);
#382=PRESENTATION_STYLE_ASSIGNMENT((#383));
#383=SURFACE_STYLE_USAGE(.BOTH.,#384);
#384=SURFACE_SIDE_STYLE('',(#385));
#385=SURFACE_STYLE_FILL_AREA(#386);
#386=FILL_AREA_STYLE('',(#387));
#387=FILL_AREA_STYLE_COLOUR('',#388);
#388=COLOUR_RGB('',0.972549019607843,0.529411764705882,0.00392156862745098);
#389=MANIFOLD_SOLID_BREP('Part 1',#380);
#390=SHAPE_DEFINITION_REPRESENTATION(#659,#391);
#391=SHAPE_REPRESENTATION('Part 1',(#392),#654);
#392=AXIS2_PLACEMENT_3D('',#525,#425,#426);
#393=AXIS2_PLACEMENT_3D('',#526,#427,#428);
#394=AXIS2_PLACEMENT_3D('',#541,#429,#430);
#395=AXIS2_PLACEMENT_3D('',#543,#431,#432);
#396=AXIS2_PLACEMENT_3D('',#559,#433,#434);
#397=AXIS2_PLACEMENT_3D('',#561,#435,#436);
#398=AXIS2_PLACEMENT_3D('',#562,#437,#438);
#399=AXIS2_PLACEMENT_3D('',#567,#440,#441);
#400=AXIS2_PLACEMENT_3D('',#570,#443,#444);
#401=AXIS2_PLACEMENT_3D('',#576,#448,#449);
#402=AXIS2_PLACEMENT_3D('',#588,#456,#457);
#403=AXIS2_PLACEMENT_3D('',#590,#458,#459);
#404=AXIS2_PLACEMENT_3D('',#591,#460,#461);
#405=AXIS2_PLACEMENT_3D('',#596,#464,#465);
#406=AXIS2_PLACEMENT_3D('',#606,#471,#472);
#407=AXIS2_PLACEMENT_3D('',#608,#474,#475);
#408=AXIS2_PLACEMENT_3D('',#609,#476,#477);
#409=AXIS2_PLACEMENT_3D('',#612,#479,#480);
#410=AXIS2_PLACEMENT_3D('',#614,#482,#483);
#411=AXIS2_PLACEMENT_3D('',#616,#485,#486);
#412=AXIS2_PLACEMENT_3D('',#625,#491,#492);
#413=AXIS2_PLACEMENT_3D('',#626,#493,#494);
#414=AXIS2_PLACEMENT_3D('',#628,#495,#496);
#415=AXIS2_PLACEMENT_3D('',#634,#500,#501);
#416=AXIS2_PLACEMENT_3D('',#638,#504,#505);
#417=AXIS2_PLACEMENT_3D('',#642,#508,#509);
#418=AXIS2_PLACEMENT_3D('',#644,#511,#512);
#419=AXIS2_PLACEMENT_3D('',#645,#513,#514);
#420=AXIS2_PLACEMENT_3D('',#646,#515,#516);
#421=AXIS2_PLACEMENT_3D('',#648,#517,#518);
#422=AXIS2_PLACEMENT_3D('',#649,#519,#520);
#423=AXIS2_PLACEMENT_3D('',#650,#521,#522);
#424=AXIS2_PLACEMENT_3D('',#652,#523,#524);
#425=DIRECTION('',(0.,0.,1.));
#426=DIRECTION('',(1.,0.,0.));
#427=DIRECTION('',(0.,0.,1.));
#428=DIRECTION('',(1.,0.,0.));
#429=DIRECTION('',(0.,0.,1.));
#430=DIRECTION('',(1.,0.,0.));
#431=DIRECTION('',(0.,0.,1.));
#432=DIRECTION('',(1.,0.,0.));
#433=DIRECTION('',(0.,0.,1.));
#434=DIRECTION('',(1.,0.,0.));
#435=DIRECTION('',(0.,-1.,0.));
#436=DIRECTION('',(0.,0.,-1.));
#437=DIRECTION('',(0.,1.,0.));
#438=DIRECTION('',(0.,0.,1.));
#439=DIRECTION('',(0.,-1.,0.));
#440=DIRECTION('',(0.,-1.,0.));
#441=DIRECTION('',(0.,0.,-1.));
#442=DIRECTION('',(0.,-1.,0.));
#443=DIRECTION('',(1.,0.,0.));
#444=DIRECTION('',(0.,0.,1.));
#445=DIRECTION('',(0.,-1.,0.));
#446=DIRECTION('',(0.,0.,1.));
#447=DIRECTION('',(0.,0.,1.));
#448=DIRECTION('',(0.,1.,0.));
#449=DIRECTION('',(0.,0.,1.));
#450=DIRECTION('',(0.,0.,1.));
#451=DIRECTION('',(1.,0.,0.));
#452=DIRECTION('',(0.,0.,1.));
#453=DIRECTION('',(1.,0.,0.));
#454=DIRECTION('',(0.,0.,1.));
#455=DIRECTION('',(1.,0.,0.));
#456=DIRECTION('',(0.,-1.,2.22044604925E-16));
#457=DIRECTION('',(0.,-2.22044604925E-16,-1.));
#458=DIRECTION('',(0.,0.,1.));
#459=DIRECTION('',(1.,0.,0.));
#460=DIRECTION('',(0.,0.,1.));
#461=DIRECTION('',(1.,0.,0.));
#462=DIRECTION('',(1.,0.,0.));
#463=DIRECTION('',(0.,1.,0.));
#464=DIRECTION('',(0.,1.,0.));
#465=DIRECTION('',(0.,0.,1.));
#466=DIRECTION('',(0.,0.,1.));
#467=DIRECTION('',(0.,0.,1.));
#468=DIRECTION('',(1.,0.,0.));
#469=DIRECTION('',(0.,0.,1.));
#470=DIRECTION('',(1.,0.,0.));
#471=DIRECTION('',(1.,0.,0.));
#472=DIRECTION('',(0.,0.,1.));
#473=DIRECTION('',(0.,1.,0.));
#474=DIRECTION('',(0.,0.,1.));
#475=DIRECTION('',(1.,0.,0.));
#476=DIRECTION('',(0.,0.,1.));
#477=DIRECTION('',(1.,0.,0.));
#478=DIRECTION('',(0.,-1.,0.));
#479=DIRECTION('',(1.,0.,0.));
#480=DIRECTION('',(0.,0.,1.));
#481=DIRECTION('',(0.,-1.,0.));
#482=DIRECTION('',(1.,0.,0.));
#483=DIRECTION('',(0.,0.,1.));
#484=DIRECTION('',(0.,1.,0.));
#485=DIRECTION('',(0.,0.,1.));
#486=DIRECTION('',(1.,0.,0.));
#487=DIRECTION('',(1.,0.,0.));
#488=DIRECTION('',(0.,1.,0.));
#489=DIRECTION('',(1.,0.,0.));
#490=DIRECTION('',(0.,-1.,0.));
#491=DIRECTION('',(0.,-1.,2.22044604925E-16));
#492=DIRECTION('',(1.,0.,0.));
#493=DIRECTION('',(0.,-1.,2.22044604925E-16));
#494=DIRECTION('',(0.,-2.22044604925E-16,-1.));
#495=DIRECTION('',(0.,1.,0.));
#496=DIRECTION('',(0.,0.,1.));
#497=DIRECTION('',(0.,0.,1.));
#498=DIRECTION('',(1.,0.,0.));
#499=DIRECTION('',(0.,0.,1.));
#500=DIRECTION('',(1.,0.,0.));
#501=DIRECTION('',(0.,0.,1.));
#502=DIRECTION('',(0.,0.,1.));
#503=DIRECTION('',(0.,1.,0.));
#504=DIRECTION('',(0.,1.,0.));
#505=DIRECTION('',(0.,0.,1.));
#506=DIRECTION('',(0.,0.,1.));
#507=DIRECTION('',(1.,0.,0.));
#508=DIRECTION('',(1.,0.,0.));
#509=DIRECTION('',(0.,0.,1.));
#510=DIRECTION('',(0.,-1.,0.));
#511=DIRECTION('',(0.,0.,1.));
#512=DIRECTION('',(1.,0.,0.));
#513=DIRECTION('',(0.,0.,1.));
#514=DIRECTION('',(1.,0.,0.));
#515=DIRECTION('',(0.,0.,1.));
#516=DIRECTION('',(1.,0.,0.));
#517=DIRECTION('',(0.,0.,1.));
#518=DIRECTION('',(1.,0.,0.));
#519=DIRECTION('',(0.,0.,1.));
#520=DIRECTION('',(1.,0.,0.));
#521=DIRECTION('',(0.,0.,1.));
#522=DIRECTION('',(1.,0.,0.));
#523=DIRECTION('',(0.,0.,1.));
#524=DIRECTION('',(1.,0.,0.));
#525=CARTESIAN_POINT('',(0.,0.,0.));
#526=CARTESIAN_POINT('',(0.014,1.04094977927525E-19,-2.00000000000027E-6));
#527=CARTESIAN_POINT('',(0.01559324839858,0.000721252261673842,-0.0150837099611349));
#528=CARTESIAN_POINT('',(0.0157529628457781,-1.22436359244688E-6,-0.0151894777500937));
#529=CARTESIAN_POINT('',(0.0155949002183076,-0.000716354807304055,-0.0150847965712856));
#530=CARTESIAN_POINT('',(0.0150555137749413,-0.00145636372899537,-0.0147372316054275));
#531=CARTESIAN_POINT('',(0.0140324214041966,-0.00185201037359101,-0.0141202692627752));
#532=CARTESIAN_POINT('',(0.0127479344374341,-0.00141379388191348,-0.0134452678175074));
#533=CARTESIAN_POINT('',(0.0120782514250615,-7.01799399773297E-6,-0.0131316424899781));
#534=CARTESIAN_POINT('',(0.0127391124101462,0.00140912486074668,-0.0134408333630062));
#535=CARTESIAN_POINT('',(0.0140340282702098,0.00185366541448868,-0.0141210348350836));
#536=CARTESIAN_POINT('',(0.0150545596866096,0.00145505646299045,-0.0147366885274673));
#537=CARTESIAN_POINT('',(0.01559324839858,0.000721252261673842,-0.0150837099611349));
#538=CARTESIAN_POINT('',(0.0157529628457781,-1.22436359244688E-6,-0.0151894777500937));
#539=CARTESIAN_POINT('',(0.0155949002183076,-0.000716354807304055,-0.0150847965712856));
#540=CARTESIAN_POINT('',(0.0157,-1.30101866065485E-18,-0.0151544029221325));
#541=CARTESIAN_POINT('',(0.014,1.04094977927525E-19,0.0017));
#542=CARTESIAN_POINT('',(0.0157,1.04094977927525E-19,0.0017));
#543=CARTESIAN_POINT('',(-0.014,1.04094977927525E-19,-2.00000000000027E-6));
#544=CARTESIAN_POINT('',(-0.0124057685089735,0.000721588152940897,-0.0132855551142319));
#545=CARTESIAN_POINT('',(-0.0121922320793901,-0.000244453041012701,-0.0131846584183598));
#546=CARTESIAN_POINT('',(-0.012741068740622,-0.00140786339559017,-0.0134419137988116));
#547=CARTESIAN_POINT('',(-0.0140360120764254,-0.00185288624893326,-0.0141222131337176));
#548=CARTESIAN_POINT('',(-0.0150518442434997,-0.00145850522905502,-0.0147349872537578));
#549=CARTESIAN_POINT('',(-0.0155942182540511,-0.000718516410036228,-0.0150843289641221));
#550=CARTESIAN_POINT('',(-0.0157521621760536,-4.93545513037711E-6,-0.0151889574372183));
#551=CARTESIAN_POINT('',(-0.0155971020771641,0.000713125059631221,-0.015086238432655));
#552=CARTESIAN_POINT('',(-0.0150558271310865,0.00145639077978775,-0.014737371368195));
#553=CARTESIAN_POINT('',(-0.0140319303016863,0.00185531240175698,-0.0141201662689647));
#554=CARTESIAN_POINT('',(-0.0129625018196065,0.00147690590150563,-0.0135575573786104));
#555=CARTESIAN_POINT('',(-0.0124057685089735,0.000721588152940897,-0.0132855551142319));
#556=CARTESIAN_POINT('',(-0.0121922320793901,-0.000244453041012701,-0.0131846584183598));
#557=CARTESIAN_POINT('',(-0.012741068740622,-0.00140786339559017,-0.0134419137988116));
#558=CARTESIAN_POINT('',(-0.0123,-4.20706436773653E-19,-0.0132354410090139));
#559=CARTESIAN_POINT('',(-0.014,1.04094977927525E-19,0.0017));
#560=CARTESIAN_POINT('',(-0.0123,1.04094977927525E-19,0.0017));
#561=CARTESIAN_POINT('',(-3.46944695195361E-18,0.007002,-0.039));
#562=CARTESIAN_POINT('',(-3.46944695195361E-18,0.007,-0.039));
#563=CARTESIAN_POINT('',(0.022,0.007,-0.0208037778646225));
#564=CARTESIAN_POINT('',(-0.022,0.007,-0.0208037778646225));
#565=CARTESIAN_POINT('',(0.022,0.007002,-0.0208037778646225));
#566=CARTESIAN_POINT('',(0.022,-0.007,-0.0208037778646225));
#567=CARTESIAN_POINT('',(-3.46944695195361E-18,-0.007,-0.039));
#568=CARTESIAN_POINT('',(-0.022,-0.007,-0.0208037778646225));
#569=CARTESIAN_POINT('',(-0.022,0.007002,-0.0208037778646225));
#570=CARTESIAN_POINT('',(-0.022,-0.007,0.));
#571=CARTESIAN_POINT('',(-0.022,-0.007,0.005));
#572=CARTESIAN_POINT('',(-0.022,-0.007,0.005));
#573=CARTESIAN_POINT('',(-0.022,0.007,0.005));
#574=CARTESIAN_POINT('',(-0.022,0.007,0.));
#575=CARTESIAN_POINT('',(-0.022,-0.007,0.));
#576=CARTESIAN_POINT('',(-0.022,-0.007,0.));
#577=CARTESIAN_POINT('',(0.022,-0.007,0.));
#578=CARTESIAN_POINT('',(0.022,-0.007,0.005));
#579=CARTESIAN_POINT('',(-0.022,-0.007,0.005));
#580=CARTESIAN_POINT('',(0.007,-0.007,0.005));
#581=CARTESIAN_POINT('',(0.007,-0.007,0.));
#582=CARTESIAN_POINT('',(0.007,-0.007,0.029));
#583=CARTESIAN_POINT('',(-0.007,-0.007,0.029));
#584=CARTESIAN_POINT('',(-0.007,-0.007,0.029));
#585=CARTESIAN_POINT('',(-0.007,-0.007,0.005));
#586=CARTESIAN_POINT('',(-0.007,-0.007,0.005));
#587=CARTESIAN_POINT('',(-0.022,-0.007,0.005));
#588=CARTESIAN_POINT('',(0.,-0.007,0.019));
#589=CARTESIAN_POINT('',(0.,-0.007,0.0177));
#590=CARTESIAN_POINT('',(-0.022,-0.007,0.005));
#591=CARTESIAN_POINT('',(-0.014,3.00038465791101E-19,0.005));
#592=CARTESIAN_POINT('',(-0.0108,3.00038465791101E-19,0.005));
#593=CARTESIAN_POINT('',(-0.022,0.007,0.005));
#594=CARTESIAN_POINT('',(-0.007,0.007,0.005));
#595=CARTESIAN_POINT('',(-0.007,-0.007,0.005));
#596=CARTESIAN_POINT('',(-0.022,0.007,0.));
#597=CARTESIAN_POINT('',(0.022,0.007,0.));
#598=CARTESIAN_POINT('',(0.022,0.007,0.005));
#599=CARTESIAN_POINT('',(-0.007,0.007,0.));
#600=CARTESIAN_POINT('',(-0.007,0.007,0.029));
#601=CARTESIAN_POINT('',(-0.022,0.007,0.029));
#602=CARTESIAN_POINT('',(0.007,0.007,0.029));
#603=CARTESIAN_POINT('',(0.007,0.007,0.005));
#604=CARTESIAN_POINT('',(0.007,0.007,0.005));
#605=CARTESIAN_POINT('',(-0.022,0.007,0.005));
#606=CARTESIAN_POINT('',(0.022,-0.007,0.));
#607=CARTESIAN_POINT('',(0.022,-0.007,0.005));
#608=CARTESIAN_POINT('',(-0.022,-0.007,0.005));
#609=CARTESIAN_POINT('',(0.014,3.00038465791101E-19,0.005));
#610=CARTESIAN_POINT('',(0.0172,3.00038465791101E-19,0.005));
#611=CARTESIAN_POINT('',(0.007,-0.007,0.005));
#612=CARTESIAN_POINT('',(-0.007,-0.007,0.005));
#613=CARTESIAN_POINT('',(-0.007,-0.007,0.029));
#614=CARTESIAN_POINT('',(0.007,-0.007,0.005));
#615=CARTESIAN_POINT('',(0.007,-0.007,0.029));
#616=CARTESIAN_POINT('',(-0.007,-0.007,0.029));
#617=CARTESIAN_POINT('',(-0.007,-0.004125,0.029));
#618=CARTESIAN_POINT('',(0.004125,-0.004125,0.029));
#619=CARTESIAN_POINT('',(-0.004125,-0.004125,0.029));
#620=CARTESIAN_POINT('',(-0.004125,-0.007,0.029));
#621=CARTESIAN_POINT('',(-0.004125,0.004125,0.029));
#622=CARTESIAN_POINT('',(-0.004125,0.004125,0.029));
#623=CARTESIAN_POINT('',(0.004125,0.004125,0.029));
#624=CARTESIAN_POINT('',(0.004125,-0.004125,0.029));
#625=CARTESIAN_POINT('',(0.,0.002,0.019));
#626=CARTESIAN_POINT('',(0.,-0.004125,0.019));
#627=CARTESIAN_POINT('',(0.,-0.004125,0.0177));
#628=CARTESIAN_POINT('',(-0.004125,-0.004125,0.009));
#629=CARTESIAN_POINT('',(0.004125,-0.004125,0.009));
#630=CARTESIAN_POINT('',(0.004125,-0.004125,0.009));
#631=CARTESIAN_POINT('',(-0.004125,-0.004125,0.009));
#632=CARTESIAN_POINT('',(-0.004125,-0.004125,0.009));
#633=CARTESIAN_POINT('',(-0.004125,-0.004125,0.009));
#634=CARTESIAN_POINT('',(0.004125,-0.004125,0.009));
#635=CARTESIAN_POINT('',(0.004125,0.004125,0.009));
#636=CARTESIAN_POINT('',(0.004125,0.004125,0.009));
#637=CARTESIAN_POINT('',(0.004125,-0.004125,0.009));
#638=CARTESIAN_POINT('',(-0.004125,0.004125,0.009));
#639=CARTESIAN_POINT('',(-0.004125,0.004125,0.009));
#640=CARTESIAN_POINT('',(-0.004125,0.004125,0.009));
#641=CARTESIAN_POINT('',(-0.004125,0.004125,0.009));
#642=CARTESIAN_POINT('',(-0.004125,-0.004125,0.009));
#643=CARTESIAN_POINT('',(-0.004125,-0.004125,0.009));
#644=CARTESIAN_POINT('',(-0.004125,-0.004125,0.009));
#645=CARTESIAN_POINT('',(-0.014,3.00038465791101E-19,0.0017));
#646=CARTESIAN_POINT('',(-0.014,3.00038465791101E-19,0.0017));
#647=CARTESIAN_POINT('',(-0.0108,3.00038465791101E-19,0.0017));
#648=CARTESIAN_POINT('',(-0.0024,0.,0.0017));
#649=CARTESIAN_POINT('',(-0.0024,0.,0.0017));
#650=CARTESIAN_POINT('',(0.014,3.00038465791101E-19,0.0017));
#651=CARTESIAN_POINT('',(0.0172,3.00038465791101E-19,0.0017));
#652=CARTESIAN_POINT('',(0.014,3.00038465791101E-19,0.0017));
#653=MECHANICAL_DESIGN_GEOMETRIC_PRESENTATION_REPRESENTATION('',(#381),
#654);
#654=(
GEOMETRIC_REPRESENTATION_CONTEXT(3)
GLOBAL_UNCERTAINTY_ASSIGNED_CONTEXT((#655))
GLOBAL_UNIT_ASSIGNED_CONTEXT((#658,#657,#656))
REPRESENTATION_CONTEXT('Part 1','TOP_LEVEL_ASSEMBLY_PART')
);
#655=UNCERTAINTY_MEASURE_WITH_UNIT(LENGTH_MEASURE(2.E-5),#658,
'DISTANCE_ACCURACY_VALUE','Maximum Tolerance applied to model');
#656=(
NAMED_UNIT(*)
SI_UNIT($,.STERADIAN.)
SOLID_ANGLE_UNIT()
);
#657=(
NAMED_UNIT(*)
PLANE_ANGLE_UNIT()
SI_UNIT($,.RADIAN.)
);
#658=(
LENGTH_UNIT()
NAMED_UNIT(*)
SI_UNIT($,.METRE.)
);
#659=PRODUCT_DEFINITION_SHAPE('','',#660);
#660=PRODUCT_DEFINITION('','',#662,#661);
#661=PRODUCT_DEFINITION_CONTEXT('',#668,'design');
#662=PRODUCT_DEFINITION_FORMATION_WITH_SPECIFIED_SOURCE('','',#664,
 .NOT_KNOWN.);
#663=PRODUCT_RELATED_PRODUCT_CATEGORY('','',(#664));
#664=PRODUCT('Part 1','Part 1','Part 1',(#666));
#665=PRODUCT_CATEGORY('','');
#666=PRODUCT_CONTEXT('',#668,'mechanical');
#667=APPLICATION_PROTOCOL_DEFINITION('international standard',
'ap242_managed_model_based_3d_engineering',2020,#668);
#668=APPLICATION_CONTEXT('managed model based 3d engineering');
ENDSEC;
END-ISO-10303-21;
